SplineFontDB: 3.0
FontName: VGAMedium
FullName: VGA
FamilyName: VGA
Weight: Medium
Copyright: 
UComments: "See http://fontforge.sf.net for information on FontForge." 
Version: 1.00
ItalicAngle: 0
UnderlinePosition: -217
UnderlineWidth: 42
Ascent: 819
Descent: 205
LayerCount: 2
Layer: 0 0 "Back"  1
Layer: 1 0 "Fore"  0
XUID: [1021 140 1293607838 5610107]
FSType: 0
OS2Version: 0
OS2_WeightWidthSlopeOnly: 0
OS2_UseTypoMetrics: 0
CreationTime: 1386229564
ModificationTime: 1387250464
PfmFamily: 33
TTFWeight: 500
TTFWidth: 5
LineGap: 0
VLineGap: 0
Panose: 2 0 6 4 0 0 0 0 0 0
OS2TypoAscent: 0
OS2TypoAOffset: 1
OS2TypoDescent: 0
OS2TypoDOffset: 1
OS2TypoLinegap: 0
OS2WinAscent: 0
OS2WinAOffset: 1
OS2WinDescent: 0
OS2WinDOffset: 1
HheadAscent: 0
HheadAOffset: 1
HheadDescent: 0
HheadDOffset: 1
OS2Vendor: 'PfEd'
MarkAttachClasses: 1
DEI: 91125
LangName: 1033 
Encoding: UnicodeBmp
UnicodeInterp: none
NameList: Adobe Glyph List
DisplaySize: -24
AntiAlias: 1
FitToEm: 1
WinInfo: 0 16 4
BeginPrivate: 0
EndPrivate
TeXData: 1 0 0 346030 173015 115343 0 1048576 115343 783286 444596 497025 792723 393216 433062 380633 303038 157286 324010 404750 52429 2506097 1059062 262144
BeginChars: 65536 2930

StartChar: 0000
Encoding: 0 0 0
Width: 512
Flags: HW
LayerCount: 2
Fore
SplineSet
256 128 m 1
 256 192 l 1
 128 192 l 1
 128 128 l 1
 256 128 l 1
448 128 m 1
 448 192 l 1
 320 192 l 1
 320 128 l 1
 448 128 l 1
128 704 m 1
 128 768 l 1
 0 768 l 1
 0 704 l 1
 128 704 l 1
320 704 m 1
 320 768 l 1
 192 768 l 1
 192 704 l 1
 320 704 l 1
0 256 m 1
 -0 213.333 0 170.667 0 128 c 1
 64 128 l 1
 64 170.667 64 213.333 64 256 c 1
 0 256 l 1
384 384 m 1
 384 341.333 384 298.667 384 256 c 1
 448 256 l 1
 448 298.667 448 341.333 448 384 c 1
 384 384 l 1
0 448 m 1
 -0 405.333 0 362.667 0 320 c 1
 64 320 l 1
 64 362.667 64 405.333 64 448 c 1
 0 448 l 1
384 576 m 1
 384 533.333 384 490.667 384 448 c 1
 448 448 l 1
 448 490.667 448 533.333 448 576 c 1
 384 576 l 1
0 640 m 1
 -0 597.333 0 554.667 0 512 c 1
 64 512 l 1
 64 554.667 64 597.333 64 640 c 1
 0 640 l 1
384 768 m 1
 384 725.333 384 682.667 384 640 c 1
 448 640 l 1
 448 682.667 448 725.333 448 768 c 1
 384 768 l 1
EndSplineSet
EndChar

StartChar: 0021
Encoding: 33 33 2
Width: 512
Flags: HW
LayerCount: 2
Fore
SplineSet
192 256 m 1
 192 213.333 192 170.667 192 128 c 1
 320 128 l 1
 320 170.667 320 213.333 320 256 c 1
 192 256 l 1
192 512 m 1
 192 320 l 1
 320 320 l 1
 320 512 l 1
 384 512 l 1
 384 704 l 1
 320 704 l 1
 320 768 l 1
 192 768 l 1
 192 704 l 1
 128 704 l 1
 128 512 l 1
 192 512 l 1
EndSplineSet
EndChar

StartChar: 0022
Encoding: 34 34 3
Width: 512
Flags: HW
LayerCount: 2
Fore
SplineSet
128 640 m 1
 128 576 l 1
 192 576 l 1
 192 661.333 192 746.667 192 832 c 1
 64 832 l 1
 64 640 l 1
 128 640 l 1
384 640 m 1
 448 640 l 1
 448 832 l 1
 320 832 l 1
 320 746.667 320 661.333 320 576 c 1
 384 576 l 1
 384 640 l 1
EndSplineSet
EndChar

StartChar: 0023
Encoding: 35 35 4
Width: 512
Flags: HW
LayerCount: 2
Fore
SplineSet
448 256 m 1
 448 320 l 1
 384 320 l 1
 384 512 l 1
 448 512 l 1
 448 576 l 1
 384 576 l 1
 384 618.667 384 661.333 384 704 c 1
 256 704 l 1
 256 661.333 256 618.667 256 576 c 1
 192 576 l 1
 192 618.667 192 661.333 192 704 c 1
 64 704 l 1
 64 661.333 64 618.667 64 576 c 1
 0 576 l 1
 0 512 l 1
 64 512 l 1
 64 320 l 1
 0 320 l 1
 0 256 l 1
 64 256 l 1
 64 213.333 64 170.667 64 128 c 1
 192 128 l 1
 192 170.667 192 213.333 192 256 c 1
 256 256 l 1
 256 213.333 256 170.667 256 128 c 1
 384 128 l 1
 384 170.667 384 213.333 384 256 c 1
 448 256 l 1
192 320 m 1
 192 512 l 1
 256 512 l 1
 256 320 l 1
 192 320 l 1
EndSplineSet
EndChar

StartChar: 0024
Encoding: 36 36 5
Width: 512
Flags: HW
LayerCount: 2
Fore
SplineSet
192 128 m 1
 192 85.3333 192 42.6667 192 0 c 1
 320 0 l 1
 320 42.6667 320 85.3333 320 128 c 1
 384 128 l 1
 384 192 l 1
 448 192 l 1
 448 277.333 448 362.667 448 448 c 1
 384 448 l 1
 384 512 l 1
 128 512 l 1
 128 704 l 1
 320 704 l 1
 320 640 l 1
 384 640 l 1
 384 576 l 1
 448 576 l 1
 448 618.667 448 661.333 448 704 c 1
 384 704 l 1
 384 768 l 1
 320 768 l 1
 320 810.667 320 853.333 320 896 c 1
 192 896 l 1
 192 853.333 192 810.667 192 768 c 1
 64 768 l 1
 64 704 l 1
 0 704 l 1
 0 512 l 1
 64 512 l 1
 64 448 l 1
 320 448 l 1
 320 362.667 320 277.333 320 192 c 1
 128 192 l 1
 128 256 l 1
 64 256 l 1
 64 320 l 1
 0 320 l 1
 -0 277.333 0 234.667 0 192 c 1
 64 192 l 1
 64 128 l 1
 192 128 l 1
EndSplineSet
EndChar

StartChar: 0025
Encoding: 37 37 6
Width: 512
Flags: HW
LayerCount: 2
Fore
SplineSet
64 192 m 1
 128 192 l 1
 128 256 l 1
 192 256 l 1
 192 320 l 1
 256 320 l 1
 256 384 l 1
 320 384 l 1
 320 448 l 1
 384 448 l 1
 384 512 l 1
 448 512 l 1
 448 554.667 448 597.333 448 640 c 1
 384 640 l 1
 384 576 l 1
 320 576 l 1
 320 512 l 1
 256 512 l 1
 256 448 l 1
 192 448 l 1
 192 384 l 1
 128 384 l 1
 128 320 l 1
 64 320 l 1
 64 256 l 1
 0 256 l 1
 -0 213.333 0 170.667 0 128 c 1
 64 128 l 1
 64 192 l 1
320 256 m 1
 320 213.333 320 170.667 320 128 c 1
 448 128 l 1
 448 170.667 448 213.333 448 256 c 1
 320 256 l 1
0 640 m 1
 -0 597.333 0 554.667 0 512 c 1
 128 512 l 1
 128 554.667 128 597.333 128 640 c 1
 0 640 l 1
EndSplineSet
EndChar

StartChar: 0026
Encoding: 38 38 7
Width: 512
Flags: HW
LayerCount: 2
Fore
SplineSet
448 128 m 1
 448 192 l 1
 384 192 l 1
 384 277.333 384 362.667 384 448 c 1
 448 448 l 1
 448 512 l 1
 320 512 l 1
 320 448 l 1
 256 448 l 1
 256 512 l 1
 320 512 l 1
 320 576 l 1
 384 576 l 1
 384 618.667 384 661.333 384 704 c 1
 320 704 l 1
 320 768 l 1
 128 768 l 1
 128 704 l 1
 64 704 l 1
 64 661.333 64 618.667 64 576 c 1
 128 576 l 1
 128 512 l 1
 64 512 l 1
 64 448 l 1
 0 448 l 1
 -0 362.667 0 277.333 0 192 c 1
 64 192 l 1
 64 128 l 1
 256 128 l 1
 256 192 l 1
 128 192 l 1
 128 277.333 128 362.667 128 448 c 1
 192 448 l 1
 192 384 l 1
 256 384 l 1
 256 192 l 1
 320 192 l 1
 320 128 l 1
 448 128 l 1
192 576 m 1
 192 618.667 192 661.333 192 704 c 1
 256 704 l 1
 256 661.333 256 618.667 256 576 c 1
 192 576 l 1
EndSplineSet
EndChar

StartChar: 0027
Encoding: 39 39 8
Width: 512
Flags: HW
LayerCount: 2
Fore
SplineSet
192 640 m 1
 256 640 l 1
 256 832 l 1
 128 832 l 1
 128 746.667 128 661.333 128 576 c 1
 192 576 l 1
 192 640 l 1
EndSplineSet
EndChar

StartChar: 0028
Encoding: 40 40 9
Width: 512
Flags: HW
LayerCount: 2
Fore
SplineSet
384 128 m 1
 384 192 l 1
 320 192 l 1
 320 256 l 1
 256 256 l 1
 256 384 256 512 256 640 c 1
 320 640 l 1
 320 704 l 1
 384 704 l 1
 384 768 l 1
 256 768 l 1
 256 704 l 1
 192 704 l 1
 192 640 l 1
 128 640 l 1
 128 512 128 384 128 256 c 1
 192 256 l 1
 192 192 l 1
 256 192 l 1
 256 128 l 1
 384 128 l 1
EndSplineSet
EndChar

StartChar: 0029
Encoding: 41 41 10
Width: 512
Flags: HW
LayerCount: 2
Fore
SplineSet
256 192 m 1
 320 192 l 1
 320 256 l 1
 384 256 l 1
 384 384 384 512 384 640 c 1
 320 640 l 1
 320 704 l 1
 256 704 l 1
 256 768 l 1
 128 768 l 1
 128 704 l 1
 192 704 l 1
 192 640 l 1
 256 640 l 1
 256 512 256 384 256 256 c 1
 192 256 l 1
 192 192 l 1
 128 192 l 1
 128 128 l 1
 256 128 l 1
 256 192 l 1
EndSplineSet
EndChar

StartChar: 002A
Encoding: 42 42 11
Width: 512
Flags: HW
LayerCount: 2
Fore
SplineSet
448 256 m 1
 448 320 l 1
 384 320 l 1
 384 384 l 1
 512 384 l 1
 512 448 l 1
 384 448 l 1
 384 512 l 1
 448 512 l 1
 448 576 l 1
 320 576 l 1
 320 512 l 1
 192 512 l 1
 192 576 l 1
 64 576 l 1
 64 512 l 1
 128 512 l 1
 128 448 l 1
 0 448 l 1
 0 384 l 1
 128 384 l 1
 128 320 l 1
 64 320 l 1
 64 256 l 1
 192 256 l 1
 192 320 l 1
 320 320 l 1
 320 256 l 1
 448 256 l 1
EndSplineSet
EndChar

StartChar: 002B
Encoding: 43 43 12
Width: 512
Flags: HW
LayerCount: 2
Fore
SplineSet
448 384 m 1
 448 448 l 1
 320 448 l 1
 320 490.667 320 533.333 320 576 c 1
 192 576 l 1
 192 533.333 192 490.667 192 448 c 1
 64 448 l 1
 64 384 l 1
 192 384 l 1
 192 341.333 192 298.667 192 256 c 1
 320 256 l 1
 320 298.667 320 341.333 320 384 c 1
 448 384 l 1
EndSplineSet
EndChar

StartChar: 002C
Encoding: 44 44 13
Width: 512
Flags: HW
LayerCount: 2
Fore
SplineSet
256 128 m 1
 320 128 l 1
 320 320 l 1
 192 320 l 1
 192 128 l 1
 128 128 l 1
 128 64 l 1
 256 64 l 1
 256 128 l 1
EndSplineSet
EndChar

StartChar: 002D
Encoding: 45 45 14
Width: 512
Flags: HW
LayerCount: 2
Fore
SplineSet
448 384 m 1
 448 448 l 1
 0 448 l 1
 0 384 l 1
 448 384 l 1
EndSplineSet
EndChar

StartChar: 002E
Encoding: 46 46 15
Width: 512
Flags: HW
LayerCount: 2
Fore
SplineSet
192 256 m 1
 192 213.333 192 170.667 192 128 c 1
 320 128 l 1
 320 170.667 320 213.333 320 256 c 1
 192 256 l 1
EndSplineSet
EndChar

StartChar: 002F
Encoding: 47 47 16
Width: 512
Flags: HW
LayerCount: 2
Fore
SplineSet
64 192 m 1
 128 192 l 1
 128 256 l 1
 192 256 l 1
 192 320 l 1
 256 320 l 1
 256 384 l 1
 320 384 l 1
 320 448 l 1
 384 448 l 1
 384 512 l 1
 448 512 l 1
 448 554.667 448 597.333 448 640 c 1
 384 640 l 1
 384 576 l 1
 320 576 l 1
 320 512 l 1
 256 512 l 1
 256 448 l 1
 192 448 l 1
 192 384 l 1
 128 384 l 1
 128 320 l 1
 64 320 l 1
 64 256 l 1
 0 256 l 1
 -0 213.333 0 170.667 0 128 c 1
 64 128 l 1
 64 192 l 1
EndSplineSet
EndChar

StartChar: 0030
Encoding: 48 48 17
Width: 512
Flags: HW
LayerCount: 2
Fore
SplineSet
128 192 m 1
 128 128 l 1
 320 128 l 1
 320 192 l 1
 384 192 l 1
 384 256 l 1
 448 256 l 1
 448 384 448 512 448 640 c 1
 384 640 l 1
 384 704 l 1
 320 704 l 1
 320 768 l 1
 128 768 l 1
 128 704 l 1
 64 704 l 1
 64 640 l 1
 0 640 l 1
 -0 512 0 384 0 256 c 1
 64 256 l 1
 64 192 l 1
 128 192 l 1
192 192 m 1
 192 256 l 1
 128 256 l 1
 128 384 128 512 128 640 c 1
 192 640 l 1
 192 704 l 1
 256 704 l 1
 256 640 l 1
 320 640 l 1
 320 512 320 384 320 256 c 1
 256 256 l 1
 256 192 l 1
 192 192 l 1
192 512 m 1
 192 469.333 192 426.667 192 384 c 1
 256 384 l 1
 256 426.667 256 469.333 256 512 c 1
 192 512 l 1
EndSplineSet
EndChar

StartChar: 0031
Encoding: 49 49 18
Width: 512
Flags: HW
LayerCount: 2
Fore
SplineSet
448 128 m 1
 448 192 l 1
 320 192 l 1
 320 768 l 1
 192 768 l 1
 192 704 l 1
 128 704 l 1
 128 640 l 1
 64 640 l 1
 64 576 l 1
 192 576 l 1
 192 448 192 320 192 192 c 1
 64 192 l 1
 64 128 l 1
 448 128 l 1
EndSplineSet
EndChar

StartChar: 0032
Encoding: 50 50 19
Width: 512
Flags: HW
LayerCount: 2
Fore
SplineSet
0 320 m 1
 0 128 l 1
 448 128 l 1
 448 170.667 448 213.333 448 256 c 1
 320 256 l 1
 320 192 l 1
 128 192 l 1
 128 234.667 128 277.333 128 320 c 1
 192 320 l 1
 192 384 l 1
 256 384 l 1
 256 448 l 1
 320 448 l 1
 320 512 l 1
 384 512 l 1
 384 576 l 1
 448 576 l 1
 448 618.667 448 661.333 448 704 c 1
 384 704 l 1
 384 768 l 1
 64 768 l 1
 64 704 l 1
 0 704 l 1
 0 640 l 1
 128 640 l 1
 128 704 l 1
 320 704 l 1
 320 661.333 320 618.667 320 576 c 1
 256 576 l 1
 256 512 l 1
 192 512 l 1
 192 448 l 1
 128 448 l 1
 128 384 l 1
 64 384 l 1
 64 320 l 1
 0 320 l 1
EndSplineSet
EndChar

StartChar: 0033
Encoding: 51 51 20
Width: 512
Flags: HW
LayerCount: 2
Fore
SplineSet
64 192 m 1
 64 128 l 1
 384 128 l 1
 384 192 l 1
 448 192 l 1
 448 277.333 448 362.667 448 448 c 1
 384 448 l 1
 384 512 l 1
 448 512 l 1
 448 704 l 1
 384 704 l 1
 384 768 l 1
 64 768 l 1
 64 704 l 1
 0 704 l 1
 0 640 l 1
 128 640 l 1
 128 704 l 1
 320 704 l 1
 320 512 l 1
 128 512 l 1
 128 448 l 1
 320 448 l 1
 320 362.667 320 277.333 320 192 c 1
 128 192 l 1
 128 256 l 1
 0 256 l 1
 0 192 l 1
 64 192 l 1
EndSplineSet
EndChar

StartChar: 0034
Encoding: 52 52 21
Width: 512
Flags: HW
LayerCount: 2
Fore
SplineSet
448 128 m 1
 448 192 l 1
 384 192 l 1
 384 384 l 1
 448 384 l 1
 448 448 l 1
 384 448 l 1
 384 768 l 1
 256 768 l 1
 256 704 l 1
 192 704 l 1
 192 640 l 1
 128 640 l 1
 128 576 l 1
 64 576 l 1
 64 512 l 1
 0 512 l 1
 -0 469.333 0 426.667 0 384 c 1
 256 384 l 1
 256 192 l 1
 192 192 l 1
 192 128 l 1
 448 128 l 1
128 448 m 1
 128 512 l 1
 192 512 l 1
 192 576 l 1
 256 576 l 1
 256 533.333 256 490.667 256 448 c 1
 128 448 l 1
EndSplineSet
EndChar

StartChar: 0035
Encoding: 53 53 22
Width: 512
Flags: HW
LayerCount: 2
Fore
SplineSet
448 704 m 1
 448 768 l 1
 0 768 l 1
 0 448 l 1
 320 448 l 1
 320 362.667 320 277.333 320 192 c 1
 128 192 l 1
 128 256 l 1
 0 256 l 1
 0 192 l 1
 64 192 l 1
 64 128 l 1
 384 128 l 1
 384 192 l 1
 448 192 l 1
 448 277.333 448 362.667 448 448 c 1
 384 448 l 1
 384 512 l 1
 128 512 l 1
 128 704 l 1
 448 704 l 1
EndSplineSet
EndChar

StartChar: 0036
Encoding: 54 54 23
Width: 512
Flags: HW
LayerCount: 2
Fore
SplineSet
320 704 m 1
 320 768 l 1
 128 768 l 1
 128 704 l 1
 64 704 l 1
 64 640 l 1
 0 640 l 1
 0 192 l 1
 64 192 l 1
 64 128 l 1
 384 128 l 1
 384 192 l 1
 448 192 l 1
 448 277.333 448 362.667 448 448 c 1
 384 448 l 1
 384 512 l 1
 128 512 l 1
 128 554.667 128 597.333 128 640 c 1
 192 640 l 1
 192 704 l 1
 320 704 l 1
128 192 m 1
 128 277.333 128 362.667 128 448 c 1
 320 448 l 1
 320 362.667 320 277.333 320 192 c 1
 128 192 l 1
EndSplineSet
EndChar

StartChar: 0037
Encoding: 55 55 24
Width: 512
Flags: HW
LayerCount: 2
Fore
SplineSet
128 384 m 1
 128 298.667 128 213.333 128 128 c 1
 256 128 l 1
 256 213.333 256 298.667 256 384 c 1
 320 384 l 1
 320 448 l 1
 384 448 l 1
 384 512 l 1
 448 512 l 1
 448 597.333 448 682.667 448 768 c 1
 0 768 l 1
 -0 725.333 0 682.667 0 640 c 1
 128 640 l 1
 128 704 l 1
 320 704 l 1
 320 512 l 1
 256 512 l 1
 256 448 l 1
 192 448 l 1
 192 384 l 1
 128 384 l 1
EndSplineSet
EndChar

StartChar: 0038
Encoding: 56 56 25
Width: 512
Flags: HW
LayerCount: 2
Fore
SplineSet
64 192 m 1
 64 128 l 1
 384 128 l 1
 384 192 l 1
 448 192 l 1
 448 277.333 448 362.667 448 448 c 1
 384 448 l 1
 384 512 l 1
 448 512 l 1
 448 704 l 1
 384 704 l 1
 384 768 l 1
 64 768 l 1
 64 704 l 1
 0 704 l 1
 0 512 l 1
 64 512 l 1
 64 448 l 1
 0 448 l 1
 -0 362.667 0 277.333 0 192 c 1
 64 192 l 1
128 192 m 1
 128 277.333 128 362.667 128 448 c 1
 320 448 l 1
 320 362.667 320 277.333 320 192 c 1
 128 192 l 1
128 512 m 1
 128 704 l 1
 320 704 l 1
 320 512 l 1
 128 512 l 1
EndSplineSet
EndChar

StartChar: 0039
Encoding: 57 57 26
Width: 512
Flags: HW
LayerCount: 2
Fore
SplineSet
320 192 m 1
 384 192 l 1
 384 256 l 1
 448 256 l 1
 448 704 l 1
 384 704 l 1
 384 768 l 1
 64 768 l 1
 64 704 l 1
 0 704 l 1
 0 512 l 1
 64 512 l 1
 64 448 l 1
 320 448 l 1
 320 256 l 1
 256 256 l 1
 256 192 l 1
 64 192 l 1
 64 128 l 1
 320 128 l 1
 320 192 l 1
128 512 m 1
 128 704 l 1
 320 704 l 1
 320 512 l 1
 128 512 l 1
EndSplineSet
EndChar

StartChar: 003A
Encoding: 58 58 27
Width: 512
Flags: HW
LayerCount: 2
Fore
SplineSet
192 320 m 1
 192 277.333 192 234.667 192 192 c 1
 320 192 l 1
 320 234.667 320 277.333 320 320 c 1
 192 320 l 1
192 640 m 1
 192 597.333 192 554.667 192 512 c 1
 320 512 l 1
 320 554.667 320 597.333 320 640 c 1
 192 640 l 1
EndSplineSet
EndChar

StartChar: 003B
Encoding: 59 59 28
Width: 512
Flags: HW
LayerCount: 2
Fore
SplineSet
256 192 m 1
 320 192 l 1
 320 234.667 320 277.333 320 320 c 1
 192 320 l 1
 192 277.333 192 234.667 192 192 c 1
 128 192 l 1
 128 128 l 1
 256 128 l 1
 256 192 l 1
192 640 m 1
 192 597.333 192 554.667 192 512 c 1
 320 512 l 1
 320 554.667 320 597.333 320 640 c 1
 192 640 l 1
EndSplineSet
EndChar

StartChar: 003C
Encoding: 60 60 29
Width: 512
Flags: HW
LayerCount: 2
Fore
SplineSet
448 128 m 1
 448 192 l 1
 384 192 l 1
 384 256 l 1
 320 256 l 1
 320 320 l 1
 256 320 l 1
 256 384 l 1
 192 384 l 1
 192 448 l 1
 256 448 l 1
 256 512 l 1
 320 512 l 1
 320 576 l 1
 384 576 l 1
 384 640 l 1
 448 640 l 1
 448 704 l 1
 320 704 l 1
 320 640 l 1
 256 640 l 1
 256 576 l 1
 192 576 l 1
 192 512 l 1
 128 512 l 1
 128 448 l 1
 64 448 l 1
 64 384 l 1
 128 384 l 1
 128 320 l 1
 192 320 l 1
 192 256 l 1
 256 256 l 1
 256 192 l 1
 320 192 l 1
 320 128 l 1
 448 128 l 1
EndSplineSet
EndChar

StartChar: 003D
Encoding: 61 61 30
Width: 512
Flags: HW
LayerCount: 2
Fore
SplineSet
448 320 m 1
 448 384 l 1
 64 384 l 1
 64 320 l 1
 448 320 l 1
448 512 m 1
 448 576 l 1
 64 576 l 1
 64 512 l 1
 448 512 l 1
EndSplineSet
EndChar

StartChar: 003E
Encoding: 62 62 31
Width: 512
Flags: HW
LayerCount: 2
Fore
SplineSet
448 384 m 1
 448 448 l 1
 384 448 l 1
 384 512 l 1
 320 512 l 1
 320 576 l 1
 256 576 l 1
 256 640 l 1
 192 640 l 1
 192 704 l 1
 64 704 l 1
 64 640 l 1
 128 640 l 1
 128 576 l 1
 192 576 l 1
 192 512 l 1
 256 512 l 1
 256 448 l 1
 320 448 l 1
 320 384 l 1
 256 384 l 1
 256 320 l 1
 192 320 l 1
 192 256 l 1
 128 256 l 1
 128 192 l 1
 64 192 l 1
 64 128 l 1
 192 128 l 1
 192 192 l 1
 256 192 l 1
 256 256 l 1
 320 256 l 1
 320 320 l 1
 384 320 l 1
 384 384 l 1
 448 384 l 1
EndSplineSet
EndChar

StartChar: 003F
Encoding: 63 63 32
Width: 512
Flags: HW
LayerCount: 2
Fore
SplineSet
192 256 m 1
 192 213.333 192 170.667 192 128 c 1
 320 128 l 1
 320 170.667 320 213.333 320 256 c 1
 192 256 l 1
192 512 m 1
 192 320 l 1
 320 320 l 1
 320 512 l 1
 384 512 l 1
 384 576 l 1
 448 576 l 1
 448 618.667 448 661.333 448 704 c 1
 384 704 l 1
 384 768 l 1
 64 768 l 1
 64 704 l 1
 0 704 l 1
 -0 661.333 0 618.667 0 576 c 1
 128 576 l 1
 128 618.667 128 661.333 128 704 c 1
 320 704 l 1
 320 661.333 320 618.667 320 576 c 1
 256 576 l 1
 256 512 l 1
 192 512 l 1
EndSplineSet
EndChar

StartChar: 0040
Encoding: 64 64 33
Width: 512
Flags: HW
LayerCount: 2
Fore
SplineSet
384 128 m 1
 384 192 l 1
 128 192 l 1
 128 640 l 1
 320 640 l 1
 320 597.333 320 554.667 320 512 c 1
 192 512 l 1
 192 426.667 192 341.333 192 256 c 1
 384 256 l 1
 384 320 l 1
 448 320 l 1
 448 640 l 1
 384 640 l 1
 384 704 l 1
 64 704 l 1
 64 640 l 1
 0 640 l 1
 0 192 l 1
 64 192 l 1
 64 128 l 1
 384 128 l 1
EndSplineSet
EndChar

StartChar: 0041
Encoding: 65 65 34
Width: 512
Flags: HW
LayerCount: 2
Fore
SplineSet
0 576 m 1
 0 128 l 1
 128 128 l 1
 128 213.333 128 298.667 128 384 c 1
 320 384 l 1
 320 298.667 320 213.333 320 128 c 1
 448 128 l 1
 448 576 l 1
 384 576 l 1
 384 640 l 1
 320 640 l 1
 320 704 l 1
 256 704 l 1
 256 768 l 1
 192 768 l 1
 192 704 l 1
 128 704 l 1
 128 640 l 1
 64 640 l 1
 64 576 l 1
 0 576 l 1
128 448 m 1
 128 490.667 128 533.333 128 576 c 1
 192 576 l 1
 192 640 l 1
 256 640 l 1
 256 576 l 1
 320 576 l 1
 320 533.333 320 490.667 320 448 c 1
 128 448 l 1
EndSplineSet
EndChar

StartChar: 0042
Encoding: 66 66 35
Width: 512
Flags: HW
LayerCount: 2
Fore
SplineSet
64 192 m 1
 0 192 l 1
 0 128 l 1
 384 128 l 1
 384 192 l 1
 448 192 l 1
 448 277.333 448 362.667 448 448 c 1
 384 448 l 1
 384 512 l 1
 448 512 l 1
 448 704 l 1
 384 704 l 1
 384 768 l 1
 0 768 l 1
 0 704 l 1
 64 704 l 1
 64 533.333 64 362.667 64 192 c 1
192 192 m 1
 192 277.333 192 362.667 192 448 c 1
 320 448 l 1
 320 362.667 320 277.333 320 192 c 1
 192 192 l 1
192 512 m 1
 192 704 l 1
 320 704 l 1
 320 512 l 1
 192 512 l 1
EndSplineSet
EndChar

StartChar: 0043
Encoding: 67 67 36
Width: 512
Flags: HW
LayerCount: 2
Fore
SplineSet
128 192 m 1
 128 128 l 1
 384 128 l 1
 384 192 l 1
 448 192 l 1
 448 234.667 448 277.333 448 320 c 1
 384 320 l 1
 384 256 l 1
 320 256 l 1
 320 192 l 1
 192 192 l 1
 192 256 l 1
 128 256 l 1
 128 384 128 512 128 640 c 1
 192 640 l 1
 192 704 l 1
 320 704 l 1
 320 640 l 1
 384 640 l 1
 384 576 l 1
 448 576 l 1
 448 618.667 448 661.333 448 704 c 1
 384 704 l 1
 384 768 l 1
 128 768 l 1
 128 704 l 1
 64 704 l 1
 64 640 l 1
 0 640 l 1
 -0 512 0 384 0 256 c 1
 64 256 l 1
 64 192 l 1
 128 192 l 1
EndSplineSet
EndChar

StartChar: 0044
Encoding: 68 68 37
Width: 512
Flags: HW
LayerCount: 2
Fore
SplineSet
64 192 m 1
 0 192 l 1
 0 128 l 1
 320 128 l 1
 320 192 l 1
 384 192 l 1
 384 256 l 1
 448 256 l 1
 448 384 448 512 448 640 c 1
 384 640 l 1
 384 704 l 1
 320 704 l 1
 320 768 l 1
 0 768 l 1
 0 704 l 1
 64 704 l 1
 64 533.333 64 362.667 64 192 c 1
192 192 m 1
 192 362.667 192 533.333 192 704 c 1
 256 704 l 1
 256 640 l 1
 320 640 l 1
 320 512 320 384 320 256 c 1
 256 256 l 1
 256 192 l 1
 192 192 l 1
EndSplineSet
EndChar

StartChar: 0045
Encoding: 69 69 38
Width: 512
Flags: HW
LayerCount: 2
Fore
SplineSet
64 192 m 1
 0 192 l 1
 0 128 l 1
 448 128 l 1
 448 320 l 1
 384 320 l 1
 384 256 l 1
 320 256 l 1
 320 192 l 1
 192 192 l 1
 192 277.333 192 362.667 192 448 c 1
 256 448 l 1
 256 384 l 1
 320 384 l 1
 320 576 l 1
 256 576 l 1
 256 512 l 1
 192 512 l 1
 192 704 l 1
 320 704 l 1
 320 640 l 1
 384 640 l 1
 384 576 l 1
 448 576 l 1
 448 768 l 1
 0 768 l 1
 0 704 l 1
 64 704 l 1
 64 533.333 64 362.667 64 192 c 1
EndSplineSet
EndChar

StartChar: 0046
Encoding: 70 70 39
Width: 512
Flags: HW
LayerCount: 2
Fore
SplineSet
256 128 m 1
 256 192 l 1
 192 192 l 1
 192 277.333 192 362.667 192 448 c 1
 256 448 l 1
 256 384 l 1
 320 384 l 1
 320 576 l 1
 256 576 l 1
 256 512 l 1
 192 512 l 1
 192 704 l 1
 320 704 l 1
 320 640 l 1
 384 640 l 1
 384 576 l 1
 448 576 l 1
 448 768 l 1
 0 768 l 1
 0 704 l 1
 64 704 l 1
 64 533.333 64 362.667 64 192 c 1
 0 192 l 1
 0 128 l 1
 256 128 l 1
EndSplineSet
EndChar

StartChar: 0047
Encoding: 71 71 40
Width: 512
Flags: HW
LayerCount: 2
Fore
SplineSet
128 192 m 1
 128 128 l 1
 320 128 l 1
 320 192 l 1
 192 192 l 1
 192 256 l 1
 128 256 l 1
 128 384 128 512 128 640 c 1
 192 640 l 1
 192 704 l 1
 320 704 l 1
 320 640 l 1
 384 640 l 1
 384 576 l 1
 448 576 l 1
 448 618.667 448 661.333 448 704 c 1
 384 704 l 1
 384 768 l 1
 128 768 l 1
 128 704 l 1
 64 704 l 1
 64 640 l 1
 0 640 l 1
 -0 512 0 384 0 256 c 1
 64 256 l 1
 64 192 l 1
 128 192 l 1
384 192 m 1
 384 128 l 1
 448 128 l 1
 448 448 l 1
 192 448 l 1
 192 384 l 1
 320 384 l 1
 320 192 l 1
 384 192 l 1
EndSplineSet
EndChar

StartChar: 0048
Encoding: 72 72 41
Width: 512
Flags: HW
LayerCount: 2
Fore
SplineSet
0 768 m 1
 -0 554.667 0 341.333 0 128 c 1
 128 128 l 1
 128 448 l 1
 320 448 l 1
 320 128 l 1
 448 128 l 1
 448 341.333 448 554.667 448 768 c 1
 320 768 l 1
 320 682.667 320 597.333 320 512 c 1
 128 512 l 1
 128 597.333 128 682.667 128 768 c 1
 0 768 l 1
EndSplineSet
EndChar

StartChar: 0049
Encoding: 73 73 42
Width: 512
Flags: HW
LayerCount: 2
Fore
SplineSet
384 128 m 1
 384 192 l 1
 320 192 l 1
 320 362.667 320 533.333 320 704 c 1
 384 704 l 1
 384 768 l 1
 128 768 l 1
 128 704 l 1
 192 704 l 1
 192 533.333 192 362.667 192 192 c 1
 128 192 l 1
 128 128 l 1
 384 128 l 1
EndSplineSet
EndChar

StartChar: 004A
Encoding: 74 74 43
Width: 512
Flags: HW
LayerCount: 2
Fore
SplineSet
448 704 m 1
 448 768 l 1
 192 768 l 1
 192 704 l 1
 256 704 l 1
 256 533.333 256 362.667 256 192 c 1
 128 192 l 1
 128 384 l 1
 0 384 l 1
 0 192 l 1
 64 192 l 1
 64 128 l 1
 320 128 l 1
 320 192 l 1
 384 192 l 1
 384 362.667 384 533.333 384 704 c 1
 448 704 l 1
EndSplineSet
EndChar

StartChar: 004B
Encoding: 75 75 44
Width: 512
Flags: HW
LayerCount: 2
Fore
SplineSet
64 192 m 1
 0 192 l 1
 0 128 l 1
 192 128 l 1
 192 213.333 192 298.667 192 384 c 1
 256 384 l 1
 256 320 l 1
 320 320 l 1
 320 128 l 1
 448 128 l 1
 448 320 l 1
 384 320 l 1
 384 384 l 1
 320 384 l 1
 320 426.667 320 469.333 320 512 c 1
 384 512 l 1
 384 576 l 1
 448 576 l 1
 448 768 l 1
 320 768 l 1
 320 576 l 1
 256 576 l 1
 256 512 l 1
 192 512 l 1
 192 597.333 192 682.667 192 768 c 1
 0 768 l 1
 0 704 l 1
 64 704 l 1
 64 533.333 64 362.667 64 192 c 1
EndSplineSet
EndChar

StartChar: 004C
Encoding: 76 76 45
Width: 512
Flags: HW
LayerCount: 2
Fore
SplineSet
256 704 m 1
 256 768 l 1
 0 768 l 1
 0 704 l 1
 64 704 l 1
 64 533.333 64 362.667 64 192 c 1
 0 192 l 1
 0 128 l 1
 448 128 l 1
 448 320 l 1
 384 320 l 1
 384 256 l 1
 320 256 l 1
 320 192 l 1
 192 192 l 1
 192 362.667 192 533.333 192 704 c 1
 256 704 l 1
EndSplineSet
EndChar

StartChar: 004D
Encoding: 77 77 46
Width: 512
Flags: HW
LayerCount: 2
Fore
SplineSet
0 768 m 1
 -0 554.667 0 341.333 0 128 c 1
 128 128 l 1
 128 256 128 384 128 512 c 1
 192 512 l 1
 192 448 l 1
 256 448 l 1
 256 512 l 1
 320 512 l 1
 320 384 320 256 320 128 c 1
 448 128 l 1
 448 341.333 448 554.667 448 768 c 1
 320 768 l 1
 320 704 l 1
 256 704 l 1
 256 640 l 1
 192 640 l 1
 192 704 l 1
 128 704 l 1
 128 768 l 1
 0 768 l 1
EndSplineSet
EndChar

StartChar: 004E
Encoding: 78 78 47
Width: 512
Flags: HW
LayerCount: 2
Fore
SplineSet
0 768 m 1
 -0 554.667 0 341.333 0 128 c 1
 128 128 l 1
 128 256 128 384 128 512 c 1
 192 512 l 1
 192 448 l 1
 256 448 l 1
 256 384 l 1
 320 384 l 1
 320 298.667 320 213.333 320 128 c 1
 448 128 l 1
 448 341.333 448 554.667 448 768 c 1
 320 768 l 1
 320 576 l 1
 256 576 l 1
 256 640 l 1
 192 640 l 1
 192 704 l 1
 128 704 l 1
 128 768 l 1
 0 768 l 1
EndSplineSet
EndChar

StartChar: 004F
Encoding: 79 79 48
Width: 512
Flags: HW
LayerCount: 2
Fore
SplineSet
64 192 m 1
 64 128 l 1
 384 128 l 1
 384 192 l 1
 448 192 l 1
 448 362.667 448 533.333 448 704 c 1
 384 704 l 1
 384 768 l 1
 64 768 l 1
 64 704 l 1
 0 704 l 1
 -0 533.333 0 362.667 0 192 c 1
 64 192 l 1
128 192 m 1
 128 362.667 128 533.333 128 704 c 1
 320 704 l 1
 320 533.333 320 362.667 320 192 c 1
 128 192 l 1
EndSplineSet
EndChar

StartChar: 0050
Encoding: 80 80 49
Width: 512
Flags: HW
LayerCount: 2
Fore
SplineSet
256 128 m 1
 256 192 l 1
 192 192 l 1
 192 277.333 192 362.667 192 448 c 1
 384 448 l 1
 384 512 l 1
 448 512 l 1
 448 704 l 1
 384 704 l 1
 384 768 l 1
 0 768 l 1
 0 704 l 1
 64 704 l 1
 64 533.333 64 362.667 64 192 c 1
 0 192 l 1
 0 128 l 1
 256 128 l 1
192 512 m 1
 192 704 l 1
 320 704 l 1
 320 512 l 1
 192 512 l 1
EndSplineSet
EndChar

StartChar: 0051
Encoding: 81 81 50
Width: 512
Flags: HW
LayerCount: 2
Fore
SplineSet
448 0 m 1
 448 64 l 1
 384 64 l 1
 384 106.667 384 149.333 384 192 c 1
 448 192 l 1
 448 362.667 448 533.333 448 704 c 1
 384 704 l 1
 384 768 l 1
 64 768 l 1
 64 704 l 1
 0 704 l 1
 -0 533.333 0 362.667 0 192 c 1
 64 192 l 1
 64 128 l 1
 256 128 l 1
 256 85.3333 256 42.6667 256 0 c 1
 448 0 l 1
128 192 m 1
 128 362.667 128 533.333 128 704 c 1
 320 704 l 1
 320 256 l 1
 256 256 l 1
 256 320 l 1
 192 320 l 1
 192 277.333 192 234.667 192 192 c 1
 128 192 l 1
EndSplineSet
EndChar

StartChar: 0052
Encoding: 82 82 51
Width: 512
Flags: HW
LayerCount: 2
Fore
SplineSet
64 192 m 1
 0 192 l 1
 0 128 l 1
 192 128 l 1
 192 448 l 1
 256 448 l 1
 256 384 l 1
 320 384 l 1
 320 298.667 320 213.333 320 128 c 1
 448 128 l 1
 448 213.333 448 298.667 448 384 c 1
 384 384 l 1
 384 426.667 384 469.333 384 512 c 1
 448 512 l 1
 448 704 l 1
 384 704 l 1
 384 768 l 1
 0 768 l 1
 0 704 l 1
 64 704 l 1
 64 533.333 64 362.667 64 192 c 1
192 512 m 1
 192 704 l 1
 320 704 l 1
 320 512 l 1
 192 512 l 1
EndSplineSet
EndChar

StartChar: 0053
Encoding: 83 83 52
Width: 512
Flags: HW
LayerCount: 2
Fore
SplineSet
64 192 m 1
 64 128 l 1
 384 128 l 1
 384 192 l 1
 448 192 l 1
 448 384 l 1
 384 384 l 1
 384 448 l 1
 320 448 l 1
 320 512 l 1
 192 512 l 1
 192 576 l 1
 128 576 l 1
 128 618.667 128 661.333 128 704 c 1
 320 704 l 1
 320 661.333 320 618.667 320 576 c 1
 448 576 l 1
 448 618.667 448 661.333 448 704 c 1
 384 704 l 1
 384 768 l 1
 64 768 l 1
 64 704 l 1
 0 704 l 1
 -0 661.333 0 618.667 0 576 c 1
 64 576 l 1
 64 512 l 1
 128 512 l 1
 128 448 l 1
 256 448 l 1
 256 384 l 1
 320 384 l 1
 320 192 l 1
 128 192 l 1
 128 234.667 128 277.333 128 320 c 1
 0 320 l 1
 -0 277.333 0 234.667 0 192 c 1
 64 192 l 1
EndSplineSet
EndChar

StartChar: 0054
Encoding: 84 84 53
Width: 512
Flags: HW
LayerCount: 2
Fore
SplineSet
384 128 m 1
 384 192 l 1
 320 192 l 1
 320 640 l 1
 384 640 l 1
 384 576 l 1
 448 576 l 1
 448 768 l 1
 64 768 l 1
 64 576 l 1
 128 576 l 1
 128 640 l 1
 192 640 l 1
 192 192 l 1
 128 192 l 1
 128 128 l 1
 384 128 l 1
EndSplineSet
EndChar

StartChar: 0055
Encoding: 85 85 54
Width: 512
Flags: HW
LayerCount: 2
Fore
SplineSet
64 192 m 1
 64 128 l 1
 384 128 l 1
 384 192 l 1
 448 192 l 1
 448 768 l 1
 320 768 l 1
 320 192 l 1
 128 192 l 1
 128 768 l 1
 0 768 l 1
 0 192 l 1
 64 192 l 1
EndSplineSet
EndChar

StartChar: 0056
Encoding: 86 86 55
Width: 512
Flags: HW
LayerCount: 2
Fore
SplineSet
256 192 m 1
 320 192 l 1
 320 256 l 1
 384 256 l 1
 384 320 l 1
 448 320 l 1
 448 768 l 1
 320 768 l 1
 320 320 l 1
 256 320 l 1
 256 256 l 1
 192 256 l 1
 192 320 l 1
 128 320 l 1
 128 768 l 1
 0 768 l 1
 0 320 l 1
 64 320 l 1
 64 256 l 1
 128 256 l 1
 128 192 l 1
 192 192 l 1
 192 128 l 1
 256 128 l 1
 256 192 l 1
EndSplineSet
EndChar

StartChar: 0057
Encoding: 87 87 56
Width: 512
Flags: HW
LayerCount: 2
Fore
SplineSet
64 192 m 1
 64 128 l 1
 192 128 l 1
 192 170.667 192 213.333 192 256 c 1
 256 256 l 1
 256 213.333 256 170.667 256 128 c 1
 384 128 l 1
 384 192 l 1
 448 192 l 1
 448 768 l 1
 320 768 l 1
 320 320 l 1
 256 320 l 1
 256 512 l 1
 192 512 l 1
 192 320 l 1
 128 320 l 1
 128 768 l 1
 0 768 l 1
 0 192 l 1
 64 192 l 1
EndSplineSet
EndChar

StartChar: 0058
Encoding: 88 88 57
Width: 512
Flags: HW
LayerCount: 2
Fore
SplineSet
0 256 m 1
 -0 213.333 0 170.667 0 128 c 1
 128 128 l 1
 128 170.667 128 213.333 128 256 c 1
 192 256 l 1
 192 320 l 1
 256 320 l 1
 256 256 l 1
 320 256 l 1
 320 213.333 320 170.667 320 128 c 1
 448 128 l 1
 448 170.667 448 213.333 448 256 c 1
 384 256 l 1
 384 298.667 384 341.333 384 384 c 1
 320 384 l 1
 320 426.667 320 469.333 320 512 c 1
 384 512 l 1
 384 554.667 384 597.333 384 640 c 1
 448 640 l 1
 448 682.667 448 725.333 448 768 c 1
 320 768 l 1
 320 725.333 320 682.667 320 640 c 1
 256 640 l 1
 256 576 l 1
 192 576 l 1
 192 640 l 1
 128 640 l 1
 128 682.667 128 725.333 128 768 c 1
 0 768 l 1
 -0 725.333 0 682.667 0 640 c 1
 64 640 l 1
 64 597.333 64 554.667 64 512 c 1
 128 512 l 1
 128 469.333 128 426.667 128 384 c 1
 64 384 l 1
 64 341.333 64 298.667 64 256 c 1
 0 256 l 1
EndSplineSet
EndChar

StartChar: 0059
Encoding: 89 89 58
Width: 512
Flags: HW
LayerCount: 2
Fore
SplineSet
384 128 m 1
 384 192 l 1
 320 192 l 1
 320 277.333 320 362.667 320 448 c 1
 384 448 l 1
 384 512 l 1
 448 512 l 1
 448 597.333 448 682.667 448 768 c 1
 320 768 l 1
 320 682.667 320 597.333 320 512 c 1
 192 512 l 1
 192 597.333 192 682.667 192 768 c 1
 64 768 l 1
 64 682.667 64 597.333 64 512 c 1
 128 512 l 1
 128 448 l 1
 192 448 l 1
 192 362.667 192 277.333 192 192 c 1
 128 192 l 1
 128 128 l 1
 384 128 l 1
EndSplineSet
EndChar

StartChar: 005A
Encoding: 90 90 59
Width: 512
Flags: HW
LayerCount: 2
Fore
SplineSet
0 320 m 1
 0 128 l 1
 448 128 l 1
 448 320 l 1
 384 320 l 1
 384 256 l 1
 320 256 l 1
 320 192 l 1
 128 192 l 1
 128 234.667 128 277.333 128 320 c 1
 192 320 l 1
 192 384 l 1
 256 384 l 1
 256 448 l 1
 320 448 l 1
 320 512 l 1
 384 512 l 1
 384 576 l 1
 448 576 l 1
 448 768 l 1
 0 768 l 1
 0 576 l 1
 64 576 l 1
 64 640 l 1
 128 640 l 1
 128 704 l 1
 320 704 l 1
 320 661.333 320 618.667 320 576 c 1
 256 576 l 1
 256 512 l 1
 192 512 l 1
 192 448 l 1
 128 448 l 1
 128 384 l 1
 64 384 l 1
 64 320 l 1
 0 320 l 1
EndSplineSet
EndChar

StartChar: 005B
Encoding: 91 91 60
Width: 512
Flags: HW
LayerCount: 2
Fore
SplineSet
384 128 m 1
 384 192 l 1
 256 192 l 1
 256 362.667 256 533.333 256 704 c 1
 384 704 l 1
 384 768 l 1
 128 768 l 1
 128 554.667 128 341.333 128 128 c 1
 384 128 l 1
EndSplineSet
EndChar

StartChar: 005C
Encoding: 92 92 61
Width: 512
Flags: HW
LayerCount: 2
Fore
SplineSet
384 192 m 1
 384 128 l 1
 448 128 l 1
 448 320 l 1
 384 320 l 1
 384 384 l 1
 320 384 l 1
 320 448 l 1
 256 448 l 1
 256 512 l 1
 192 512 l 1
 192 576 l 1
 128 576 l 1
 128 640 l 1
 64 640 l 1
 64 704 l 1
 0 704 l 1
 0 512 l 1
 64 512 l 1
 64 448 l 1
 128 448 l 1
 128 384 l 1
 192 384 l 1
 192 320 l 1
 256 320 l 1
 256 256 l 1
 320 256 l 1
 320 192 l 1
 384 192 l 1
EndSplineSet
EndChar

StartChar: 005D
Encoding: 93 93 62
Width: 512
Flags: HW
LayerCount: 2
Fore
SplineSet
256 192 m 1
 128 192 l 1
 128 128 l 1
 384 128 l 1
 384 341.333 384 554.667 384 768 c 1
 128 768 l 1
 128 704 l 1
 256 704 l 1
 256 533.333 256 362.667 256 192 c 1
EndSplineSet
EndChar

StartChar: 005E
Encoding: 94 94 63
Width: 512
Flags: HW
LayerCount: 2
Fore
SplineSet
448 640 m 1
 448 704 l 1
 384 704 l 1
 384 768 l 1
 320 768 l 1
 320 832 l 1
 256 832 l 1
 256 896 l 1
 192 896 l 1
 192 832 l 1
 128 832 l 1
 128 768 l 1
 64 768 l 1
 64 704 l 1
 0 704 l 1
 0 640 l 1
 128 640 l 1
 128 704 l 1
 192 704 l 1
 192 768 l 1
 256 768 l 1
 256 704 l 1
 320 704 l 1
 320 640 l 1
 448 640 l 1
EndSplineSet
EndChar

StartChar: 005F
Encoding: 95 95 64
Width: 512
Flags: HW
LayerCount: 2
Fore
SplineSet
512 0 m 1
 512 64 l 1
 0 64 l 1
 0 0 l 1
 512 0 l 1
EndSplineSet
EndChar

StartChar: 0060
Encoding: 96 96 65
Width: 512
Flags: HW
LayerCount: 2
Fore
SplineSet
320 704 m 1
 320 768 l 1
 256 768 l 1
 256 810.667 256 853.333 256 896 c 1
 128 896 l 1
 128 853.333 128 810.667 128 768 c 1
 192 768 l 1
 192 704 l 1
 320 704 l 1
EndSplineSet
EndChar

StartChar: 0061
Encoding: 97 97 66
Width: 512
Flags: HW
LayerCount: 2
Fore
SplineSet
448 128 m 1
 448 192 l 1
 384 192 l 1
 384 512 l 1
 320 512 l 1
 320 576 l 1
 64 576 l 1
 64 512 l 1
 256 512 l 1
 256 448 l 1
 64 448 l 1
 64 384 l 1
 0 384 l 1
 0 192 l 1
 64 192 l 1
 64 128 l 1
 256 128 l 1
 256 192 l 1
 128 192 l 1
 128 384 l 1
 256 384 l 1
 256 192 l 1
 320 192 l 1
 320 128 l 1
 448 128 l 1
EndSplineSet
EndChar

StartChar: 0062
Encoding: 98 98 67
Width: 512
Flags: HW
LayerCount: 2
Fore
SplineSet
64 704 m 1
 64 128 l 1
 384 128 l 1
 384 192 l 1
 448 192 l 1
 448 277.333 448 362.667 448 448 c 1
 384 448 l 1
 384 512 l 1
 320 512 l 1
 320 576 l 1
 192 576 l 1
 192 768 l 1
 0 768 l 1
 0 704 l 1
 64 704 l 1
192 192 m 1
 192 512 l 1
 256 512 l 1
 256 448 l 1
 320 448 l 1
 320 362.667 320 277.333 320 192 c 1
 192 192 l 1
EndSplineSet
EndChar

StartChar: 0063
Encoding: 99 99 68
Width: 512
Flags: HW
LayerCount: 2
Fore
SplineSet
448 192 m 1
 448 256 l 1
 320 256 l 1
 320 192 l 1
 128 192 l 1
 128 512 l 1
 320 512 l 1
 320 448 l 1
 448 448 l 1
 448 512 l 1
 384 512 l 1
 384 576 l 1
 64 576 l 1
 64 512 l 1
 0 512 l 1
 0 192 l 1
 64 192 l 1
 64 128 l 1
 384 128 l 1
 384 192 l 1
 448 192 l 1
EndSplineSet
EndChar

StartChar: 0064
Encoding: 100 100 69
Width: 512
Flags: HW
LayerCount: 2
Fore
SplineSet
448 128 m 1
 448 192 l 1
 384 192 l 1
 384 768 l 1
 192 768 l 1
 192 704 l 1
 256 704 l 1
 256 661.333 256 618.667 256 576 c 1
 128 576 l 1
 128 512 l 1
 64 512 l 1
 64 448 l 1
 0 448 l 1
 -0 362.667 0 277.333 0 192 c 1
 64 192 l 1
 64 128 l 1
 256 128 l 1
 256 192 l 1
 128 192 l 1
 128 277.333 128 362.667 128 448 c 1
 192 448 l 1
 192 512 l 1
 256 512 l 1
 256 192 l 1
 320 192 l 1
 320 128 l 1
 448 128 l 1
EndSplineSet
EndChar

StartChar: 0065
Encoding: 101 101 70
Width: 512
Flags: HW
LayerCount: 2
Fore
SplineSet
448 192 m 1
 448 256 l 1
 320 256 l 1
 320 192 l 1
 128 192 l 1
 128 384 l 1
 448 384 l 1
 448 426.667 448 469.333 448 512 c 1
 384 512 l 1
 384 576 l 1
 64 576 l 1
 64 512 l 1
 0 512 l 1
 0 192 l 1
 64 192 l 1
 64 128 l 1
 384 128 l 1
 384 192 l 1
 448 192 l 1
128 448 m 1
 128 512 l 1
 320 512 l 1
 320 448 l 1
 128 448 l 1
EndSplineSet
EndChar

StartChar: 0066
Encoding: 102 102 71
Width: 512
Flags: HW
LayerCount: 2
Fore
SplineSet
256 128 m 1
 256 192 l 1
 192 192 l 1
 192 277.333 192 362.667 192 448 c 1
 256 448 l 1
 256 512 l 1
 192 512 l 1
 192 704 l 1
 256 704 l 1
 256 640 l 1
 320 640 l 1
 320 576 l 1
 384 576 l 1
 384 618.667 384 661.333 384 704 c 1
 320 704 l 1
 320 768 l 1
 128 768 l 1
 128 704 l 1
 64 704 l 1
 64 512 l 1
 0 512 l 1
 0 448 l 1
 64 448 l 1
 64 362.667 64 277.333 64 192 c 1
 0 192 l 1
 0 128 l 1
 256 128 l 1
EndSplineSet
EndChar

StartChar: 0067
Encoding: 103 103 72
Width: 512
Flags: HW
LayerCount: 2
Fore
SplineSet
448 512 m 1
 448 576 l 1
 320 576 l 1
 320 512 l 1
 256 512 l 1
 256 192 l 1
 128 192 l 1
 128 512 l 1
 256 512 l 1
 256 576 l 1
 64 576 l 1
 64 512 l 1
 0 512 l 1
 0 192 l 1
 64 192 l 1
 64 128 l 1
 256 128 l 1
 256 85.3333 256 42.6667 256 0 c 1
 128 0 l 1
 128 64 l 1
 0 64 l 1
 0 0 l 1
 64 0 l 1
 64 -64 l 1
 320 -64 l 1
 320 0 l 1
 384 0 l 1
 384 170.667 384 341.333 384 512 c 1
 448 512 l 1
EndSplineSet
EndChar

StartChar: 0068
Encoding: 104 104 73
Width: 512
Flags: HW
LayerCount: 2
Fore
SplineSet
64 192 m 1
 0 192 l 1
 0 128 l 1
 192 128 l 1
 192 448 l 1
 256 448 l 1
 256 512 l 1
 192 512 l 1
 192 597.333 192 682.667 192 768 c 1
 0 768 l 1
 0 704 l 1
 64 704 l 1
 64 533.333 64 362.667 64 192 c 1
320 512 m 1
 320 384 320 256 320 128 c 1
 448 128 l 1
 448 256 448 384 448 512 c 1
 384 512 l 1
 384 576 l 1
 256 576 l 1
 256 512 l 1
 320 512 l 1
EndSplineSet
EndChar

StartChar: 0069
Encoding: 105 105 74
Width: 512
Flags: HW
LayerCount: 2
Fore
SplineSet
384 128 m 1
 384 192 l 1
 320 192 l 1
 320 320 320 448 320 576 c 1
 128 576 l 1
 128 512 l 1
 192 512 l 1
 192 192 l 1
 128 192 l 1
 128 128 l 1
 384 128 l 1
192 768 m 1
 192 725.333 192 682.667 192 640 c 1
 320 640 l 1
 320 682.667 320 725.333 320 768 c 1
 192 768 l 1
EndSplineSet
EndChar

StartChar: 006A
Encoding: 106 106 75
Width: 512
Flags: HW
LayerCount: 2
Fore
SplineSet
128 0 m 1
 128 -64 l 1
 384 -64 l 1
 384 0 l 1
 448 0 l 1
 448 576 l 1
 256 576 l 1
 256 512 l 1
 320 512 l 1
 320 341.333 320 170.667 320 0 c 1
 192 0 l 1
 192 42.6667 192 85.3333 192 128 c 1
 64 128 l 1
 64 85.3333 64 42.6667 64 0 c 1
 128 0 l 1
320 768 m 1
 320 725.333 320 682.667 320 640 c 1
 448 640 l 1
 448 682.667 448 725.333 448 768 c 1
 320 768 l 1
EndSplineSet
EndChar

StartChar: 006B
Encoding: 107 107 76
Width: 512
Flags: HW
LayerCount: 2
Fore
SplineSet
448 512 m 1
 448 576 l 1
 320 576 l 1
 320 512 l 1
 256 512 l 1
 256 448 l 1
 192 448 l 1
 192 768 l 1
 0 768 l 1
 0 704 l 1
 64 704 l 1
 64 533.333 64 362.667 64 192 c 1
 0 192 l 1
 0 128 l 1
 192 128 l 1
 192 320 l 1
 256 320 l 1
 256 256 l 1
 320 256 l 1
 320 213.333 320 170.667 320 128 c 1
 448 128 l 1
 448 170.667 448 213.333 448 256 c 1
 384 256 l 1
 384 320 l 1
 320 320 l 1
 320 362.667 320 405.333 320 448 c 1
 384 448 l 1
 384 512 l 1
 448 512 l 1
EndSplineSet
EndChar

StartChar: 006C
Encoding: 108 108 77
Width: 512
Flags: HW
LayerCount: 2
Fore
SplineSet
384 128 m 1
 384 192 l 1
 320 192 l 1
 320 768 l 1
 128 768 l 1
 128 704 l 1
 192 704 l 1
 192 533.333 192 362.667 192 192 c 1
 128 192 l 1
 128 128 l 1
 384 128 l 1
EndSplineSet
EndChar

StartChar: 006D
Encoding: 109 109 78
Width: 512
Flags: HW
LayerCount: 2
Fore
SplineSet
0 576 m 1
 0 128 l 1
 128 128 l 1
 128 448 l 1
 192 448 l 1
 192 362.667 192 277.333 192 192 c 1
 256 192 l 1
 256 277.333 256 362.667 256 448 c 1
 320 448 l 1
 320 128 l 1
 448 128 l 1
 448 256 448 384 448 512 c 1
 384 512 l 1
 384 576 l 1
 256 576 l 1
 256 512 l 1
 192 512 l 1
 192 576 l 1
 0 576 l 1
EndSplineSet
EndChar

StartChar: 006E
Encoding: 110 110 79
Width: 512
Flags: HW
LayerCount: 2
Fore
SplineSet
64 512 m 1
 64 384 64 256 64 128 c 1
 192 128 l 1
 192 256 192 384 192 512 c 1
 128 512 l 1
 128 576 l 1
 0 576 l 1
 0 512 l 1
 64 512 l 1
320 512 m 1
 320 384 320 256 320 128 c 1
 448 128 l 1
 448 256 448 384 448 512 c 1
 384 512 l 1
 384 576 l 1
 192 576 l 1
 192 512 l 1
 320 512 l 1
EndSplineSet
EndChar

StartChar: 006F
Encoding: 111 111 80
Width: 512
Flags: HW
LayerCount: 2
Fore
SplineSet
64 192 m 1
 64 128 l 1
 384 128 l 1
 384 192 l 1
 448 192 l 1
 448 512 l 1
 384 512 l 1
 384 576 l 1
 64 576 l 1
 64 512 l 1
 0 512 l 1
 0 192 l 1
 64 192 l 1
128 192 m 1
 128 512 l 1
 320 512 l 1
 320 192 l 1
 128 192 l 1
EndSplineSet
EndChar

StartChar: 0070
Encoding: 112 112 81
Width: 512
Flags: HW
LayerCount: 2
Fore
SplineSet
256 -64 m 1
 256 0 l 1
 192 0 l 1
 192 42.6667 192 85.3333 192 128 c 1
 384 128 l 1
 384 192 l 1
 448 192 l 1
 448 512 l 1
 384 512 l 1
 384 576 l 1
 192 576 l 1
 192 512 l 1
 128 512 l 1
 128 576 l 1
 0 576 l 1
 0 512 l 1
 64 512 l 1
 64 341.333 64 170.667 64 0 c 1
 0 0 l 1
 0 -64 l 1
 256 -64 l 1
192 192 m 1
 192 512 l 1
 320 512 l 1
 320 192 l 1
 192 192 l 1
EndSplineSet
EndChar

StartChar: 0071
Encoding: 113 113 82
Width: 512
Flags: HW
LayerCount: 2
Fore
SplineSet
448 -64 m 1
 448 0 l 1
 384 0 l 1
 384 170.667 384 341.333 384 512 c 1
 448 512 l 1
 448 576 l 1
 320 576 l 1
 320 512 l 1
 256 512 l 1
 256 192 l 1
 128 192 l 1
 128 512 l 1
 256 512 l 1
 256 576 l 1
 64 576 l 1
 64 512 l 1
 0 512 l 1
 0 192 l 1
 64 192 l 1
 64 128 l 1
 256 128 l 1
 256 85.3333 256 42.6667 256 0 c 1
 192 0 l 1
 192 -64 l 1
 448 -64 l 1
EndSplineSet
EndChar

StartChar: 0072
Encoding: 114 114 83
Width: 512
Flags: HW
LayerCount: 2
Fore
SplineSet
256 128 m 1
 256 192 l 1
 192 192 l 1
 192 277.333 192 362.667 192 448 c 1
 256 448 l 1
 256 512 l 1
 320 512 l 1
 320 469.333 320 426.667 320 384 c 1
 448 384 l 1
 448 426.667 448 469.333 448 512 c 1
 384 512 l 1
 384 576 l 1
 192 576 l 1
 192 512 l 1
 128 512 l 1
 128 576 l 1
 0 576 l 1
 0 512 l 1
 64 512 l 1
 64 192 l 1
 0 192 l 1
 0 128 l 1
 256 128 l 1
EndSplineSet
EndChar

StartChar: 0073
Encoding: 115 115 84
Width: 512
Flags: HW
LayerCount: 2
Fore
SplineSet
448 192 m 1
 448 256 l 1
 384 256 l 1
 384 320 l 1
 320 320 l 1
 320 384 l 1
 192 384 l 1
 192 448 l 1
 128 448 l 1
 128 512 l 1
 320 512 l 1
 320 448 l 1
 448 448 l 1
 448 512 l 1
 384 512 l 1
 384 576 l 1
 64 576 l 1
 64 512 l 1
 0 512 l 1
 0 448 l 1
 64 448 l 1
 64 384 l 1
 128 384 l 1
 128 320 l 1
 256 320 l 1
 256 256 l 1
 320 256 l 1
 320 192 l 1
 128 192 l 1
 128 256 l 1
 0 256 l 1
 0 192 l 1
 64 192 l 1
 64 128 l 1
 384 128 l 1
 384 192 l 1
 448 192 l 1
EndSplineSet
EndChar

StartChar: 0074
Encoding: 116 116 85
Width: 512
Flags: HW
LayerCount: 2
Fore
SplineSet
448 192 m 1
 448 256 l 1
 320 256 l 1
 320 192 l 1
 256 192 l 1
 256 512 l 1
 384 512 l 1
 384 576 l 1
 256 576 l 1
 256 768 l 1
 192 768 l 1
 192 704 l 1
 128 704 l 1
 128 661.333 128 618.667 128 576 c 1
 0 576 l 1
 0 512 l 1
 128 512 l 1
 128 192 l 1
 192 192 l 1
 192 128 l 1
 384 128 l 1
 384 192 l 1
 448 192 l 1
EndSplineSet
EndChar

StartChar: 0075
Encoding: 117 117 86
Width: 512
Flags: HW
LayerCount: 2
Fore
SplineSet
448 128 m 1
 448 192 l 1
 384 192 l 1
 384 320 384 448 384 576 c 1
 256 576 l 1
 256 448 256 320 256 192 c 1
 128 192 l 1
 128 320 128 448 128 576 c 1
 0 576 l 1
 -0 448 0 320 0 192 c 1
 64 192 l 1
 64 128 l 1
 256 128 l 1
 256 192 l 1
 320 192 l 1
 320 128 l 1
 448 128 l 1
EndSplineSet
EndChar

StartChar: 0076
Encoding: 118 118 87
Width: 512
Flags: HW
LayerCount: 2
Fore
SplineSet
320 192 m 1
 384 192 l 1
 384 256 l 1
 448 256 l 1
 448 576 l 1
 320 576 l 1
 320 256 l 1
 192 256 l 1
 192 576 l 1
 64 576 l 1
 64 256 l 1
 128 256 l 1
 128 192 l 1
 192 192 l 1
 192 128 l 1
 320 128 l 1
 320 192 l 1
EndSplineSet
EndChar

StartChar: 0077
Encoding: 119 119 88
Width: 512
Flags: HW
LayerCount: 2
Fore
SplineSet
384 192 m 1
 448 192 l 1
 448 320 448 448 448 576 c 1
 320 576 l 1
 320 256 l 1
 256 256 l 1
 256 448 l 1
 192 448 l 1
 192 256 l 1
 128 256 l 1
 128 576 l 1
 0 576 l 1
 -0 448 0 320 0 192 c 1
 64 192 l 1
 64 128 l 1
 192 128 l 1
 192 192 l 1
 256 192 l 1
 256 128 l 1
 384 128 l 1
 384 192 l 1
EndSplineSet
EndChar

StartChar: 0078
Encoding: 120 120 89
Width: 512
Flags: HW
LayerCount: 2
Fore
SplineSet
448 128 m 1
 448 192 l 1
 384 192 l 1
 384 256 l 1
 320 256 l 1
 320 448 l 1
 384 448 l 1
 384 512 l 1
 448 512 l 1
 448 576 l 1
 320 576 l 1
 320 512 l 1
 256 512 l 1
 256 448 l 1
 192 448 l 1
 192 512 l 1
 128 512 l 1
 128 576 l 1
 0 576 l 1
 0 512 l 1
 64 512 l 1
 64 448 l 1
 128 448 l 1
 128 256 l 1
 64 256 l 1
 64 192 l 1
 0 192 l 1
 0 128 l 1
 128 128 l 1
 128 192 l 1
 192 192 l 1
 192 256 l 1
 256 256 l 1
 256 192 l 1
 320 192 l 1
 320 128 l 1
 448 128 l 1
EndSplineSet
EndChar

StartChar: 0079
Encoding: 121 121 90
Width: 512
Flags: HW
LayerCount: 2
Fore
SplineSet
320 0 m 1
 384 0 l 1
 384 64 l 1
 448 64 l 1
 448 234.667 448 405.333 448 576 c 1
 320 576 l 1
 320 448 320 320 320 192 c 1
 128 192 l 1
 128 320 128 448 128 576 c 1
 0 576 l 1
 -0 448 0 320 0 192 c 1
 64 192 l 1
 64 128 l 1
 320 128 l 1
 320 64 l 1
 256 64 l 1
 256 0 l 1
 0 0 l 1
 0 -64 l 1
 320 -64 l 1
 320 0 l 1
EndSplineSet
EndChar

StartChar: 007A
Encoding: 122 122 91
Width: 512
Flags: HW
LayerCount: 2
Fore
SplineSet
448 512 m 1
 448 576 l 1
 0 576 l 1
 -0 533.333 0 490.667 0 448 c 1
 128 448 l 1
 128 512 l 1
 256 512 l 1
 256 448 l 1
 192 448 l 1
 192 384 l 1
 128 384 l 1
 128 320 l 1
 64 320 l 1
 64 256 l 1
 0 256 l 1
 -0 213.333 0 170.667 0 128 c 1
 448 128 l 1
 448 170.667 448 213.333 448 256 c 1
 320 256 l 1
 320 192 l 1
 128 192 l 1
 128 256 l 1
 192 256 l 1
 192 320 l 1
 256 320 l 1
 256 384 l 1
 320 384 l 1
 320 448 l 1
 384 448 l 1
 384 512 l 1
 448 512 l 1
EndSplineSet
EndChar

StartChar: 007B
Encoding: 123 123 92
Width: 512
Flags: HW
LayerCount: 2
Fore
SplineSet
448 128 m 1
 448 192 l 1
 320 192 l 1
 320 277.333 320 362.667 320 448 c 1
 256 448 l 1
 256 512 l 1
 320 512 l 1
 320 704 l 1
 448 704 l 1
 448 768 l 1
 256 768 l 1
 256 704 l 1
 192 704 l 1
 192 512 l 1
 64 512 l 1
 64 448 l 1
 192 448 l 1
 192 362.667 192 277.333 192 192 c 1
 256 192 l 1
 256 128 l 1
 448 128 l 1
EndSplineSet
EndChar

StartChar: 007C
Encoding: 124 124 93
Width: 512
Flags: HW
LayerCount: 2
Fore
SplineSet
192 448 m 1
 192 128 l 1
 320 128 l 1
 320 448 l 1
 192 448 l 1
192 768 m 1
 192 682.667 192 597.333 192 512 c 1
 320 512 l 1
 320 597.333 320 682.667 320 768 c 1
 192 768 l 1
EndSplineSet
EndChar

StartChar: 007D
Encoding: 125 125 94
Width: 512
Flags: HW
LayerCount: 2
Fore
SplineSet
448 448 m 1
 448 512 l 1
 320 512 l 1
 320 704 l 1
 256 704 l 1
 256 768 l 1
 64 768 l 1
 64 704 l 1
 192 704 l 1
 192 512 l 1
 256 512 l 1
 256 448 l 1
 192 448 l 1
 192 362.667 192 277.333 192 192 c 1
 64 192 l 1
 64 128 l 1
 256 128 l 1
 256 192 l 1
 320 192 l 1
 320 277.333 320 362.667 320 448 c 1
 448 448 l 1
EndSplineSet
EndChar

StartChar: 007E
Encoding: 126 126 95
Width: 512
Flags: HW
LayerCount: 2
Fore
SplineSet
448 704 m 1
 448 768 l 1
 320 768 l 1
 320 704 l 1
 256 704 l 1
 256 768 l 1
 64 768 l 1
 64 704 l 1
 0 704 l 1
 0 640 l 1
 128 640 l 1
 128 704 l 1
 192 704 l 1
 192 640 l 1
 384 640 l 1
 384 704 l 1
 448 704 l 1
EndSplineSet
EndChar

StartChar: 007F
Encoding: 127 127 96
Width: 512
Flags: HW
LayerCount: 2
Fore
SplineSet
0 448 m 1
 -0 362.667 0 277.333 0 192 c 1
 448 192 l 1
 448 277.333 448 362.667 448 448 c 1
 384 448 l 1
 384 512 l 1
 320 512 l 1
 320 576 l 1
 256 576 l 1
 256 640 l 1
 192 640 l 1
 192 576 l 1
 128 576 l 1
 128 512 l 1
 64 512 l 1
 64 448 l 1
 0 448 l 1
128 256 m 1
 128 448 l 1
 192 448 l 1
 192 512 l 1
 256 512 l 1
 256 448 l 1
 320 448 l 1
 320 256 l 1
 128 256 l 1
EndSplineSet
EndChar

StartChar: 00A1
Encoding: 161 161 98
Width: 512
Flags: HW
LayerCount: 2
Fore
SplineSet
320 192 m 1
 384 192 l 1
 384 384 l 1
 320 384 l 1
 320 576 l 1
 192 576 l 1
 192 384 l 1
 128 384 l 1
 128 192 l 1
 192 192 l 1
 192 128 l 1
 320 128 l 1
 320 192 l 1
192 768 m 1
 192 725.333 192 682.667 192 640 c 1
 320 640 l 1
 320 682.667 320 725.333 320 768 c 1
 192 768 l 1
EndSplineSet
EndChar

StartChar: 00A2
Encoding: 162 162 99
Width: 512
Flags: HW
LayerCount: 2
Fore
SplineSet
448 320 m 1
 448 384 l 1
 320 384 l 1
 320 320 l 1
 192 320 l 1
 192 640 l 1
 320 640 l 1
 320 576 l 1
 448 576 l 1
 448 640 l 1
 384 640 l 1
 384 704 l 1
 320 704 l 1
 320 746.667 320 789.333 320 832 c 1
 192 832 l 1
 192 789.333 192 746.667 192 704 c 1
 128 704 l 1
 128 640 l 1
 64 640 l 1
 64 320 l 1
 128 320 l 1
 128 256 l 1
 192 256 l 1
 192 213.333 192 170.667 192 128 c 1
 320 128 l 1
 320 170.667 320 213.333 320 256 c 1
 384 256 l 1
 384 320 l 1
 448 320 l 1
EndSplineSet
EndChar

StartChar: 00A3
Encoding: 163 163 100
Width: 512
Flags: HW
LayerCount: 2
Fore
SplineSet
448 192 m 1
 448 256 l 1
 320 256 l 1
 320 192 l 1
 192 192 l 1
 192 512 l 1
 256 512 l 1
 256 576 l 1
 192 576 l 1
 192 768 l 1
 256 768 l 1
 256 704 l 1
 320 704 l 1
 320 640 l 1
 384 640 l 1
 384 682.667 384 725.333 384 768 c 1
 320 768 l 1
 320 832 l 1
 128 832 l 1
 128 768 l 1
 64 768 l 1
 64 576 l 1
 0 576 l 1
 0 512 l 1
 64 512 l 1
 64 426.667 64 341.333 64 256 c 1
 0 256 l 1
 -0 213.333 0 170.667 0 128 c 1
 384 128 l 1
 384 192 l 1
 448 192 l 1
EndSplineSet
EndChar

StartChar: 00A4
Encoding: 164 164 101
Width: 512
Flags: HW
LayerCount: 2
Fore
SplineSet
448 192 m 1
 448 256 l 1
 384 256 l 1
 384 320 l 1
 448 320 l 1
 448 512 l 1
 384 512 l 1
 384 576 l 1
 448 576 l 1
 448 640 l 1
 320 640 l 1
 320 576 l 1
 192 576 l 1
 192 640 l 1
 64 640 l 1
 64 576 l 1
 128 576 l 1
 128 512 l 1
 64 512 l 1
 64 320 l 1
 128 320 l 1
 128 256 l 1
 64 256 l 1
 64 192 l 1
 192 192 l 1
 192 256 l 1
 320 256 l 1
 320 192 l 1
 448 192 l 1
192 320 m 1
 192 512 l 1
 320 512 l 1
 320 320 l 1
 192 320 l 1
EndSplineSet
EndChar

StartChar: 00A5
Encoding: 165 165 102
Width: 512
Flags: HW
LayerCount: 2
Fore
SplineSet
448 320 m 1
 448 384 l 1
 320 384 l 1
 320 448 l 1
 448 448 l 1
 448 512 l 1
 320 512 l 1
 320 576 l 1
 384 576 l 1
 384 640 l 1
 448 640 l 1
 448 682.667 448 725.333 448 768 c 1
 320 768 l 1
 320 725.333 320 682.667 320 640 c 1
 192 640 l 1
 192 682.667 192 725.333 192 768 c 1
 64 768 l 1
 64 725.333 64 682.667 64 640 c 1
 128 640 l 1
 128 576 l 1
 192 576 l 1
 192 512 l 1
 64 512 l 1
 64 448 l 1
 192 448 l 1
 192 384 l 1
 64 384 l 1
 64 320 l 1
 192 320 l 1
 192 128 l 1
 320 128 l 1
 320 320 l 1
 448 320 l 1
EndSplineSet
EndChar

StartChar: 00A6
Encoding: 166 166 103
Width: 512
Flags: HW
LayerCount: 2
Fore
SplineSet
192 448 m 1
 192 128 l 1
 320 128 l 1
 320 448 l 1
 192 448 l 1
192 768 m 1
 192 682.667 192 597.333 192 512 c 1
 320 512 l 1
 320 597.333 320 682.667 320 768 c 1
 192 768 l 1
EndSplineSet
EndChar

StartChar: 00A7
Encoding: 167 167 104
Width: 512
Flags: HW
LayerCount: 2
Fore
SplineSet
448 128 m 1
 448 192 l 1
 384 192 l 1
 384 256 l 1
 320 256 l 1
 320 320 l 1
 384 320 l 1
 384 384 l 1
 448 384 l 1
 448 426.667 448 469.333 448 512 c 1
 384 512 l 1
 384 576 l 1
 320 576 l 1
 320 640 l 1
 192 640 l 1
 192 704 l 1
 128 704 l 1
 128 768 l 1
 320 768 l 1
 320 704 l 1
 448 704 l 1
 448 768 l 1
 384 768 l 1
 384 832 l 1
 64 832 l 1
 64 768 l 1
 0 768 l 1
 0 704 l 1
 64 704 l 1
 64 640 l 1
 128 640 l 1
 128 576 l 1
 64 576 l 1
 64 512 l 1
 0 512 l 1
 -0 469.333 0 426.667 0 384 c 1
 64 384 l 1
 64 320 l 1
 128 320 l 1
 128 256 l 1
 256 256 l 1
 256 192 l 1
 320 192 l 1
 320 128 l 1
 128 128 l 1
 128 192 l 1
 0 192 l 1
 0 128 l 1
 64 128 l 1
 64 64 l 1
 384 64 l 1
 384 128 l 1
 448 128 l 1
192 320 m 1
 192 384 l 1
 128 384 l 1
 128 426.667 128 469.333 128 512 c 1
 192 512 l 1
 192 576 l 1
 256 576 l 1
 256 512 l 1
 320 512 l 1
 320 469.333 320 426.667 320 384 c 1
 256 384 l 1
 256 320 l 1
 192 320 l 1
EndSplineSet
EndChar

StartChar: 00A8
Encoding: 168 168 105
Width: 512
Flags: HW
LayerCount: 2
Fore
SplineSet
64 768 m 1
 64 725.333 64 682.667 64 640 c 1
 192 640 l 1
 192 682.667 192 725.333 192 768 c 1
 64 768 l 1
256 768 m 1
 256 725.333 256 682.667 256 640 c 1
 384 640 l 1
 384 682.667 384 725.333 384 768 c 1
 256 768 l 1
EndSplineSet
EndChar

StartChar: 00A9
Encoding: 169 169 106
Width: 512
Flags: HW
LayerCount: 2
Fore
SplineSet
384 320 m 1
 384 384 l 1
 320 384 l 1
 320 320 l 1
 192 320 l 1
 192 256 l 1
 320 256 l 1
 320 320 l 1
 384 320 l 1
384 512 m 1
 384 576 l 1
 320 576 l 1
 320 512 l 1
 384 512 l 1
128 192 m 1
 128 128 l 1
 384 128 l 1
 384 192 l 1
 128 192 l 1
128 192 m 1
 128 256 l 1
 64 256 l 1
 64 192 l 1
 128 192 l 1
384 192 m 1
 448 192 l 1
 448 256 l 1
 384 256 l 1
 384 192 l 1
64 256 m 1
 64 384 64 512 64 640 c 1
 0 640 l 1
 -0 512 0 384 0 256 c 1
 64 256 l 1
448 256 m 1
 512 256 l 1
 512 384 512 512 512 640 c 1
 448 640 l 1
 448 512 448 384 448 256 c 1
192 320 m 1
 192 405.333 192 490.667 192 576 c 1
 128 576 l 1
 128 490.667 128 405.333 128 320 c 1
 192 320 l 1
192 576 m 1
 320 576 l 1
 320 640 l 1
 192 640 l 1
 192 576 l 1
64 640 m 1
 128 640 l 1
 128 704 l 1
 64 704 l 1
 64 640 l 1
448 640 m 1
 448 704 l 1
 384 704 l 1
 384 640 l 1
 448 640 l 1
128 704 m 1
 384 704 l 1
 384 768 l 1
 128 768 l 1
 128 704 l 1
EndSplineSet
EndChar

StartChar: 00AA
Encoding: 170 170 107
Width: 512
Flags: HW
LayerCount: 2
Fore
SplineSet
448 448 m 1
 448 512 l 1
 64 512 l 1
 64 448 l 1
 448 448 l 1
448 576 m 1
 448 640 l 1
 384 640 l 1
 384 832 l 1
 128 832 l 1
 128 768 l 1
 64 768 l 1
 64 725.333 64 682.667 64 640 c 1
 128 640 l 1
 128 576 l 1
 448 576 l 1
192 640 m 1
 192 682.667 192 725.333 192 768 c 1
 256 768 l 1
 256 725.333 256 682.667 256 640 c 1
 192 640 l 1
EndSplineSet
EndChar

StartChar: 00AB
Encoding: 171 171 108
Width: 512
Flags: HW
LayerCount: 2
Fore
SplineSet
448 256 m 1
 448 320 l 1
 384 320 l 1
 384 384 l 1
 320 384 l 1
 320 448 l 1
 384 448 l 1
 384 512 l 1
 448 512 l 1
 448 576 l 1
 320 576 l 1
 320 512 l 1
 256 512 l 1
 256 448 l 1
 192 448 l 1
 192 384 l 1
 128 384 l 1
 128 448 l 1
 192 448 l 1
 192 512 l 1
 256 512 l 1
 256 576 l 1
 128 576 l 1
 128 512 l 1
 64 512 l 1
 64 448 l 1
 0 448 l 1
 0 384 l 1
 64 384 l 1
 64 320 l 1
 128 320 l 1
 128 256 l 1
 256 256 l 1
 256 320 l 1
 192 320 l 1
 192 384 l 1
 256 384 l 1
 256 320 l 1
 320 320 l 1
 320 256 l 1
 448 256 l 1
EndSplineSet
EndChar

StartChar: 00AC
Encoding: 172 172 109
Width: 512
Flags: HW
LayerCount: 2
Fore
SplineSet
320 448 m 1
 320 362.667 320 277.333 320 192 c 1
 448 192 l 1
 448 512 l 1
 0 512 l 1
 0 448 l 1
 320 448 l 1
EndSplineSet
EndChar

StartChar: 00AD
Encoding: 173 173 110
Width: 512
Flags: HW
LayerCount: 2
Fore
SplineSet
384 384 m 1
 384 448 l 1
 128 448 l 1
 128 384 l 1
 384 384 l 1
EndSplineSet
EndChar

StartChar: 00AE
Encoding: 174 174 111
Width: 512
Flags: HW
LayerCount: 2
Fore
SplineSet
128 384 m 1
 128 320 l 1
 320 320 l 1
 320 384 l 1
 128 384 l 1
128 384 m 1
 128 448 l 1
 64 448 l 1
 64 384 l 1
 128 384 l 1
320 384 m 1
 384 384 l 1
 384 448 l 1
 320 448 l 1
 320 384 l 1
64 448 m 1
 64 640 l 1
 0 640 l 1
 0 448 l 1
 64 448 l 1
128 448 m 1
 192 448 l 1
 192 512 l 1
 256 512 l 1
 256 448 l 1
 320 448 l 1
 320 512 l 1
 256 512 l 1
 256 576 l 1
 320 576 l 1
 320 640 l 1
 128 640 l 1
 128 448 l 1
384 448 m 1
 448 448 l 1
 448 640 l 1
 384 640 l 1
 384 448 l 1
64 640 m 1
 128 640 l 1
 128 704 l 1
 64 704 l 1
 64 640 l 1
320 640 m 1
 384 640 l 1
 384 704 l 1
 320 704 l 1
 320 640 l 1
128 704 m 1
 320 704 l 1
 320 768 l 1
 128 768 l 1
 128 704 l 1
EndSplineSet
EndChar

StartChar: 00AF
Encoding: 175 175 112
Width: 512
Flags: HW
LayerCount: 2
Fore
SplineSet
384 640 m 1
 384 704 l 1
 64 704 l 1
 64 640 l 1
 384 640 l 1
EndSplineSet
EndChar

StartChar: 00B0
Encoding: 176 176 113
Width: 512
Flags: HW
LayerCount: 2
Fore
SplineSet
128 640 m 1
 128 576 l 1
 320 576 l 1
 320 640 l 1
 384 640 l 1
 384 682.667 384 725.333 384 768 c 1
 320 768 l 1
 320 832 l 1
 128 832 l 1
 128 768 l 1
 64 768 l 1
 64 725.333 64 682.667 64 640 c 1
 128 640 l 1
192 640 m 1
 192 682.667 192 725.333 192 768 c 1
 256 768 l 1
 256 725.333 256 682.667 256 640 c 1
 192 640 l 1
EndSplineSet
EndChar

StartChar: 00B1
Encoding: 177 177 114
Width: 512
Flags: HW
LayerCount: 2
Fore
SplineSet
448 192 m 1
 448 256 l 1
 64 256 l 1
 64 192 l 1
 448 192 l 1
448 448 m 1
 448 512 l 1
 320 512 l 1
 320 554.667 320 597.333 320 640 c 1
 192 640 l 1
 192 597.333 192 554.667 192 512 c 1
 64 512 l 1
 64 448 l 1
 192 448 l 1
 192 405.333 192 362.667 192 320 c 1
 320 320 l 1
 320 362.667 320 405.333 320 448 c 1
 448 448 l 1
EndSplineSet
EndChar

StartChar: 00B2
Encoding: 178 178 115
Width: 512
Flags: HW
LayerCount: 2
Fore
SplineSet
320 704 m 1
 320 768 l 1
 256 768 l 1
 256 832 l 1
 64 832 l 1
 64 768 l 1
 0 768 l 1
 0 704 l 1
 128 704 l 1
 128 640 l 1
 64 640 l 1
 64 576 l 1
 0 576 l 1
 -0 533.333 0 490.667 0 448 c 1
 320 448 l 1
 320 490.667 320 533.333 320 576 c 1
 256 576 l 1
 256 512 l 1
 128 512 l 1
 128 576 l 1
 192 576 l 1
 192 640 l 1
 256 640 l 1
 256 704 l 1
 320 704 l 1
128 704 m 1
 128 768 l 1
 192 768 l 1
 192 704 l 1
 128 704 l 1
EndSplineSet
EndChar

StartChar: 00B3
Encoding: 179 179 116
Width: 512
Flags: HW
LayerCount: 2
Fore
SplineSet
320 704 m 1
 320 768 l 1
 256 768 l 1
 256 832 l 1
 64 832 l 1
 64 768 l 1
 0 768 l 1
 0 704 l 1
 128 704 l 1
 128 640 l 1
 192 640 l 1
 192 597.333 192 554.667 192 512 c 1
 128 512 l 1
 128 576 l 1
 0 576 l 1
 0 512 l 1
 64 512 l 1
 64 448 l 1
 256 448 l 1
 256 512 l 1
 320 512 l 1
 320 554.667 320 597.333 320 640 c 1
 256 640 l 1
 256 704 l 1
 320 704 l 1
128 704 m 1
 128 768 l 1
 192 768 l 1
 192 704 l 1
 128 704 l 1
EndSplineSet
EndChar

StartChar: 00B4
Encoding: 180 180 117
Width: 512
Flags: HW
LayerCount: 2
Fore
SplineSet
384 704 m 1
 384 768 l 1
 256 768 l 1
 256 704 l 1
 192 704 l 1
 192 640 l 1
 320 640 l 1
 320 704 l 1
 384 704 l 1
EndSplineSet
EndChar

StartChar: 00B5
Encoding: 181 181 118
Width: 512
Flags: HW
LayerCount: 2
Fore
SplineSet
448 128 m 1
 448 192 l 1
 384 192 l 1
 384 320 384 448 384 576 c 1
 256 576 l 1
 256 448 256 320 256 192 c 1
 128 192 l 1
 128 320 128 448 128 576 c 1
 0 576 l 1
 -0 362.667 0 149.333 0 -64 c 1
 128 -64 l 1
 128 128 l 1
 256 128 l 1
 256 192 l 1
 320 192 l 1
 320 128 l 1
 448 128 l 1
EndSplineSet
EndChar

StartChar: 00B6
Encoding: 182 182 119
Width: 512
Flags: HW
LayerCount: 2
Fore
SplineSet
192 448 m 1
 192 128 l 1
 320 128 l 1
 320 704 l 1
 384 704 l 1
 384 128 l 1
 512 128 l 1
 512 341.333 512 554.667 512 768 c 1
 64 768 l 1
 64 704 l 1
 0 704 l 1
 0 512 l 1
 64 512 l 1
 64 448 l 1
 192 448 l 1
128 512 m 1
 128 704 l 1
 192 704 l 1
 192 512 l 1
 128 512 l 1
EndSplineSet
EndChar

StartChar: 00B7
Encoding: 183 183 120
Width: 512
Flags: HW
LayerCount: 2
Fore
SplineSet
320 320 m 1
 320 384 l 1
 192 384 l 1
 192 320 l 1
 320 320 l 1
EndSplineSet
EndChar

StartChar: 00B8
Encoding: 184 184 121
Width: 512
Flags: HW
LayerCount: 2
Fore
SplineSet
384 0 m 1
 384 64 l 1
 320 64 l 1
 320 128 l 1
 192 128 l 1
 192 64 l 1
 256 64 l 1
 256 0 l 1
 128 0 l 1
 128 -64 l 1
 320 -64 l 1
 320 0 l 1
 384 0 l 1
EndSplineSet
EndChar

StartChar: 00B9
Encoding: 185 185 122
Width: 512
Flags: HW
LayerCount: 2
Fore
SplineSet
320 448 m 1
 320 512 l 1
 256 512 l 1
 256 832 l 1
 128 832 l 1
 128 768 l 1
 64 768 l 1
 64 704 l 1
 128 704 l 1
 128 512 l 1
 64 512 l 1
 64 448 l 1
 320 448 l 1
EndSplineSet
EndChar

StartChar: 00BA
Encoding: 186 186 123
Width: 512
Flags: HW
LayerCount: 2
Fore
SplineSet
384 448 m 1
 384 512 l 1
 64 512 l 1
 64 448 l 1
 384 448 l 1
128 640 m 1
 128 576 l 1
 320 576 l 1
 320 640 l 1
 384 640 l 1
 384 682.667 384 725.333 384 768 c 1
 320 768 l 1
 320 832 l 1
 128 832 l 1
 128 768 l 1
 64 768 l 1
 64 725.333 64 682.667 64 640 c 1
 128 640 l 1
192 640 m 1
 192 682.667 192 725.333 192 768 c 1
 256 768 l 1
 256 725.333 256 682.667 256 640 c 1
 192 640 l 1
EndSplineSet
EndChar

StartChar: 00BB
Encoding: 187 187 124
Width: 512
Flags: HW
LayerCount: 2
Fore
SplineSet
448 384 m 1
 448 448 l 1
 384 448 l 1
 384 512 l 1
 320 512 l 1
 320 576 l 1
 192 576 l 1
 192 512 l 1
 128 512 l 1
 128 576 l 1
 0 576 l 1
 0 512 l 1
 64 512 l 1
 64 448 l 1
 128 448 l 1
 128 384 l 1
 64 384 l 1
 64 320 l 1
 0 320 l 1
 0 256 l 1
 128 256 l 1
 128 320 l 1
 192 320 l 1
 192 256 l 1
 320 256 l 1
 320 320 l 1
 384 320 l 1
 384 384 l 1
 448 384 l 1
192 320 m 1
 192 384 l 1
 256 384 l 1
 256 320 l 1
 192 320 l 1
256 384 m 1
 256 448 l 1
 192 448 l 1
 192 512 l 1
 256 512 l 1
 256 448 l 1
 320 448 l 1
 320 384 l 1
 256 384 l 1
EndSplineSet
EndChar

StartChar: 00BC
Encoding: 188 188 125
Width: 512
Flags: HW
LayerCount: 2
Fore
SplineSet
320 128 m 1
 320 85.3333 320 42.6667 320 0 c 1
 448 0 l 1
 448 128 448 256 448 384 c 1
 320 384 l 1
 320 320 l 1
 256 320 l 1
 256 256 l 1
 192 256 l 1
 192 192 l 1
 128 192 l 1
 128 128 l 1
 320 128 l 1
64 256 m 1
 128 256 l 1
 128 320 l 1
 192 320 l 1
 192 384 l 1
 256 384 l 1
 256 448 l 1
 320 448 l 1
 320 512 l 1
 384 512 l 1
 384 576 l 1
 448 576 l 1
 448 618.667 448 661.333 448 704 c 1
 384 704 l 1
 384 640 l 1
 320 640 l 1
 320 576 l 1
 256 576 l 1
 256 512 l 1
 192 512 l 1
 192 448 l 1
 128 448 l 1
 128 384 l 1
 64 384 l 1
 64 320 l 1
 0 320 l 1
 -0 277.333 0 234.667 0 192 c 1
 64 192 l 1
 64 256 l 1
0 832 m 1
 0 512 l 1
 128 512 l 1
 128 832 l 1
 0 832 l 1
EndSplineSet
EndChar

StartChar: 00BD
Encoding: 189 189 126
Width: 512
Flags: HW
LayerCount: 2
Fore
SplineSet
448 0 m 1
 448 64 l 1
 320 64 l 1
 320 128 l 1
 384 128 l 1
 384 192 l 1
 448 192 l 1
 448 256 l 1
 384 256 l 1
 384 320 l 1
 192 320 l 1
 192 256 l 1
 320 256 l 1
 320 192 l 1
 256 192 l 1
 256 128 l 1
 192 128 l 1
 192 64 l 1
 128 64 l 1
 128 0 l 1
 448 0 l 1
64 256 m 1
 128 256 l 1
 128 320 l 1
 192 320 l 1
 192 384 l 1
 256 384 l 1
 256 448 l 1
 320 448 l 1
 320 512 l 1
 384 512 l 1
 384 576 l 1
 448 576 l 1
 448 618.667 448 661.333 448 704 c 1
 384 704 l 1
 384 640 l 1
 320 640 l 1
 320 576 l 1
 256 576 l 1
 256 512 l 1
 192 512 l 1
 192 448 l 1
 128 448 l 1
 128 384 l 1
 64 384 l 1
 64 320 l 1
 0 320 l 1
 -0 277.333 0 234.667 0 192 c 1
 64 192 l 1
 64 256 l 1
0 832 m 1
 0 512 l 1
 128 512 l 1
 128 832 l 1
 0 832 l 1
EndSplineSet
EndChar

StartChar: 00BE
Encoding: 190 190 127
Width: 512
Flags: HW
LayerCount: 2
Fore
SplineSet
256 704 m 1
 256 768 l 1
 192 768 l 1
 192 832 l 1
 0 832 l 1
 0 768 l 1
 128 768 l 1
 128 704 l 1
 64 704 l 1
 64 640 l 1
 128 640 l 1
 128 576 l 1
 0 576 l 1
 0 512 l 1
 192 512 l 1
 192 448 l 1
 128 448 l 1
 128 384 l 1
 64 384 l 1
 64 320 l 1
 0 320 l 1
 -0 277.333 0 234.667 0 192 c 1
 64 192 l 1
 64 256 l 1
 128 256 l 1
 128 320 l 1
 192 320 l 1
 192 384 l 1
 256 384 l 1
 256 448 l 1
 320 448 l 1
 320 512 l 1
 384 512 l 1
 384 576 l 1
 448 576 l 1
 448 618.667 448 661.333 448 704 c 1
 384 704 l 1
 384 640 l 1
 320 640 l 1
 320 576 l 1
 256 576 l 1
 256 512 l 1
 192 512 l 1
 192 576 l 1
 256 576 l 1
 256 640 l 1
 192 640 l 1
 192 704 l 1
 256 704 l 1
320 128 m 1
 320 85.3333 320 42.6667 320 0 c 1
 448 0 l 1
 448 128 448 256 448 384 c 1
 320 384 l 1
 320 320 l 1
 256 320 l 1
 256 256 l 1
 192 256 l 1
 192 192 l 1
 128 192 l 1
 128 128 l 1
 320 128 l 1
EndSplineSet
EndChar

StartChar: 00BF
Encoding: 191 191 128
Width: 512
Flags: HW
LayerCount: 2
Fore
SplineSet
64 192 m 1
 64 128 l 1
 384 128 l 1
 384 192 l 1
 448 192 l 1
 448 234.667 448 277.333 448 320 c 1
 320 320 l 1
 320 277.333 320 234.667 320 192 c 1
 128 192 l 1
 128 384 l 1
 192 384 l 1
 192 448 l 1
 256 448 l 1
 256 490.667 256 533.333 256 576 c 1
 128 576 l 1
 128 533.333 128 490.667 128 448 c 1
 64 448 l 1
 64 384 l 1
 0 384 l 1
 0 192 l 1
 64 192 l 1
128 768 m 1
 128 725.333 128 682.667 128 640 c 1
 256 640 l 1
 256 682.667 256 725.333 256 768 c 1
 128 768 l 1
EndSplineSet
EndChar

StartChar: 00C0
Encoding: 192 192 129
Width: 512
Flags: HW
LayerCount: 2
Fore
SplineSet
256 768 m 1
 256 832 l 1
 192 832 l 1
 192 896 l 1
 64 896 l 1
 64 832 l 1
 128 832 l 1
 128 768 l 1
 256 768 l 1
0 512 m 1
 -0 384 0 256 0 128 c 1
 128 128 l 1
 128 320 l 1
 320 320 l 1
 320 128 l 1
 448 128 l 1
 448 256 448 384 448 512 c 1
 384 512 l 1
 384 576 l 1
 320 576 l 1
 320 640 l 1
 256 640 l 1
 256 704 l 1
 192 704 l 1
 192 640 l 1
 128 640 l 1
 128 576 l 1
 64 576 l 1
 64 512 l 1
 0 512 l 1
128 384 m 1
 128 426.667 128 469.333 128 512 c 1
 192 512 l 1
 192 576 l 1
 256 576 l 1
 256 512 l 1
 320 512 l 1
 320 469.333 320 426.667 320 384 c 1
 128 384 l 1
EndSplineSet
EndChar

StartChar: 00C1
Encoding: 193 193 130
Width: 512
Flags: HW
LayerCount: 2
Fore
SplineSet
384 832 m 1
 384 896 l 1
 256 896 l 1
 256 832 l 1
 192 832 l 1
 192 768 l 1
 320 768 l 1
 320 832 l 1
 384 832 l 1
0 512 m 1
 -0 384 0 256 0 128 c 1
 128 128 l 1
 128 320 l 1
 320 320 l 1
 320 128 l 1
 448 128 l 1
 448 256 448 384 448 512 c 1
 384 512 l 1
 384 576 l 1
 320 576 l 1
 320 640 l 1
 256 640 l 1
 256 704 l 1
 192 704 l 1
 192 640 l 1
 128 640 l 1
 128 576 l 1
 64 576 l 1
 64 512 l 1
 0 512 l 1
128 384 m 1
 128 426.667 128 469.333 128 512 c 1
 192 512 l 1
 192 576 l 1
 256 576 l 1
 256 512 l 1
 320 512 l 1
 320 469.333 320 426.667 320 384 c 1
 128 384 l 1
EndSplineSet
EndChar

StartChar: 00C2
Encoding: 194 194 131
Width: 512
Flags: HW
LayerCount: 2
Fore
SplineSet
384 704 m 1
 384 768 l 1
 320 768 l 1
 320 832 l 1
 256 832 l 1
 256 896 l 1
 192 896 l 1
 192 832 l 1
 128 832 l 1
 128 768 l 1
 64 768 l 1
 64 704 l 1
 192 704 l 1
 192 640 l 1
 128 640 l 1
 128 576 l 1
 64 576 l 1
 64 512 l 1
 0 512 l 1
 -0 384 0 256 0 128 c 1
 128 128 l 1
 128 320 l 1
 320 320 l 1
 320 128 l 1
 448 128 l 1
 448 256 448 384 448 512 c 1
 384 512 l 1
 384 576 l 1
 320 576 l 1
 320 640 l 1
 256 640 l 1
 256 704 l 1
 192 704 l 1
 192 768 l 1
 256 768 l 1
 256 704 l 1
 384 704 l 1
128 384 m 1
 128 426.667 128 469.333 128 512 c 1
 192 512 l 1
 192 576 l 1
 256 576 l 1
 256 512 l 1
 320 512 l 1
 320 469.333 320 426.667 320 384 c 1
 128 384 l 1
EndSplineSet
EndChar

StartChar: 00C3
Encoding: 195 195 132
Width: 512
Flags: HW
LayerCount: 2
Fore
SplineSet
448 832 m 1
 448 896 l 1
 320 896 l 1
 320 832 l 1
 256 832 l 1
 256 896 l 1
 64 896 l 1
 64 832 l 1
 0 832 l 1
 0 768 l 1
 128 768 l 1
 128 832 l 1
 192 832 l 1
 192 768 l 1
 384 768 l 1
 384 832 l 1
 448 832 l 1
0 512 m 1
 -0 384 0 256 0 128 c 1
 128 128 l 1
 128 320 l 1
 320 320 l 1
 320 128 l 1
 448 128 l 1
 448 256 448 384 448 512 c 1
 384 512 l 1
 384 576 l 1
 320 576 l 1
 320 640 l 1
 256 640 l 1
 256 704 l 1
 192 704 l 1
 192 640 l 1
 128 640 l 1
 128 576 l 1
 64 576 l 1
 64 512 l 1
 0 512 l 1
128 384 m 1
 128 426.667 128 469.333 128 512 c 1
 192 512 l 1
 192 576 l 1
 256 576 l 1
 256 512 l 1
 320 512 l 1
 320 469.333 320 426.667 320 384 c 1
 128 384 l 1
EndSplineSet
EndChar

StartChar: 00C4
Encoding: 196 196 133
Width: 512
Flags: HW
LayerCount: 2
Fore
SplineSet
0 512 m 1
 -0 384 0 256 0 128 c 1
 128 128 l 1
 128 320 l 1
 320 320 l 1
 320 128 l 1
 448 128 l 1
 448 256 448 384 448 512 c 1
 384 512 l 1
 384 576 l 1
 320 576 l 1
 320 640 l 1
 256 640 l 1
 256 704 l 1
 192 704 l 1
 192 640 l 1
 128 640 l 1
 128 576 l 1
 64 576 l 1
 64 512 l 1
 0 512 l 1
128 384 m 1
 128 426.667 128 469.333 128 512 c 1
 192 512 l 1
 192 576 l 1
 256 576 l 1
 256 512 l 1
 320 512 l 1
 320 469.333 320 426.667 320 384 c 1
 128 384 l 1
64 896 m 1
 64 853.333 64 810.667 64 768 c 1
 192 768 l 1
 192 810.667 192 853.333 192 896 c 1
 64 896 l 1
256 896 m 1
 256 853.333 256 810.667 256 768 c 1
 384 768 l 1
 384 810.667 384 853.333 384 896 c 1
 256 896 l 1
EndSplineSet
EndChar

StartChar: 00C5
Encoding: 197 197 134
Width: 512
Flags: HW
LayerCount: 2
Fore
SplineSet
384 768 m 1
 384 832 l 1
 320 832 l 1
 320 896 l 1
 128 896 l 1
 128 832 l 1
 64 832 l 1
 64 768 l 1
 128 768 l 1
 128 704 l 1
 192 704 l 1
 192 640 l 1
 128 640 l 1
 128 576 l 1
 64 576 l 1
 64 512 l 1
 0 512 l 1
 -0 384 0 256 0 128 c 1
 128 128 l 1
 128 320 l 1
 320 320 l 1
 320 128 l 1
 448 128 l 1
 448 256 448 384 448 512 c 1
 384 512 l 1
 384 576 l 1
 320 576 l 1
 320 640 l 1
 256 640 l 1
 256 704 l 1
 320 704 l 1
 320 768 l 1
 384 768 l 1
128 384 m 1
 128 426.667 128 469.333 128 512 c 1
 192 512 l 1
 192 576 l 1
 256 576 l 1
 256 512 l 1
 320 512 l 1
 320 469.333 320 426.667 320 384 c 1
 128 384 l 1
192 768 m 1
 192 832 l 1
 256 832 l 1
 256 768 l 1
 192 768 l 1
EndSplineSet
EndChar

StartChar: 00C6
Encoding: 198 198 135
Width: 512
Flags: HW
LayerCount: 2
Fore
SplineSet
448 128 m 1
 448 192 l 1
 384 192 l 1
 384 277.333 384 362.667 384 448 c 1
 448 448 l 1
 448 512 l 1
 384 512 l 1
 384 704 l 1
 448 704 l 1
 448 768 l 1
 128 768 l 1
 128 704 l 1
 64 704 l 1
 64 640 l 1
 0 640 l 1
 -0 469.333 0 298.667 0 128 c 1
 128 128 l 1
 128 448 l 1
 256 448 l 1
 256 128 l 1
 448 128 l 1
128 512 m 1
 128 554.667 128 597.333 128 640 c 1
 192 640 l 1
 192 704 l 1
 256 704 l 1
 256 512 l 1
 128 512 l 1
EndSplineSet
EndChar

StartChar: 00C7
Encoding: 199 199 136
Width: 512
Flags: HW
LayerCount: 2
Fore
SplineSet
384 0 m 1
 384 64 l 1
 320 64 l 1
 320 128 l 1
 384 128 l 1
 384 192 l 1
 448 192 l 1
 448 234.667 448 277.333 448 320 c 1
 384 320 l 1
 384 256 l 1
 320 256 l 1
 320 192 l 1
 192 192 l 1
 192 256 l 1
 128 256 l 1
 128 384 128 512 128 640 c 1
 192 640 l 1
 192 704 l 1
 320 704 l 1
 320 640 l 1
 384 640 l 1
 384 576 l 1
 448 576 l 1
 448 618.667 448 661.333 448 704 c 1
 384 704 l 1
 384 768 l 1
 128 768 l 1
 128 704 l 1
 64 704 l 1
 64 640 l 1
 0 640 l 1
 -0 512 0 384 0 256 c 1
 64 256 l 1
 64 192 l 1
 128 192 l 1
 128 128 l 1
 192 128 l 1
 192 64 l 1
 256 64 l 1
 256 0 l 1
 128 0 l 1
 128 -64 l 1
 320 -64 l 1
 320 0 l 1
 384 0 l 1
EndSplineSet
EndChar

StartChar: 00C8
Encoding: 200 200 137
Width: 512
Flags: HW
LayerCount: 2
Fore
SplineSet
320 768 m 1
 320 832 l 1
 256 832 l 1
 256 896 l 1
 128 896 l 1
 128 832 l 1
 192 832 l 1
 192 768 l 1
 320 768 l 1
64 192 m 1
 0 192 l 1
 0 128 l 1
 448 128 l 1
 448 320 l 1
 384 320 l 1
 384 256 l 1
 320 256 l 1
 320 192 l 1
 192 192 l 1
 192 384 l 1
 256 384 l 1
 256 320 l 1
 320 320 l 1
 320 512 l 1
 256 512 l 1
 256 448 l 1
 192 448 l 1
 192 640 l 1
 320 640 l 1
 320 576 l 1
 384 576 l 1
 384 512 l 1
 448 512 l 1
 448 704 l 1
 0 704 l 1
 0 640 l 1
 64 640 l 1
 64 192 l 1
EndSplineSet
EndChar

StartChar: 00C9
Encoding: 201 201 138
Width: 512
Flags: HW
LayerCount: 2
Fore
SplineSet
384 832 m 1
 384 896 l 1
 256 896 l 1
 256 832 l 1
 192 832 l 1
 192 768 l 1
 320 768 l 1
 320 832 l 1
 384 832 l 1
64 192 m 1
 0 192 l 1
 0 128 l 1
 448 128 l 1
 448 320 l 1
 384 320 l 1
 384 256 l 1
 320 256 l 1
 320 192 l 1
 192 192 l 1
 192 384 l 1
 256 384 l 1
 256 320 l 1
 320 320 l 1
 320 512 l 1
 256 512 l 1
 256 448 l 1
 192 448 l 1
 192 640 l 1
 320 640 l 1
 320 576 l 1
 384 576 l 1
 384 512 l 1
 448 512 l 1
 448 704 l 1
 0 704 l 1
 0 640 l 1
 64 640 l 1
 64 192 l 1
EndSplineSet
EndChar

StartChar: 00CA
Encoding: 202 202 139
Width: 512
Flags: HW
LayerCount: 2
Fore
SplineSet
64 192 m 1
 0 192 l 1
 0 128 l 1
 448 128 l 1
 448 320 l 1
 384 320 l 1
 384 256 l 1
 320 256 l 1
 320 192 l 1
 192 192 l 1
 192 384 l 1
 256 384 l 1
 256 320 l 1
 320 320 l 1
 320 512 l 1
 256 512 l 1
 256 448 l 1
 192 448 l 1
 192 640 l 1
 320 640 l 1
 320 576 l 1
 384 576 l 1
 384 512 l 1
 448 512 l 1
 448 704 l 1
 384 704 l 1
 384 768 l 1
 320 768 l 1
 320 704 l 1
 128 704 l 1
 128 768 l 1
 64 768 l 1
 64 704 l 1
 0 704 l 1
 0 640 l 1
 64 640 l 1
 64 192 l 1
128 768 m 1
 320 768 l 1
 320 832 l 1
 256 832 l 1
 256 896 l 1
 192 896 l 1
 192 832 l 1
 128 832 l 1
 128 768 l 1
EndSplineSet
EndChar

StartChar: 00CB
Encoding: 203 203 140
Width: 512
Flags: HW
LayerCount: 2
Fore
SplineSet
64 192 m 1
 0 192 l 1
 0 128 l 1
 448 128 l 1
 448 320 l 1
 384 320 l 1
 384 256 l 1
 320 256 l 1
 320 192 l 1
 192 192 l 1
 192 384 l 1
 256 384 l 1
 256 320 l 1
 320 320 l 1
 320 512 l 1
 256 512 l 1
 256 448 l 1
 192 448 l 1
 192 640 l 1
 320 640 l 1
 320 576 l 1
 384 576 l 1
 384 512 l 1
 448 512 l 1
 448 704 l 1
 0 704 l 1
 0 640 l 1
 64 640 l 1
 64 192 l 1
64 896 m 1
 64 853.333 64 810.667 64 768 c 1
 192 768 l 1
 192 810.667 192 853.333 192 896 c 1
 64 896 l 1
256 896 m 1
 256 853.333 256 810.667 256 768 c 1
 384 768 l 1
 384 810.667 384 853.333 384 896 c 1
 256 896 l 1
EndSplineSet
EndChar

StartChar: 00CC
Encoding: 204 204 141
Width: 512
Flags: HW
LayerCount: 2
Fore
SplineSet
384 128 m 1
 384 192 l 1
 320 192 l 1
 320 640 l 1
 384 640 l 1
 384 704 l 1
 128 704 l 1
 128 640 l 1
 192 640 l 1
 192 192 l 1
 128 192 l 1
 128 128 l 1
 384 128 l 1
320 768 m 1
 320 832 l 1
 256 832 l 1
 256 896 l 1
 128 896 l 1
 128 832 l 1
 192 832 l 1
 192 768 l 1
 320 768 l 1
EndSplineSet
EndChar

StartChar: 00CD
Encoding: 205 205 142
Width: 512
Flags: HW
LayerCount: 2
Fore
SplineSet
384 128 m 1
 384 192 l 1
 320 192 l 1
 320 640 l 1
 384 640 l 1
 384 704 l 1
 128 704 l 1
 128 640 l 1
 192 640 l 1
 192 192 l 1
 128 192 l 1
 128 128 l 1
 384 128 l 1
384 832 m 1
 384 896 l 1
 256 896 l 1
 256 832 l 1
 192 832 l 1
 192 768 l 1
 320 768 l 1
 320 832 l 1
 384 832 l 1
EndSplineSet
EndChar

StartChar: 00CE
Encoding: 206 206 143
Width: 512
Flags: HW
LayerCount: 2
Fore
SplineSet
384 128 m 1
 384 192 l 1
 320 192 l 1
 320 640 l 1
 384 640 l 1
 384 704 l 1
 128 704 l 1
 128 640 l 1
 192 640 l 1
 192 192 l 1
 128 192 l 1
 128 128 l 1
 384 128 l 1
448 704 m 1
 448 768 l 1
 384 768 l 1
 384 704 l 1
 448 704 l 1
128 704 m 1
 128 768 l 1
 64 768 l 1
 64 704 l 1
 128 704 l 1
128 768 m 1
 384 768 l 1
 384 832 l 1
 320 832 l 1
 320 896 l 1
 192 896 l 1
 192 832 l 1
 128 832 l 1
 128 768 l 1
EndSplineSet
EndChar

StartChar: 00CF
Encoding: 207 207 144
Width: 512
Flags: HW
LayerCount: 2
Fore
SplineSet
384 128 m 1
 384 192 l 1
 320 192 l 1
 320 640 l 1
 384 640 l 1
 384 704 l 1
 128 704 l 1
 128 640 l 1
 192 640 l 1
 192 192 l 1
 128 192 l 1
 128 128 l 1
 384 128 l 1
64 896 m 1
 64 853.333 64 810.667 64 768 c 1
 192 768 l 1
 192 810.667 192 853.333 192 896 c 1
 64 896 l 1
320 896 m 1
 320 853.333 320 810.667 320 768 c 1
 448 768 l 1
 448 810.667 448 853.333 448 896 c 1
 320 896 l 1
EndSplineSet
EndChar

StartChar: 00D0
Encoding: 208 208 145
Width: 512
Flags: HW
LayerCount: 2
Fore
SplineSet
256 448 m 1
 256 512 l 1
 192 512 l 1
 192 704 l 1
 256 704 l 1
 256 640 l 1
 320 640 l 1
 320 512 320 384 320 256 c 1
 256 256 l 1
 256 192 l 1
 192 192 l 1
 192 277.333 192 362.667 192 448 c 1
 256 448 l 1
64 192 m 1
 0 192 l 1
 0 128 l 1
 320 128 l 1
 320 192 l 1
 384 192 l 1
 384 256 l 1
 448 256 l 1
 448 384 448 512 448 640 c 1
 384 640 l 1
 384 704 l 1
 320 704 l 1
 320 768 l 1
 0 768 l 1
 0 704 l 1
 64 704 l 1
 64 512 l 1
 0 512 l 1
 0 448 l 1
 64 448 l 1
 64 362.667 64 277.333 64 192 c 1
EndSplineSet
EndChar

StartChar: 00D1
Encoding: 209 209 146
Width: 512
Flags: HW
LayerCount: 2
Fore
SplineSet
448 832 m 1
 448 896 l 1
 320 896 l 1
 320 832 l 1
 256 832 l 1
 256 896 l 1
 64 896 l 1
 64 832 l 1
 0 832 l 1
 0 768 l 1
 128 768 l 1
 128 832 l 1
 192 832 l 1
 192 768 l 1
 384 768 l 1
 384 832 l 1
 448 832 l 1
0 704 m 1
 0 128 l 1
 128 128 l 1
 128 448 l 1
 192 448 l 1
 192 384 l 1
 256 384 l 1
 256 320 l 1
 320 320 l 1
 320 128 l 1
 448 128 l 1
 448 704 l 1
 320 704 l 1
 320 512 l 1
 256 512 l 1
 256 576 l 1
 192 576 l 1
 192 640 l 1
 128 640 l 1
 128 704 l 1
 0 704 l 1
EndSplineSet
EndChar

StartChar: 00D2
Encoding: 210 210 147
Width: 512
Flags: HW
LayerCount: 2
Fore
SplineSet
256 768 m 1
 256 832 l 1
 192 832 l 1
 192 896 l 1
 64 896 l 1
 64 832 l 1
 128 832 l 1
 128 768 l 1
 256 768 l 1
64 192 m 1
 64 128 l 1
 384 128 l 1
 384 192 l 1
 448 192 l 1
 448 640 l 1
 384 640 l 1
 384 704 l 1
 64 704 l 1
 64 640 l 1
 0 640 l 1
 0 192 l 1
 64 192 l 1
128 192 m 1
 128 640 l 1
 320 640 l 1
 320 192 l 1
 128 192 l 1
EndSplineSet
EndChar

StartChar: 00D3
Encoding: 211 211 148
Width: 512
Flags: HW
LayerCount: 2
Fore
SplineSet
384 832 m 1
 384 896 l 1
 256 896 l 1
 256 832 l 1
 192 832 l 1
 192 768 l 1
 320 768 l 1
 320 832 l 1
 384 832 l 1
64 192 m 1
 64 128 l 1
 384 128 l 1
 384 192 l 1
 448 192 l 1
 448 640 l 1
 384 640 l 1
 384 704 l 1
 64 704 l 1
 64 640 l 1
 0 640 l 1
 0 192 l 1
 64 192 l 1
128 192 m 1
 128 640 l 1
 320 640 l 1
 320 192 l 1
 128 192 l 1
EndSplineSet
EndChar

StartChar: 00D4
Encoding: 212 212 149
Width: 512
Flags: HW
LayerCount: 2
Fore
SplineSet
64 192 m 1
 64 128 l 1
 384 128 l 1
 384 192 l 1
 448 192 l 1
 448 640 l 1
 384 640 l 1
 384 682.667 384 725.333 384 768 c 1
 320 768 l 1
 320 704 l 1
 128 704 l 1
 128 768 l 1
 64 768 l 1
 64 725.333 64 682.667 64 640 c 1
 0 640 l 1
 0 192 l 1
 64 192 l 1
128 192 m 1
 128 640 l 1
 320 640 l 1
 320 192 l 1
 128 192 l 1
128 768 m 1
 320 768 l 1
 320 832 l 1
 256 832 l 1
 256 896 l 1
 192 896 l 1
 192 832 l 1
 128 832 l 1
 128 768 l 1
EndSplineSet
EndChar

StartChar: 00D5
Encoding: 213 213 150
Width: 512
Flags: HW
LayerCount: 2
Fore
SplineSet
448 832 m 1
 448 896 l 1
 320 896 l 1
 320 832 l 1
 256 832 l 1
 256 896 l 1
 64 896 l 1
 64 832 l 1
 0 832 l 1
 0 768 l 1
 128 768 l 1
 128 832 l 1
 192 832 l 1
 192 768 l 1
 384 768 l 1
 384 832 l 1
 448 832 l 1
64 192 m 1
 64 128 l 1
 384 128 l 1
 384 192 l 1
 448 192 l 1
 448 640 l 1
 384 640 l 1
 384 704 l 1
 64 704 l 1
 64 640 l 1
 0 640 l 1
 0 192 l 1
 64 192 l 1
128 192 m 1
 128 640 l 1
 320 640 l 1
 320 192 l 1
 128 192 l 1
EndSplineSet
EndChar

StartChar: 00D6
Encoding: 214 214 151
Width: 512
Flags: HW
LayerCount: 2
Fore
SplineSet
64 192 m 1
 64 128 l 1
 384 128 l 1
 384 192 l 1
 448 192 l 1
 448 640 l 1
 384 640 l 1
 384 704 l 1
 64 704 l 1
 64 640 l 1
 0 640 l 1
 0 192 l 1
 64 192 l 1
128 192 m 1
 128 640 l 1
 320 640 l 1
 320 192 l 1
 128 192 l 1
64 896 m 1
 64 853.333 64 810.667 64 768 c 1
 192 768 l 1
 192 810.667 192 853.333 192 896 c 1
 64 896 l 1
256 896 m 1
 256 853.333 256 810.667 256 768 c 1
 384 768 l 1
 384 810.667 384 853.333 384 896 c 1
 256 896 l 1
EndSplineSet
EndChar

StartChar: 00D7
Encoding: 215 215 152
Width: 512
Flags: HW
LayerCount: 2
Fore
SplineSet
448 256 m 1
 448 320 l 1
 384 320 l 1
 384 384 l 1
 320 384 l 1
 320 448 l 1
 384 448 l 1
 384 512 l 1
 448 512 l 1
 448 576 l 1
 320 576 l 1
 320 512 l 1
 192 512 l 1
 192 576 l 1
 64 576 l 1
 64 512 l 1
 128 512 l 1
 128 448 l 1
 192 448 l 1
 192 384 l 1
 128 384 l 1
 128 320 l 1
 64 320 l 1
 64 256 l 1
 192 256 l 1
 192 320 l 1
 320 320 l 1
 320 256 l 1
 448 256 l 1
EndSplineSet
EndChar

StartChar: 00D8
Encoding: 216 216 153
Width: 512
Flags: HW
LayerCount: 2
Fore
SplineSet
448 704 m 1
 448 768 l 1
 384 768 l 1
 384 704 l 1
 320 704 l 1
 320 640 l 1
 256 640 l 1
 256 597.333 256 554.667 256 512 c 1
 192 512 l 1
 192 469.333 192 426.667 192 384 c 1
 128 384 l 1
 128 704 l 1
 320 704 l 1
 320 768 l 1
 64 768 l 1
 64 704 l 1
 0 704 l 1
 0 256 l 1
 64 256 l 1
 64 192 l 1
 0 192 l 1
 0 128 l 1
 64 128 l 1
 64 192 l 1
 128 192 l 1
 128 128 l 1
 384 128 l 1
 384 192 l 1
 448 192 l 1
 448 640 l 1
 384 640 l 1
 384 704 l 1
 448 704 l 1
128 192 m 1
 128 256 l 1
 192 256 l 1
 192 298.667 192 341.333 192 384 c 1
 256 384 l 1
 256 426.667 256 469.333 256 512 c 1
 320 512 l 1
 320 192 l 1
 128 192 l 1
EndSplineSet
EndChar

StartChar: 00D9
Encoding: 217 217 154
Width: 512
Flags: HW
LayerCount: 2
Fore
SplineSet
256 768 m 1
 256 832 l 1
 192 832 l 1
 192 896 l 1
 64 896 l 1
 64 832 l 1
 128 832 l 1
 128 768 l 1
 256 768 l 1
64 192 m 1
 64 128 l 1
 384 128 l 1
 384 192 l 1
 448 192 l 1
 448 362.667 448 533.333 448 704 c 1
 320 704 l 1
 320 533.333 320 362.667 320 192 c 1
 128 192 l 1
 128 362.667 128 533.333 128 704 c 1
 0 704 l 1
 -0 533.333 0 362.667 0 192 c 1
 64 192 l 1
EndSplineSet
EndChar

StartChar: 00DA
Encoding: 218 218 155
Width: 512
Flags: HW
LayerCount: 2
Fore
SplineSet
384 832 m 1
 384 896 l 1
 256 896 l 1
 256 832 l 1
 192 832 l 1
 192 768 l 1
 320 768 l 1
 320 832 l 1
 384 832 l 1
64 192 m 1
 64 128 l 1
 384 128 l 1
 384 192 l 1
 448 192 l 1
 448 362.667 448 533.333 448 704 c 1
 320 704 l 1
 320 533.333 320 362.667 320 192 c 1
 128 192 l 1
 128 362.667 128 533.333 128 704 c 1
 0 704 l 1
 -0 533.333 0 362.667 0 192 c 1
 64 192 l 1
EndSplineSet
EndChar

StartChar: 00DB
Encoding: 219 219 156
Width: 512
Flags: HW
LayerCount: 2
Fore
SplineSet
64 192 m 1
 64 128 l 1
 384 128 l 1
 384 192 l 1
 448 192 l 1
 448 362.667 448 533.333 448 704 c 1
 384 704 l 1
 384 768 l 1
 320 768 l 1
 320 192 l 1
 128 192 l 1
 128 768 l 1
 64 768 l 1
 64 704 l 1
 0 704 l 1
 -0 533.333 0 362.667 0 192 c 1
 64 192 l 1
128 768 m 1
 320 768 l 1
 320 832 l 1
 256 832 l 1
 256 896 l 1
 192 896 l 1
 192 832 l 1
 128 832 l 1
 128 768 l 1
EndSplineSet
EndChar

StartChar: 00DC
Encoding: 220 220 157
Width: 512
Flags: HW
LayerCount: 2
Fore
SplineSet
64 192 m 1
 64 128 l 1
 384 128 l 1
 384 192 l 1
 448 192 l 1
 448 362.667 448 533.333 448 704 c 1
 320 704 l 1
 320 533.333 320 362.667 320 192 c 1
 128 192 l 1
 128 362.667 128 533.333 128 704 c 1
 0 704 l 1
 -0 533.333 0 362.667 0 192 c 1
 64 192 l 1
64 896 m 1
 64 853.333 64 810.667 64 768 c 1
 192 768 l 1
 192 810.667 192 853.333 192 896 c 1
 64 896 l 1
256 896 m 1
 256 853.333 256 810.667 256 768 c 1
 384 768 l 1
 384 810.667 384 853.333 384 896 c 1
 256 896 l 1
EndSplineSet
EndChar

StartChar: 00DD
Encoding: 221 221 158
Width: 512
Flags: HW
LayerCount: 2
Fore
SplineSet
384 128 m 1
 384 192 l 1
 320 192 l 1
 320 277.333 320 362.667 320 448 c 1
 384 448 l 1
 384 512 l 1
 448 512 l 1
 448 704 l 1
 320 704 l 1
 320 512 l 1
 192 512 l 1
 192 704 l 1
 64 704 l 1
 64 512 l 1
 128 512 l 1
 128 448 l 1
 192 448 l 1
 192 362.667 192 277.333 192 192 c 1
 128 192 l 1
 128 128 l 1
 384 128 l 1
384 832 m 1
 384 896 l 1
 256 896 l 1
 256 832 l 1
 192 832 l 1
 192 768 l 1
 320 768 l 1
 320 832 l 1
 384 832 l 1
EndSplineSet
EndChar

StartChar: 00DE
Encoding: 222 222 159
Width: 512
Flags: HW
LayerCount: 2
Fore
SplineSet
256 128 m 1
 256 192 l 1
 192 192 l 1
 192 256 l 1
 384 256 l 1
 384 320 l 1
 448 320 l 1
 448 405.333 448 490.667 448 576 c 1
 384 576 l 1
 384 640 l 1
 192 640 l 1
 192 704 l 1
 256 704 l 1
 256 768 l 1
 0 768 l 1
 0 704 l 1
 64 704 l 1
 64 533.333 64 362.667 64 192 c 1
 0 192 l 1
 0 128 l 1
 256 128 l 1
192 320 m 1
 192 405.333 192 490.667 192 576 c 1
 320 576 l 1
 320 490.667 320 405.333 320 320 c 1
 192 320 l 1
EndSplineSet
EndChar

StartChar: 00DF
Encoding: 223 223 160
Width: 512
Flags: HW
LayerCount: 2
Fore
SplineSet
64 192 m 1
 0 192 l 1
 0 128 l 1
 192 128 l 1
 192 704 l 1
 320 704 l 1
 320 512 l 1
 256 512 l 1
 256 448 l 1
 320 448 l 1
 320 362.667 320 277.333 320 192 c 1
 256 192 l 1
 256 128 l 1
 384 128 l 1
 384 192 l 1
 448 192 l 1
 448 277.333 448 362.667 448 448 c 1
 384 448 l 1
 384 512 l 1
 448 512 l 1
 448 704 l 1
 384 704 l 1
 384 768 l 1
 128 768 l 1
 128 704 l 1
 64 704 l 1
 64 533.333 64 362.667 64 192 c 1
EndSplineSet
EndChar

StartChar: 00E0
Encoding: 224 224 161
Width: 512
Flags: HW
LayerCount: 2
Fore
SplineSet
448 128 m 1
 448 192 l 1
 384 192 l 1
 384 512 l 1
 320 512 l 1
 320 576 l 1
 64 576 l 1
 64 512 l 1
 256 512 l 1
 256 448 l 1
 64 448 l 1
 64 384 l 1
 0 384 l 1
 0 192 l 1
 64 192 l 1
 64 128 l 1
 256 128 l 1
 256 192 l 1
 128 192 l 1
 128 384 l 1
 256 384 l 1
 256 192 l 1
 320 192 l 1
 320 128 l 1
 448 128 l 1
256 640 m 1
 256 704 l 1
 192 704 l 1
 192 768 l 1
 64 768 l 1
 64 704 l 1
 128 704 l 1
 128 640 l 1
 256 640 l 1
EndSplineSet
EndChar

StartChar: 00E1
Encoding: 225 225 162
Width: 512
Flags: HW
LayerCount: 2
Fore
SplineSet
448 128 m 1
 448 192 l 1
 384 192 l 1
 384 512 l 1
 320 512 l 1
 320 576 l 1
 64 576 l 1
 64 512 l 1
 256 512 l 1
 256 448 l 1
 64 448 l 1
 64 384 l 1
 0 384 l 1
 0 192 l 1
 64 192 l 1
 64 128 l 1
 256 128 l 1
 256 192 l 1
 128 192 l 1
 128 384 l 1
 256 384 l 1
 256 192 l 1
 320 192 l 1
 320 128 l 1
 448 128 l 1
320 704 m 1
 320 768 l 1
 192 768 l 1
 192 704 l 1
 128 704 l 1
 128 640 l 1
 256 640 l 1
 256 704 l 1
 320 704 l 1
EndSplineSet
EndChar

StartChar: 00E2
Encoding: 226 226 163
Width: 512
Flags: HW
LayerCount: 2
Fore
SplineSet
448 128 m 1
 448 192 l 1
 384 192 l 1
 384 512 l 1
 320 512 l 1
 320 576 l 1
 64 576 l 1
 64 512 l 1
 256 512 l 1
 256 448 l 1
 64 448 l 1
 64 384 l 1
 0 384 l 1
 0 192 l 1
 64 192 l 1
 64 128 l 1
 256 128 l 1
 256 192 l 1
 128 192 l 1
 128 384 l 1
 256 384 l 1
 256 192 l 1
 320 192 l 1
 320 128 l 1
 448 128 l 1
384 640 m 1
 384 704 l 1
 320 704 l 1
 320 768 l 1
 256 768 l 1
 256 832 l 1
 192 832 l 1
 192 768 l 1
 128 768 l 1
 128 704 l 1
 64 704 l 1
 64 640 l 1
 192 640 l 1
 192 704 l 1
 256 704 l 1
 256 640 l 1
 384 640 l 1
EndSplineSet
EndChar

StartChar: 00E3
Encoding: 227 227 164
Width: 512
Flags: HW
LayerCount: 2
Fore
SplineSet
448 128 m 1
 448 192 l 1
 384 192 l 1
 384 512 l 1
 320 512 l 1
 320 576 l 1
 64 576 l 1
 64 512 l 1
 256 512 l 1
 256 448 l 1
 64 448 l 1
 64 384 l 1
 0 384 l 1
 0 192 l 1
 64 192 l 1
 64 128 l 1
 256 128 l 1
 256 192 l 1
 128 192 l 1
 128 384 l 1
 256 384 l 1
 256 192 l 1
 320 192 l 1
 320 128 l 1
 448 128 l 1
448 704 m 1
 448 768 l 1
 320 768 l 1
 320 704 l 1
 256 704 l 1
 256 768 l 1
 64 768 l 1
 64 704 l 1
 0 704 l 1
 0 640 l 1
 128 640 l 1
 128 704 l 1
 192 704 l 1
 192 640 l 1
 384 640 l 1
 384 704 l 1
 448 704 l 1
EndSplineSet
EndChar

StartChar: 00E4
Encoding: 228 228 165
Width: 512
Flags: HW
LayerCount: 2
Fore
SplineSet
448 128 m 1
 448 192 l 1
 384 192 l 1
 384 512 l 1
 320 512 l 1
 320 576 l 1
 64 576 l 1
 64 512 l 1
 256 512 l 1
 256 448 l 1
 64 448 l 1
 64 384 l 1
 0 384 l 1
 0 192 l 1
 64 192 l 1
 64 128 l 1
 256 128 l 1
 256 192 l 1
 128 192 l 1
 128 384 l 1
 256 384 l 1
 256 192 l 1
 320 192 l 1
 320 128 l 1
 448 128 l 1
64 768 m 1
 64 725.333 64 682.667 64 640 c 1
 192 640 l 1
 192 682.667 192 725.333 192 768 c 1
 64 768 l 1
256 768 m 1
 256 725.333 256 682.667 256 640 c 1
 384 640 l 1
 384 682.667 384 725.333 384 768 c 1
 256 768 l 1
EndSplineSet
EndChar

StartChar: 00E5
Encoding: 229 229 166
Width: 512
Flags: HW
LayerCount: 2
Fore
SplineSet
448 128 m 1
 448 192 l 1
 384 192 l 1
 384 512 l 1
 320 512 l 1
 320 576 l 1
 64 576 l 1
 64 512 l 1
 256 512 l 1
 256 448 l 1
 64 448 l 1
 64 384 l 1
 0 384 l 1
 0 192 l 1
 64 192 l 1
 64 128 l 1
 256 128 l 1
 256 192 l 1
 128 192 l 1
 128 384 l 1
 256 384 l 1
 256 192 l 1
 320 192 l 1
 320 128 l 1
 448 128 l 1
384 704 m 1
 384 768 l 1
 320 768 l 1
 320 832 l 1
 128 832 l 1
 128 768 l 1
 64 768 l 1
 64 704 l 1
 128 704 l 1
 128 640 l 1
 320 640 l 1
 320 704 l 1
 384 704 l 1
192 704 m 1
 192 768 l 1
 256 768 l 1
 256 704 l 1
 192 704 l 1
EndSplineSet
EndChar

StartChar: 00E6
Encoding: 230 230 167
Width: 512
Flags: HW
LayerCount: 2
Fore
SplineSet
448 128 m 1
 448 192 l 1
 320 192 l 1
 320 234.667 320 277.333 320 320 c 1
 448 320 l 1
 448 512 l 1
 384 512 l 1
 384 576 l 1
 256 576 l 1
 256 512 l 1
 128 512 l 1
 128 576 l 1
 0 576 l 1
 0 512 l 1
 64 512 l 1
 64 448 l 1
 128 448 l 1
 128 384 l 1
 64 384 l 1
 64 320 l 1
 0 320 l 1
 -0 277.333 0 234.667 0 192 c 1
 64 192 l 1
 64 128 l 1
 192 128 l 1
 192 192 l 1
 128 192 l 1
 128 234.667 128 277.333 128 320 c 1
 192 320 l 1
 192 277.333 192 234.667 192 192 c 1
 256 192 l 1
 256 128 l 1
 448 128 l 1
256 384 m 1
 256 426.667 256 469.333 256 512 c 1
 320 512 l 1
 320 469.333 320 426.667 320 384 c 1
 256 384 l 1
EndSplineSet
EndChar

StartChar: 00E7
Encoding: 231 231 168
Width: 512
Flags: HW
LayerCount: 2
Fore
SplineSet
384 0 m 1
 384 64 l 1
 320 64 l 1
 320 128 l 1
 384 128 l 1
 384 192 l 1
 448 192 l 1
 448 256 l 1
 320 256 l 1
 320 192 l 1
 128 192 l 1
 128 512 l 1
 320 512 l 1
 320 448 l 1
 448 448 l 1
 448 512 l 1
 384 512 l 1
 384 576 l 1
 64 576 l 1
 64 512 l 1
 0 512 l 1
 0 192 l 1
 64 192 l 1
 64 128 l 1
 192 128 l 1
 192 64 l 1
 256 64 l 1
 256 0 l 1
 128 0 l 1
 128 -64 l 1
 320 -64 l 1
 320 0 l 1
 384 0 l 1
EndSplineSet
EndChar

StartChar: 00E8
Encoding: 232 232 169
Width: 512
Flags: HW
LayerCount: 2
Fore
SplineSet
448 192 m 1
 448 256 l 1
 320 256 l 1
 320 192 l 1
 128 192 l 1
 128 384 l 1
 448 384 l 1
 448 426.667 448 469.333 448 512 c 1
 384 512 l 1
 384 576 l 1
 64 576 l 1
 64 512 l 1
 0 512 l 1
 0 192 l 1
 64 192 l 1
 64 128 l 1
 384 128 l 1
 384 192 l 1
 448 192 l 1
256 640 m 1
 256 704 l 1
 192 704 l 1
 192 768 l 1
 64 768 l 1
 64 704 l 1
 128 704 l 1
 128 640 l 1
 256 640 l 1
128 448 m 1
 128 512 l 1
 320 512 l 1
 320 448 l 1
 128 448 l 1
EndSplineSet
EndChar

StartChar: 00E9
Encoding: 233 233 170
Width: 512
Flags: HW
LayerCount: 2
Fore
SplineSet
448 192 m 1
 448 256 l 1
 320 256 l 1
 320 192 l 1
 128 192 l 1
 128 384 l 1
 448 384 l 1
 448 426.667 448 469.333 448 512 c 1
 384 512 l 1
 384 576 l 1
 64 576 l 1
 64 512 l 1
 0 512 l 1
 0 192 l 1
 64 192 l 1
 64 128 l 1
 384 128 l 1
 384 192 l 1
 448 192 l 1
384 704 m 1
 384 768 l 1
 256 768 l 1
 256 704 l 1
 192 704 l 1
 192 640 l 1
 320 640 l 1
 320 704 l 1
 384 704 l 1
128 448 m 1
 128 512 l 1
 320 512 l 1
 320 448 l 1
 128 448 l 1
EndSplineSet
EndChar

StartChar: 00EA
Encoding: 234 234 171
Width: 512
Flags: HW
LayerCount: 2
Fore
SplineSet
448 192 m 1
 448 256 l 1
 320 256 l 1
 320 192 l 1
 128 192 l 1
 128 384 l 1
 448 384 l 1
 448 426.667 448 469.333 448 512 c 1
 384 512 l 1
 384 576 l 1
 64 576 l 1
 64 512 l 1
 0 512 l 1
 0 192 l 1
 64 192 l 1
 64 128 l 1
 384 128 l 1
 384 192 l 1
 448 192 l 1
384 640 m 1
 384 704 l 1
 320 704 l 1
 320 768 l 1
 256 768 l 1
 256 832 l 1
 192 832 l 1
 192 768 l 1
 128 768 l 1
 128 704 l 1
 64 704 l 1
 64 640 l 1
 192 640 l 1
 192 704 l 1
 256 704 l 1
 256 640 l 1
 384 640 l 1
128 448 m 1
 128 512 l 1
 320 512 l 1
 320 448 l 1
 128 448 l 1
EndSplineSet
EndChar

StartChar: 00EB
Encoding: 235 235 172
Width: 512
Flags: HW
LayerCount: 2
Fore
SplineSet
448 192 m 1
 448 256 l 1
 320 256 l 1
 320 192 l 1
 128 192 l 1
 128 384 l 1
 448 384 l 1
 448 426.667 448 469.333 448 512 c 1
 384 512 l 1
 384 576 l 1
 64 576 l 1
 64 512 l 1
 0 512 l 1
 0 192 l 1
 64 192 l 1
 64 128 l 1
 384 128 l 1
 384 192 l 1
 448 192 l 1
128 448 m 1
 128 512 l 1
 320 512 l 1
 320 448 l 1
 128 448 l 1
64 768 m 1
 64 725.333 64 682.667 64 640 c 1
 192 640 l 1
 192 682.667 192 725.333 192 768 c 1
 64 768 l 1
256 768 m 1
 256 725.333 256 682.667 256 640 c 1
 384 640 l 1
 384 682.667 384 725.333 384 768 c 1
 256 768 l 1
EndSplineSet
EndChar

StartChar: 00EC
Encoding: 236 236 173
Width: 512
Flags: HW
LayerCount: 2
Fore
SplineSet
384 128 m 1
 384 192 l 1
 320 192 l 1
 320 320 320 448 320 576 c 1
 128 576 l 1
 128 512 l 1
 192 512 l 1
 192 192 l 1
 128 192 l 1
 128 128 l 1
 384 128 l 1
320 640 m 1
 320 704 l 1
 256 704 l 1
 256 768 l 1
 128 768 l 1
 128 704 l 1
 192 704 l 1
 192 640 l 1
 320 640 l 1
EndSplineSet
EndChar

StartChar: 00ED
Encoding: 237 237 174
Width: 512
Flags: HW
LayerCount: 2
Fore
SplineSet
384 128 m 1
 384 192 l 1
 320 192 l 1
 320 320 320 448 320 576 c 1
 128 576 l 1
 128 512 l 1
 192 512 l 1
 192 192 l 1
 128 192 l 1
 128 128 l 1
 384 128 l 1
384 704 m 1
 384 768 l 1
 256 768 l 1
 256 704 l 1
 192 704 l 1
 192 640 l 1
 320 640 l 1
 320 704 l 1
 384 704 l 1
EndSplineSet
EndChar

StartChar: 00EE
Encoding: 238 238 175
Width: 512
Flags: HW
LayerCount: 2
Fore
SplineSet
384 128 m 1
 384 192 l 1
 320 192 l 1
 320 320 320 448 320 576 c 1
 128 576 l 1
 128 512 l 1
 192 512 l 1
 192 192 l 1
 128 192 l 1
 128 128 l 1
 384 128 l 1
384 640 m 1
 384 704 l 1
 320 704 l 1
 320 768 l 1
 256 768 l 1
 256 832 l 1
 192 832 l 1
 192 768 l 1
 128 768 l 1
 128 704 l 1
 64 704 l 1
 64 640 l 1
 192 640 l 1
 192 704 l 1
 256 704 l 1
 256 640 l 1
 384 640 l 1
EndSplineSet
EndChar

StartChar: 00EF
Encoding: 239 239 176
Width: 512
Flags: HW
LayerCount: 2
Fore
SplineSet
384 128 m 1
 384 192 l 1
 320 192 l 1
 320 320 320 448 320 576 c 1
 128 576 l 1
 128 512 l 1
 192 512 l 1
 192 192 l 1
 128 192 l 1
 128 128 l 1
 384 128 l 1
64 768 m 1
 64 725.333 64 682.667 64 640 c 1
 192 640 l 1
 192 682.667 192 725.333 192 768 c 1
 64 768 l 1
320 768 m 1
 320 725.333 320 682.667 320 640 c 1
 448 640 l 1
 448 682.667 448 725.333 448 768 c 1
 320 768 l 1
EndSplineSet
EndChar

StartChar: 00F0
Encoding: 240 240 177
Width: 512
Flags: HW
LayerCount: 2
Fore
SplineSet
448 704 m 1
 448 768 l 1
 320 768 l 1
 320 704 l 1
 256 704 l 1
 256 768 l 1
 64 768 l 1
 64 704 l 1
 192 704 l 1
 192 640 l 1
 128 640 l 1
 128 576 l 1
 320 576 l 1
 320 512 l 1
 64 512 l 1
 64 448 l 1
 0 448 l 1
 -0 362.667 0 277.333 0 192 c 1
 64 192 l 1
 64 128 l 1
 384 128 l 1
 384 192 l 1
 448 192 l 1
 448 320 448 448 448 576 c 1
 384 576 l 1
 384 618.667 384 661.333 384 704 c 1
 448 704 l 1
128 192 m 1
 128 277.333 128 362.667 128 448 c 1
 320 448 l 1
 320 362.667 320 277.333 320 192 c 1
 128 192 l 1
EndSplineSet
EndChar

StartChar: 00F1
Encoding: 241 241 178
Width: 512
Flags: HW
LayerCount: 2
Fore
SplineSet
448 704 m 1
 448 768 l 1
 320 768 l 1
 320 704 l 1
 256 704 l 1
 256 768 l 1
 64 768 l 1
 64 704 l 1
 0 704 l 1
 0 640 l 1
 128 640 l 1
 128 704 l 1
 192 704 l 1
 192 640 l 1
 384 640 l 1
 384 704 l 1
 448 704 l 1
64 512 m 1
 64 384 64 256 64 128 c 1
 192 128 l 1
 192 256 192 384 192 512 c 1
 128 512 l 1
 128 576 l 1
 0 576 l 1
 0 512 l 1
 64 512 l 1
320 512 m 1
 320 384 320 256 320 128 c 1
 448 128 l 1
 448 256 448 384 448 512 c 1
 384 512 l 1
 384 576 l 1
 192 576 l 1
 192 512 l 1
 320 512 l 1
EndSplineSet
EndChar

StartChar: 00F2
Encoding: 242 242 179
Width: 512
Flags: HW
LayerCount: 2
Fore
SplineSet
256 640 m 1
 256 704 l 1
 192 704 l 1
 192 768 l 1
 64 768 l 1
 64 704 l 1
 128 704 l 1
 128 640 l 1
 256 640 l 1
64 192 m 1
 64 128 l 1
 384 128 l 1
 384 192 l 1
 448 192 l 1
 448 512 l 1
 384 512 l 1
 384 576 l 1
 64 576 l 1
 64 512 l 1
 0 512 l 1
 0 192 l 1
 64 192 l 1
128 192 m 1
 128 512 l 1
 320 512 l 1
 320 192 l 1
 128 192 l 1
EndSplineSet
EndChar

StartChar: 00F3
Encoding: 243 243 180
Width: 512
Flags: HW
LayerCount: 2
Fore
SplineSet
384 704 m 1
 384 768 l 1
 256 768 l 1
 256 704 l 1
 192 704 l 1
 192 640 l 1
 320 640 l 1
 320 704 l 1
 384 704 l 1
64 192 m 1
 64 128 l 1
 384 128 l 1
 384 192 l 1
 448 192 l 1
 448 512 l 1
 384 512 l 1
 384 576 l 1
 64 576 l 1
 64 512 l 1
 0 512 l 1
 0 192 l 1
 64 192 l 1
128 192 m 1
 128 512 l 1
 320 512 l 1
 320 192 l 1
 128 192 l 1
EndSplineSet
EndChar

StartChar: 00F4
Encoding: 244 244 181
Width: 512
Flags: HW
LayerCount: 2
Fore
SplineSet
384 640 m 1
 384 704 l 1
 320 704 l 1
 320 768 l 1
 256 768 l 1
 256 832 l 1
 192 832 l 1
 192 768 l 1
 128 768 l 1
 128 704 l 1
 64 704 l 1
 64 640 l 1
 192 640 l 1
 192 704 l 1
 256 704 l 1
 256 640 l 1
 384 640 l 1
64 192 m 1
 64 128 l 1
 384 128 l 1
 384 192 l 1
 448 192 l 1
 448 512 l 1
 384 512 l 1
 384 576 l 1
 64 576 l 1
 64 512 l 1
 0 512 l 1
 0 192 l 1
 64 192 l 1
128 192 m 1
 128 512 l 1
 320 512 l 1
 320 192 l 1
 128 192 l 1
EndSplineSet
EndChar

StartChar: 00F5
Encoding: 245 245 182
Width: 512
Flags: HW
LayerCount: 2
Fore
SplineSet
448 704 m 1
 448 768 l 1
 320 768 l 1
 320 704 l 1
 256 704 l 1
 256 768 l 1
 64 768 l 1
 64 704 l 1
 0 704 l 1
 0 640 l 1
 128 640 l 1
 128 704 l 1
 192 704 l 1
 192 640 l 1
 384 640 l 1
 384 704 l 1
 448 704 l 1
64 192 m 1
 64 128 l 1
 384 128 l 1
 384 192 l 1
 448 192 l 1
 448 512 l 1
 384 512 l 1
 384 576 l 1
 64 576 l 1
 64 512 l 1
 0 512 l 1
 0 192 l 1
 64 192 l 1
128 192 m 1
 128 512 l 1
 320 512 l 1
 320 192 l 1
 128 192 l 1
EndSplineSet
EndChar

StartChar: 00F6
Encoding: 246 246 183
Width: 512
Flags: HW
LayerCount: 2
Fore
SplineSet
64 192 m 1
 64 128 l 1
 384 128 l 1
 384 192 l 1
 448 192 l 1
 448 512 l 1
 384 512 l 1
 384 576 l 1
 64 576 l 1
 64 512 l 1
 0 512 l 1
 0 192 l 1
 64 192 l 1
128 192 m 1
 128 512 l 1
 320 512 l 1
 320 192 l 1
 128 192 l 1
64 768 m 1
 64 725.333 64 682.667 64 640 c 1
 192 640 l 1
 192 682.667 192 725.333 192 768 c 1
 64 768 l 1
256 768 m 1
 256 725.333 256 682.667 256 640 c 1
 384 640 l 1
 384 682.667 384 725.333 384 768 c 1
 256 768 l 1
EndSplineSet
EndChar

StartChar: 00F7
Encoding: 247 247 184
Width: 512
Flags: HW
LayerCount: 2
Fore
SplineSet
448 384 m 1
 448 448 l 1
 64 448 l 1
 64 384 l 1
 448 384 l 1
192 320 m 1
 192 277.333 192 234.667 192 192 c 1
 320 192 l 1
 320 234.667 320 277.333 320 320 c 1
 192 320 l 1
192 640 m 1
 192 597.333 192 554.667 192 512 c 1
 320 512 l 1
 320 554.667 320 597.333 320 640 c 1
 192 640 l 1
EndSplineSet
EndChar

StartChar: 00F8
Encoding: 248 248 185
Width: 512
Flags: HW
LayerCount: 2
Fore
SplineSet
448 512 m 1
 448 576 l 1
 384 576 l 1
 384 512 l 1
 320 512 l 1
 320 448 l 1
 256 448 l 1
 256 384 l 1
 192 384 l 1
 192 320 l 1
 128 320 l 1
 128 512 l 1
 320 512 l 1
 320 576 l 1
 64 576 l 1
 64 512 l 1
 0 512 l 1
 -0 426.667 0 341.333 0 256 c 1
 64 256 l 1
 64 192 l 1
 0 192 l 1
 0 128 l 1
 64 128 l 1
 64 192 l 1
 128 192 l 1
 128 128 l 1
 384 128 l 1
 384 192 l 1
 448 192 l 1
 448 277.333 448 362.667 448 448 c 1
 384 448 l 1
 384 512 l 1
 448 512 l 1
128 192 m 1
 128 256 l 1
 192 256 l 1
 192 320 l 1
 256 320 l 1
 256 384 l 1
 320 384 l 1
 320 192 l 1
 128 192 l 1
EndSplineSet
EndChar

StartChar: 00F9
Encoding: 249 249 186
Width: 512
Flags: HW
LayerCount: 2
Fore
SplineSet
448 128 m 1
 448 192 l 1
 384 192 l 1
 384 320 384 448 384 576 c 1
 256 576 l 1
 256 448 256 320 256 192 c 1
 128 192 l 1
 128 320 128 448 128 576 c 1
 0 576 l 1
 -0 448 0 320 0 192 c 1
 64 192 l 1
 64 128 l 1
 256 128 l 1
 256 192 l 1
 320 192 l 1
 320 128 l 1
 448 128 l 1
256 640 m 1
 256 704 l 1
 192 704 l 1
 192 768 l 1
 64 768 l 1
 64 704 l 1
 128 704 l 1
 128 640 l 1
 256 640 l 1
EndSplineSet
EndChar

StartChar: 00FA
Encoding: 250 250 187
Width: 512
Flags: HW
LayerCount: 2
Fore
SplineSet
448 128 m 1
 448 192 l 1
 384 192 l 1
 384 320 384 448 384 576 c 1
 256 576 l 1
 256 448 256 320 256 192 c 1
 128 192 l 1
 128 320 128 448 128 576 c 1
 0 576 l 1
 -0 448 0 320 0 192 c 1
 64 192 l 1
 64 128 l 1
 256 128 l 1
 256 192 l 1
 320 192 l 1
 320 128 l 1
 448 128 l 1
320 704 m 1
 320 768 l 1
 192 768 l 1
 192 704 l 1
 128 704 l 1
 128 640 l 1
 256 640 l 1
 256 704 l 1
 320 704 l 1
EndSplineSet
EndChar

StartChar: 00FB
Encoding: 251 251 188
Width: 512
Flags: HW
LayerCount: 2
Fore
SplineSet
448 128 m 1
 448 192 l 1
 384 192 l 1
 384 320 384 448 384 576 c 1
 256 576 l 1
 256 448 256 320 256 192 c 1
 128 192 l 1
 128 320 128 448 128 576 c 1
 0 576 l 1
 -0 448 0 320 0 192 c 1
 64 192 l 1
 64 128 l 1
 256 128 l 1
 256 192 l 1
 320 192 l 1
 320 128 l 1
 448 128 l 1
384 640 m 1
 384 704 l 1
 320 704 l 1
 320 768 l 1
 256 768 l 1
 256 832 l 1
 192 832 l 1
 192 768 l 1
 128 768 l 1
 128 704 l 1
 64 704 l 1
 64 640 l 1
 192 640 l 1
 192 704 l 1
 256 704 l 1
 256 640 l 1
 384 640 l 1
EndSplineSet
EndChar

StartChar: 00FC
Encoding: 252 252 189
Width: 512
Flags: HW
LayerCount: 2
Fore
SplineSet
448 128 m 1
 448 192 l 1
 384 192 l 1
 384 320 384 448 384 576 c 1
 256 576 l 1
 256 448 256 320 256 192 c 1
 128 192 l 1
 128 320 128 448 128 576 c 1
 0 576 l 1
 -0 448 0 320 0 192 c 1
 64 192 l 1
 64 128 l 1
 256 128 l 1
 256 192 l 1
 320 192 l 1
 320 128 l 1
 448 128 l 1
0 768 m 1
 -0 725.333 0 682.667 0 640 c 1
 128 640 l 1
 128 682.667 128 725.333 128 768 c 1
 0 768 l 1
256 768 m 1
 256 725.333 256 682.667 256 640 c 1
 384 640 l 1
 384 682.667 384 725.333 384 768 c 1
 256 768 l 1
EndSplineSet
EndChar

StartChar: 00FD
Encoding: 253 253 190
Width: 512
Flags: HW
LayerCount: 2
Fore
SplineSet
384 704 m 1
 384 768 l 1
 256 768 l 1
 256 704 l 1
 192 704 l 1
 192 640 l 1
 320 640 l 1
 320 704 l 1
 384 704 l 1
320 0 m 1
 384 0 l 1
 384 64 l 1
 448 64 l 1
 448 234.667 448 405.333 448 576 c 1
 320 576 l 1
 320 448 320 320 320 192 c 1
 128 192 l 1
 128 320 128 448 128 576 c 1
 0 576 l 1
 -0 448 0 320 0 192 c 1
 64 192 l 1
 64 128 l 1
 320 128 l 1
 320 64 l 1
 256 64 l 1
 256 0 l 1
 0 0 l 1
 0 -64 l 1
 320 -64 l 1
 320 0 l 1
EndSplineSet
EndChar

StartChar: 00FE
Encoding: 254 254 191
Width: 512
Flags: HW
LayerCount: 2
Fore
SplineSet
256 -64 m 1
 256 0 l 1
 192 0 l 1
 192 42.6667 192 85.3333 192 128 c 1
 384 128 l 1
 384 192 l 1
 448 192 l 1
 448 512 l 1
 384 512 l 1
 384 576 l 1
 192 576 l 1
 192 768 l 1
 0 768 l 1
 0 704 l 1
 64 704 l 1
 64 0 l 1
 0 0 l 1
 0 -64 l 1
 256 -64 l 1
192 192 m 1
 192 512 l 1
 320 512 l 1
 320 192 l 1
 192 192 l 1
EndSplineSet
EndChar

StartChar: 00FF
Encoding: 255 255 192
Width: 512
Flags: HW
LayerCount: 2
Fore
SplineSet
320 0 m 1
 384 0 l 1
 384 64 l 1
 448 64 l 1
 448 234.667 448 405.333 448 576 c 1
 320 576 l 1
 320 448 320 320 320 192 c 1
 128 192 l 1
 128 320 128 448 128 576 c 1
 0 576 l 1
 -0 448 0 320 0 192 c 1
 64 192 l 1
 64 128 l 1
 320 128 l 1
 320 64 l 1
 256 64 l 1
 256 0 l 1
 0 0 l 1
 0 -64 l 1
 320 -64 l 1
 320 0 l 1
64 768 m 1
 64 725.333 64 682.667 64 640 c 1
 192 640 l 1
 192 682.667 192 725.333 192 768 c 1
 64 768 l 1
256 768 m 1
 256 725.333 256 682.667 256 640 c 1
 384 640 l 1
 384 682.667 384 725.333 384 768 c 1
 256 768 l 1
EndSplineSet
EndChar

StartChar: 0100
Encoding: 256 256 193
Width: 512
Flags: HW
LayerCount: 2
Fore
SplineSet
384 768 m 1
 384 832 l 1
 64 832 l 1
 64 768 l 1
 384 768 l 1
0 512 m 1
 -0 384 0 256 0 128 c 1
 128 128 l 1
 128 320 l 1
 320 320 l 1
 320 128 l 1
 448 128 l 1
 448 256 448 384 448 512 c 1
 384 512 l 1
 384 576 l 1
 320 576 l 1
 320 640 l 1
 256 640 l 1
 256 704 l 1
 192 704 l 1
 192 640 l 1
 128 640 l 1
 128 576 l 1
 64 576 l 1
 64 512 l 1
 0 512 l 1
128 384 m 1
 128 426.667 128 469.333 128 512 c 1
 192 512 l 1
 192 576 l 1
 256 576 l 1
 256 512 l 1
 320 512 l 1
 320 469.333 320 426.667 320 384 c 1
 128 384 l 1
EndSplineSet
EndChar

StartChar: 0101
Encoding: 257 257 194
Width: 512
Flags: HW
LayerCount: 2
Fore
SplineSet
448 128 m 1
 448 192 l 1
 384 192 l 1
 384 512 l 1
 320 512 l 1
 320 576 l 1
 64 576 l 1
 64 512 l 1
 256 512 l 1
 256 448 l 1
 64 448 l 1
 64 384 l 1
 0 384 l 1
 0 192 l 1
 64 192 l 1
 64 128 l 1
 256 128 l 1
 256 192 l 1
 128 192 l 1
 128 384 l 1
 256 384 l 1
 256 192 l 1
 320 192 l 1
 320 128 l 1
 448 128 l 1
384 640 m 1
 384 704 l 1
 64 704 l 1
 64 640 l 1
 384 640 l 1
EndSplineSet
EndChar

StartChar: 0102
Encoding: 258 258 195
Width: 512
Flags: HW
LayerCount: 2
Fore
SplineSet
384 832 m 1
 384 896 l 1
 256 896 l 1
 256 832 l 1
 192 832 l 1
 192 896 l 1
 64 896 l 1
 64 832 l 1
 128 832 l 1
 128 768 l 1
 320 768 l 1
 320 832 l 1
 384 832 l 1
0 512 m 1
 -0 384 0 256 0 128 c 1
 128 128 l 1
 128 320 l 1
 320 320 l 1
 320 128 l 1
 448 128 l 1
 448 256 448 384 448 512 c 1
 384 512 l 1
 384 576 l 1
 320 576 l 1
 320 640 l 1
 256 640 l 1
 256 704 l 1
 192 704 l 1
 192 640 l 1
 128 640 l 1
 128 576 l 1
 64 576 l 1
 64 512 l 1
 0 512 l 1
128 384 m 1
 128 426.667 128 469.333 128 512 c 1
 192 512 l 1
 192 576 l 1
 256 576 l 1
 256 512 l 1
 320 512 l 1
 320 469.333 320 426.667 320 384 c 1
 128 384 l 1
EndSplineSet
EndChar

StartChar: 0103
Encoding: 259 259 196
Width: 512
Flags: HW
LayerCount: 2
Fore
SplineSet
448 128 m 1
 448 192 l 1
 384 192 l 1
 384 512 l 1
 320 512 l 1
 320 576 l 1
 64 576 l 1
 64 512 l 1
 256 512 l 1
 256 448 l 1
 64 448 l 1
 64 384 l 1
 0 384 l 1
 0 192 l 1
 64 192 l 1
 64 128 l 1
 256 128 l 1
 256 192 l 1
 128 192 l 1
 128 384 l 1
 256 384 l 1
 256 192 l 1
 320 192 l 1
 320 128 l 1
 448 128 l 1
384 704 m 1
 384 768 l 1
 256 768 l 1
 256 704 l 1
 192 704 l 1
 192 768 l 1
 64 768 l 1
 64 704 l 1
 128 704 l 1
 128 640 l 1
 320 640 l 1
 320 704 l 1
 384 704 l 1
EndSplineSet
EndChar

StartChar: 0104
Encoding: 260 260 197
Width: 512
Flags: HW
LayerCount: 2
Fore
SplineSet
448 -64 m 1
 448 0 l 1
 320 0 l 1
 320 64 l 1
 384 64 l 1
 384 128 l 1
 448 128 l 1
 448 576 l 1
 384 576 l 1
 384 640 l 1
 320 640 l 1
 320 704 l 1
 256 704 l 1
 256 768 l 1
 192 768 l 1
 192 704 l 1
 128 704 l 1
 128 640 l 1
 64 640 l 1
 64 576 l 1
 0 576 l 1
 0 128 l 1
 128 128 l 1
 128 213.333 128 298.667 128 384 c 1
 320 384 l 1
 320 298.667 320 213.333 320 128 c 1
 256 128 l 1
 256 64 l 1
 192 64 l 1
 192 0 l 1
 256 0 l 1
 256 -64 l 1
 448 -64 l 1
128 448 m 1
 128 490.667 128 533.333 128 576 c 1
 192 576 l 1
 192 640 l 1
 256 640 l 1
 256 576 l 1
 320 576 l 1
 320 533.333 320 490.667 320 448 c 1
 128 448 l 1
EndSplineSet
EndChar

StartChar: 0105
Encoding: 261 261 198
Width: 512
Flags: HW
LayerCount: 2
Fore
SplineSet
448 -64 m 1
 448 0 l 1
 320 0 l 1
 320 64 l 1
 384 64 l 1
 384 128 l 1
 448 128 l 1
 448 192 l 1
 384 192 l 1
 384 512 l 1
 320 512 l 1
 320 576 l 1
 64 576 l 1
 64 512 l 1
 256 512 l 1
 256 448 l 1
 64 448 l 1
 64 384 l 1
 0 384 l 1
 0 192 l 1
 64 192 l 1
 64 128 l 1
 256 128 l 1
 256 64 l 1
 192 64 l 1
 192 0 l 1
 256 0 l 1
 256 -64 l 1
 448 -64 l 1
256 128 m 1
 256 192 l 1
 128 192 l 1
 128 384 l 1
 256 384 l 1
 256 192 l 1
 320 192 l 1
 320 128 l 1
 256 128 l 1
EndSplineSet
EndChar

StartChar: 0106
Encoding: 262 262 199
Width: 512
Flags: HW
LayerCount: 2
Fore
SplineSet
384 832 m 1
 384 896 l 1
 256 896 l 1
 256 832 l 1
 192 832 l 1
 192 768 l 1
 320 768 l 1
 320 832 l 1
 384 832 l 1
128 192 m 1
 128 128 l 1
 384 128 l 1
 384 192 l 1
 448 192 l 1
 448 234.667 448 277.333 448 320 c 1
 384 320 l 1
 384 256 l 1
 320 256 l 1
 320 192 l 1
 192 192 l 1
 192 256 l 1
 128 256 l 1
 128 576 l 1
 192 576 l 1
 192 640 l 1
 320 640 l 1
 320 576 l 1
 384 576 l 1
 384 512 l 1
 448 512 l 1
 448 554.667 448 597.333 448 640 c 1
 384 640 l 1
 384 704 l 1
 128 704 l 1
 128 640 l 1
 64 640 l 1
 64 576 l 1
 0 576 l 1
 0 256 l 1
 64 256 l 1
 64 192 l 1
 128 192 l 1
EndSplineSet
EndChar

StartChar: 0107
Encoding: 263 263 200
Width: 512
Flags: HW
LayerCount: 2
Fore
SplineSet
448 192 m 1
 448 256 l 1
 320 256 l 1
 320 192 l 1
 128 192 l 1
 128 512 l 1
 320 512 l 1
 320 448 l 1
 448 448 l 1
 448 512 l 1
 384 512 l 1
 384 576 l 1
 64 576 l 1
 64 512 l 1
 0 512 l 1
 0 192 l 1
 64 192 l 1
 64 128 l 1
 384 128 l 1
 384 192 l 1
 448 192 l 1
384 704 m 1
 384 768 l 1
 256 768 l 1
 256 704 l 1
 192 704 l 1
 192 640 l 1
 320 640 l 1
 320 704 l 1
 384 704 l 1
EndSplineSet
EndChar

StartChar: 0108
Encoding: 264 264 201
Width: 512
Flags: HW
LayerCount: 2
Fore
SplineSet
128 192 m 1
 128 128 l 1
 384 128 l 1
 384 192 l 1
 448 192 l 1
 448 234.667 448 277.333 448 320 c 1
 384 320 l 1
 384 256 l 1
 320 256 l 1
 320 192 l 1
 192 192 l 1
 192 256 l 1
 128 256 l 1
 128 576 l 1
 192 576 l 1
 192 640 l 1
 320 640 l 1
 320 576 l 1
 384 576 l 1
 384 512 l 1
 448 512 l 1
 448 554.667 448 597.333 448 640 c 1
 384 640 l 1
 384 682.667 384 725.333 384 768 c 1
 320 768 l 1
 320 704 l 1
 128 704 l 1
 128 640 l 1
 64 640 l 1
 64 576 l 1
 0 576 l 1
 0 256 l 1
 64 256 l 1
 64 192 l 1
 128 192 l 1
128 704 m 1
 128 768 l 1
 64 768 l 1
 64 704 l 1
 128 704 l 1
128 768 m 1
 320 768 l 1
 320 832 l 1
 256 832 l 1
 256 896 l 1
 192 896 l 1
 192 832 l 1
 128 832 l 1
 128 768 l 1
EndSplineSet
EndChar

StartChar: 0109
Encoding: 265 265 202
Width: 512
Flags: HW
LayerCount: 2
Fore
SplineSet
448 192 m 1
 448 256 l 1
 320 256 l 1
 320 192 l 1
 128 192 l 1
 128 512 l 1
 320 512 l 1
 320 448 l 1
 448 448 l 1
 448 512 l 1
 384 512 l 1
 384 576 l 1
 64 576 l 1
 64 512 l 1
 0 512 l 1
 0 192 l 1
 64 192 l 1
 64 128 l 1
 384 128 l 1
 384 192 l 1
 448 192 l 1
384 640 m 1
 384 704 l 1
 320 704 l 1
 320 768 l 1
 256 768 l 1
 256 832 l 1
 192 832 l 1
 192 768 l 1
 128 768 l 1
 128 704 l 1
 64 704 l 1
 64 640 l 1
 192 640 l 1
 192 704 l 1
 256 704 l 1
 256 640 l 1
 384 640 l 1
EndSplineSet
EndChar

StartChar: 010A
Encoding: 266 266 203
Width: 512
Flags: HW
LayerCount: 2
Fore
SplineSet
128 192 m 1
 128 128 l 1
 384 128 l 1
 384 192 l 1
 448 192 l 1
 448 234.667 448 277.333 448 320 c 1
 384 320 l 1
 384 256 l 1
 320 256 l 1
 320 192 l 1
 192 192 l 1
 192 256 l 1
 128 256 l 1
 128 576 l 1
 192 576 l 1
 192 640 l 1
 320 640 l 1
 320 576 l 1
 384 576 l 1
 384 512 l 1
 448 512 l 1
 448 554.667 448 597.333 448 640 c 1
 384 640 l 1
 384 704 l 1
 128 704 l 1
 128 640 l 1
 64 640 l 1
 64 576 l 1
 0 576 l 1
 0 256 l 1
 64 256 l 1
 64 192 l 1
 128 192 l 1
192 896 m 1
 192 853.333 192 810.667 192 768 c 1
 320 768 l 1
 320 810.667 320 853.333 320 896 c 1
 192 896 l 1
EndSplineSet
EndChar

StartChar: 010B
Encoding: 267 267 204
Width: 512
Flags: HW
LayerCount: 2
Fore
SplineSet
448 192 m 1
 448 256 l 1
 320 256 l 1
 320 192 l 1
 128 192 l 1
 128 512 l 1
 320 512 l 1
 320 448 l 1
 448 448 l 1
 448 512 l 1
 384 512 l 1
 384 576 l 1
 64 576 l 1
 64 512 l 1
 0 512 l 1
 0 192 l 1
 64 192 l 1
 64 128 l 1
 384 128 l 1
 384 192 l 1
 448 192 l 1
128 768 m 1
 128 725.333 128 682.667 128 640 c 1
 256 640 l 1
 256 682.667 256 725.333 256 768 c 1
 128 768 l 1
EndSplineSet
EndChar

StartChar: 010C
Encoding: 268 268 205
Width: 512
Flags: HW
LayerCount: 2
Fore
SplineSet
384 832 m 1
 384 896 l 1
 256 896 l 1
 256 832 l 1
 192 832 l 1
 192 896 l 1
 64 896 l 1
 64 832 l 1
 128 832 l 1
 128 768 l 1
 192 768 l 1
 192 704 l 1
 128 704 l 1
 128 640 l 1
 64 640 l 1
 64 576 l 1
 0 576 l 1
 0 256 l 1
 64 256 l 1
 64 192 l 1
 128 192 l 1
 128 128 l 1
 384 128 l 1
 384 192 l 1
 448 192 l 1
 448 234.667 448 277.333 448 320 c 1
 384 320 l 1
 384 256 l 1
 320 256 l 1
 320 192 l 1
 192 192 l 1
 192 256 l 1
 128 256 l 1
 128 576 l 1
 192 576 l 1
 192 640 l 1
 320 640 l 1
 320 576 l 1
 384 576 l 1
 384 512 l 1
 448 512 l 1
 448 554.667 448 597.333 448 640 c 1
 384 640 l 1
 384 704 l 1
 256 704 l 1
 256 768 l 1
 320 768 l 1
 320 832 l 1
 384 832 l 1
EndSplineSet
EndChar

StartChar: 010D
Encoding: 269 269 206
Width: 512
Flags: HW
LayerCount: 2
Fore
SplineSet
448 192 m 1
 448 256 l 1
 320 256 l 1
 320 192 l 1
 128 192 l 1
 128 512 l 1
 320 512 l 1
 320 448 l 1
 448 448 l 1
 448 512 l 1
 384 512 l 1
 384 576 l 1
 64 576 l 1
 64 512 l 1
 0 512 l 1
 0 192 l 1
 64 192 l 1
 64 128 l 1
 384 128 l 1
 384 192 l 1
 448 192 l 1
384 768 m 1
 384 832 l 1
 256 832 l 1
 256 768 l 1
 192 768 l 1
 192 832 l 1
 64 832 l 1
 64 768 l 1
 128 768 l 1
 128 704 l 1
 192 704 l 1
 192 640 l 1
 256 640 l 1
 256 704 l 1
 320 704 l 1
 320 768 l 1
 384 768 l 1
EndSplineSet
EndChar

StartChar: 010E
Encoding: 270 270 207
Width: 512
Flags: HW
LayerCount: 2
Fore
SplineSet
384 832 m 1
 384 896 l 1
 256 896 l 1
 256 832 l 1
 192 832 l 1
 192 896 l 1
 64 896 l 1
 64 832 l 1
 128 832 l 1
 128 768 l 1
 192 768 l 1
 192 704 l 1
 0 704 l 1
 0 640 l 1
 64 640 l 1
 64 192 l 1
 0 192 l 1
 0 128 l 1
 320 128 l 1
 320 192 l 1
 384 192 l 1
 384 256 l 1
 448 256 l 1
 448 576 l 1
 384 576 l 1
 384 640 l 1
 320 640 l 1
 320 704 l 1
 256 704 l 1
 256 768 l 1
 320 768 l 1
 320 832 l 1
 384 832 l 1
192 192 m 1
 192 640 l 1
 256 640 l 1
 256 576 l 1
 320 576 l 1
 320 256 l 1
 256 256 l 1
 256 192 l 1
 192 192 l 1
EndSplineSet
EndChar

StartChar: 010F
Encoding: 271 271 208
Width: 512
Flags: HW
LayerCount: 2
Fore
SplineSet
448 128 m 1
 448 192 l 1
 384 192 l 1
 384 362.667 384 533.333 384 704 c 1
 256 704 l 1
 256 661.333 256 618.667 256 576 c 1
 128 576 l 1
 128 512 l 1
 64 512 l 1
 64 448 l 1
 0 448 l 1
 -0 362.667 0 277.333 0 192 c 1
 64 192 l 1
 64 128 l 1
 256 128 l 1
 256 192 l 1
 128 192 l 1
 128 277.333 128 362.667 128 448 c 1
 192 448 l 1
 192 512 l 1
 256 512 l 1
 256 192 l 1
 320 192 l 1
 320 128 l 1
 448 128 l 1
384 832 m 1
 384 896 l 1
 256 896 l 1
 256 832 l 1
 192 832 l 1
 192 896 l 1
 64 896 l 1
 64 832 l 1
 128 832 l 1
 128 768 l 1
 192 768 l 1
 192 704 l 1
 256 704 l 1
 256 768 l 1
 320 768 l 1
 320 832 l 1
 384 832 l 1
EndSplineSet
EndChar

StartChar: 0110
Encoding: 272 272 209
Width: 512
Flags: HW
LayerCount: 2
Fore
SplineSet
256 448 m 1
 256 512 l 1
 192 512 l 1
 192 704 l 1
 256 704 l 1
 256 640 l 1
 320 640 l 1
 320 512 320 384 320 256 c 1
 256 256 l 1
 256 192 l 1
 192 192 l 1
 192 277.333 192 362.667 192 448 c 1
 256 448 l 1
64 192 m 1
 0 192 l 1
 0 128 l 1
 320 128 l 1
 320 192 l 1
 384 192 l 1
 384 256 l 1
 448 256 l 1
 448 384 448 512 448 640 c 1
 384 640 l 1
 384 704 l 1
 320 704 l 1
 320 768 l 1
 0 768 l 1
 0 704 l 1
 64 704 l 1
 64 512 l 1
 0 512 l 1
 0 448 l 1
 64 448 l 1
 64 362.667 64 277.333 64 192 c 1
EndSplineSet
EndChar

StartChar: 0111
Encoding: 273 273 210
Width: 512
Flags: HW
LayerCount: 2
Fore
SplineSet
448 128 m 1
 448 192 l 1
 384 192 l 1
 384 640 l 1
 448 640 l 1
 448 704 l 1
 384 704 l 1
 384 768 l 1
 256 768 l 1
 256 704 l 1
 128 704 l 1
 128 640 l 1
 256 640 l 1
 256 576 l 1
 128 576 l 1
 128 512 l 1
 64 512 l 1
 64 448 l 1
 0 448 l 1
 -0 362.667 0 277.333 0 192 c 1
 64 192 l 1
 64 128 l 1
 256 128 l 1
 256 192 l 1
 128 192 l 1
 128 277.333 128 362.667 128 448 c 1
 192 448 l 1
 192 512 l 1
 256 512 l 1
 256 192 l 1
 320 192 l 1
 320 128 l 1
 448 128 l 1
EndSplineSet
EndChar

StartChar: 0112
Encoding: 274 274 211
Width: 512
Flags: HW
LayerCount: 2
Fore
SplineSet
384 768 m 1
 384 832 l 1
 64 832 l 1
 64 768 l 1
 384 768 l 1
64 192 m 1
 0 192 l 1
 0 128 l 1
 448 128 l 1
 448 320 l 1
 384 320 l 1
 384 256 l 1
 320 256 l 1
 320 192 l 1
 192 192 l 1
 192 384 l 1
 256 384 l 1
 256 320 l 1
 320 320 l 1
 320 512 l 1
 256 512 l 1
 256 448 l 1
 192 448 l 1
 192 640 l 1
 320 640 l 1
 320 576 l 1
 384 576 l 1
 384 512 l 1
 448 512 l 1
 448 704 l 1
 0 704 l 1
 0 640 l 1
 64 640 l 1
 64 192 l 1
EndSplineSet
EndChar

StartChar: 0113
Encoding: 275 275 212
Width: 512
Flags: HW
LayerCount: 2
Fore
SplineSet
448 192 m 1
 448 256 l 1
 320 256 l 1
 320 192 l 1
 128 192 l 1
 128 384 l 1
 448 384 l 1
 448 426.667 448 469.333 448 512 c 1
 384 512 l 1
 384 576 l 1
 64 576 l 1
 64 512 l 1
 0 512 l 1
 0 192 l 1
 64 192 l 1
 64 128 l 1
 384 128 l 1
 384 192 l 1
 448 192 l 1
384 640 m 1
 384 704 l 1
 64 704 l 1
 64 640 l 1
 384 640 l 1
128 448 m 1
 128 512 l 1
 320 512 l 1
 320 448 l 1
 128 448 l 1
EndSplineSet
EndChar

StartChar: 0114
Encoding: 276 276 213
Width: 512
Flags: HW
LayerCount: 2
Fore
SplineSet
384 832 m 1
 384 896 l 1
 256 896 l 1
 256 832 l 1
 192 832 l 1
 192 896 l 1
 64 896 l 1
 64 832 l 1
 128 832 l 1
 128 768 l 1
 320 768 l 1
 320 832 l 1
 384 832 l 1
64 192 m 1
 0 192 l 1
 0 128 l 1
 448 128 l 1
 448 320 l 1
 384 320 l 1
 384 256 l 1
 320 256 l 1
 320 192 l 1
 192 192 l 1
 192 384 l 1
 256 384 l 1
 256 320 l 1
 320 320 l 1
 320 512 l 1
 256 512 l 1
 256 448 l 1
 192 448 l 1
 192 640 l 1
 320 640 l 1
 320 576 l 1
 384 576 l 1
 384 512 l 1
 448 512 l 1
 448 704 l 1
 0 704 l 1
 0 640 l 1
 64 640 l 1
 64 192 l 1
EndSplineSet
EndChar

StartChar: 0115
Encoding: 277 277 214
Width: 512
Flags: HW
LayerCount: 2
Fore
SplineSet
448 192 m 1
 448 256 l 1
 320 256 l 1
 320 192 l 1
 128 192 l 1
 128 384 l 1
 448 384 l 1
 448 426.667 448 469.333 448 512 c 1
 384 512 l 1
 384 576 l 1
 64 576 l 1
 64 512 l 1
 0 512 l 1
 0 192 l 1
 64 192 l 1
 64 128 l 1
 384 128 l 1
 384 192 l 1
 448 192 l 1
384 704 m 1
 384 768 l 1
 256 768 l 1
 256 704 l 1
 192 704 l 1
 192 768 l 1
 64 768 l 1
 64 704 l 1
 128 704 l 1
 128 640 l 1
 320 640 l 1
 320 704 l 1
 384 704 l 1
128 448 m 1
 128 512 l 1
 320 512 l 1
 320 448 l 1
 128 448 l 1
EndSplineSet
EndChar

StartChar: 0116
Encoding: 278 278 215
Width: 512
Flags: HW
LayerCount: 2
Fore
SplineSet
64 192 m 1
 0 192 l 1
 0 128 l 1
 448 128 l 1
 448 320 l 1
 384 320 l 1
 384 256 l 1
 320 256 l 1
 320 192 l 1
 192 192 l 1
 192 384 l 1
 256 384 l 1
 256 320 l 1
 320 320 l 1
 320 512 l 1
 256 512 l 1
 256 448 l 1
 192 448 l 1
 192 640 l 1
 320 640 l 1
 320 576 l 1
 384 576 l 1
 384 512 l 1
 448 512 l 1
 448 704 l 1
 0 704 l 1
 0 640 l 1
 64 640 l 1
 64 192 l 1
192 896 m 1
 192 853.333 192 810.667 192 768 c 1
 320 768 l 1
 320 810.667 320 853.333 320 896 c 1
 192 896 l 1
EndSplineSet
EndChar

StartChar: 0117
Encoding: 279 279 216
Width: 512
Flags: HW
LayerCount: 2
Fore
SplineSet
448 192 m 1
 448 256 l 1
 320 256 l 1
 320 192 l 1
 128 192 l 1
 128 384 l 1
 448 384 l 1
 448 426.667 448 469.333 448 512 c 1
 384 512 l 1
 384 576 l 1
 64 576 l 1
 64 512 l 1
 0 512 l 1
 0 192 l 1
 64 192 l 1
 64 128 l 1
 384 128 l 1
 384 192 l 1
 448 192 l 1
128 448 m 1
 128 512 l 1
 320 512 l 1
 320 448 l 1
 128 448 l 1
128 768 m 1
 128 725.333 128 682.667 128 640 c 1
 256 640 l 1
 256 682.667 256 725.333 256 768 c 1
 128 768 l 1
EndSplineSet
EndChar

StartChar: 0118
Encoding: 280 280 217
Width: 512
Flags: HW
LayerCount: 2
Fore
SplineSet
384 -64 m 1
 384 0 l 1
 256 0 l 1
 256 64 l 1
 320 64 l 1
 320 128 l 1
 448 128 l 1
 448 320 l 1
 384 320 l 1
 384 256 l 1
 320 256 l 1
 320 192 l 1
 192 192 l 1
 192 384 l 1
 256 384 l 1
 256 320 l 1
 320 320 l 1
 320 512 l 1
 256 512 l 1
 256 448 l 1
 192 448 l 1
 192 640 l 1
 320 640 l 1
 320 576 l 1
 384 576 l 1
 384 512 l 1
 448 512 l 1
 448 704 l 1
 0 704 l 1
 0 640 l 1
 64 640 l 1
 64 192 l 1
 0 192 l 1
 0 128 l 1
 192 128 l 1
 192 64 l 1
 128 64 l 1
 128 0 l 1
 192 0 l 1
 192 -64 l 1
 384 -64 l 1
EndSplineSet
EndChar

StartChar: 0119
Encoding: 281 281 218
Width: 512
Flags: HW
LayerCount: 2
Fore
SplineSet
320 -64 m 1
 320 0 l 1
 192 0 l 1
 192 64 l 1
 256 64 l 1
 256 128 l 1
 384 128 l 1
 384 192 l 1
 448 192 l 1
 448 256 l 1
 320 256 l 1
 320 192 l 1
 128 192 l 1
 128 384 l 1
 448 384 l 1
 448 426.667 448 469.333 448 512 c 1
 384 512 l 1
 384 576 l 1
 64 576 l 1
 64 512 l 1
 0 512 l 1
 0 192 l 1
 64 192 l 1
 64 128 l 1
 128 128 l 1
 128 64 l 1
 64 64 l 1
 64 0 l 1
 128 0 l 1
 128 -64 l 1
 320 -64 l 1
128 448 m 1
 128 512 l 1
 320 512 l 1
 320 448 l 1
 128 448 l 1
EndSplineSet
EndChar

StartChar: 011A
Encoding: 282 282 219
Width: 512
Flags: HW
LayerCount: 2
Fore
SplineSet
384 832 m 1
 384 896 l 1
 256 896 l 1
 256 832 l 1
 192 832 l 1
 192 896 l 1
 64 896 l 1
 64 832 l 1
 128 832 l 1
 128 768 l 1
 192 768 l 1
 192 704 l 1
 0 704 l 1
 0 640 l 1
 64 640 l 1
 64 192 l 1
 0 192 l 1
 0 128 l 1
 448 128 l 1
 448 320 l 1
 384 320 l 1
 384 256 l 1
 320 256 l 1
 320 192 l 1
 192 192 l 1
 192 384 l 1
 256 384 l 1
 256 320 l 1
 320 320 l 1
 320 512 l 1
 256 512 l 1
 256 448 l 1
 192 448 l 1
 192 640 l 1
 320 640 l 1
 320 576 l 1
 384 576 l 1
 384 512 l 1
 448 512 l 1
 448 704 l 1
 256 704 l 1
 256 768 l 1
 320 768 l 1
 320 832 l 1
 384 832 l 1
EndSplineSet
EndChar

StartChar: 011B
Encoding: 283 283 220
Width: 512
Flags: HW
LayerCount: 2
Fore
SplineSet
448 192 m 1
 448 256 l 1
 320 256 l 1
 320 192 l 1
 128 192 l 1
 128 384 l 1
 448 384 l 1
 448 426.667 448 469.333 448 512 c 1
 384 512 l 1
 384 576 l 1
 64 576 l 1
 64 512 l 1
 0 512 l 1
 0 192 l 1
 64 192 l 1
 64 128 l 1
 384 128 l 1
 384 192 l 1
 448 192 l 1
384 768 m 1
 384 832 l 1
 256 832 l 1
 256 768 l 1
 192 768 l 1
 192 832 l 1
 64 832 l 1
 64 768 l 1
 128 768 l 1
 128 704 l 1
 192 704 l 1
 192 640 l 1
 256 640 l 1
 256 704 l 1
 320 704 l 1
 320 768 l 1
 384 768 l 1
128 448 m 1
 128 512 l 1
 320 512 l 1
 320 448 l 1
 128 448 l 1
EndSplineSet
EndChar

StartChar: 011C
Encoding: 284 284 221
Width: 512
Flags: HW
LayerCount: 2
Fore
SplineSet
128 192 m 1
 128 128 l 1
 320 128 l 1
 320 192 l 1
 192 192 l 1
 192 256 l 1
 128 256 l 1
 128 576 l 1
 192 576 l 1
 192 640 l 1
 320 640 l 1
 320 576 l 1
 384 576 l 1
 384 512 l 1
 448 512 l 1
 448 554.667 448 597.333 448 640 c 1
 384 640 l 1
 384 682.667 384 725.333 384 768 c 1
 320 768 l 1
 320 704 l 1
 128 704 l 1
 128 640 l 1
 64 640 l 1
 64 576 l 1
 0 576 l 1
 0 256 l 1
 64 256 l 1
 64 192 l 1
 128 192 l 1
384 192 m 1
 384 128 l 1
 448 128 l 1
 448 448 l 1
 192 448 l 1
 192 384 l 1
 320 384 l 1
 320 192 l 1
 384 192 l 1
128 704 m 1
 128 768 l 1
 64 768 l 1
 64 704 l 1
 128 704 l 1
128 768 m 1
 320 768 l 1
 320 832 l 1
 256 832 l 1
 256 896 l 1
 192 896 l 1
 192 832 l 1
 128 832 l 1
 128 768 l 1
EndSplineSet
EndChar

StartChar: 011D
Encoding: 285 285 222
Width: 512
Flags: HW
LayerCount: 2
Fore
SplineSet
448 512 m 1
 448 576 l 1
 320 576 l 1
 320 512 l 1
 256 512 l 1
 256 192 l 1
 128 192 l 1
 128 512 l 1
 256 512 l 1
 256 576 l 1
 64 576 l 1
 64 512 l 1
 0 512 l 1
 0 192 l 1
 64 192 l 1
 64 128 l 1
 256 128 l 1
 256 85.3333 256 42.6667 256 0 c 1
 128 0 l 1
 128 64 l 1
 0 64 l 1
 0 0 l 1
 64 0 l 1
 64 -64 l 1
 320 -64 l 1
 320 0 l 1
 384 0 l 1
 384 170.667 384 341.333 384 512 c 1
 448 512 l 1
384 640 m 1
 384 704 l 1
 320 704 l 1
 320 768 l 1
 256 768 l 1
 256 832 l 1
 192 832 l 1
 192 768 l 1
 128 768 l 1
 128 704 l 1
 64 704 l 1
 64 640 l 1
 192 640 l 1
 192 704 l 1
 256 704 l 1
 256 640 l 1
 384 640 l 1
EndSplineSet
EndChar

StartChar: 011E
Encoding: 286 286 223
Width: 512
Flags: HW
LayerCount: 2
Fore
SplineSet
384 832 m 1
 384 896 l 1
 256 896 l 1
 256 832 l 1
 192 832 l 1
 192 896 l 1
 64 896 l 1
 64 832 l 1
 128 832 l 1
 128 768 l 1
 320 768 l 1
 320 832 l 1
 384 832 l 1
128 192 m 1
 128 128 l 1
 320 128 l 1
 320 192 l 1
 192 192 l 1
 192 256 l 1
 128 256 l 1
 128 576 l 1
 192 576 l 1
 192 640 l 1
 320 640 l 1
 320 576 l 1
 384 576 l 1
 384 512 l 1
 448 512 l 1
 448 554.667 448 597.333 448 640 c 1
 384 640 l 1
 384 704 l 1
 128 704 l 1
 128 640 l 1
 64 640 l 1
 64 576 l 1
 0 576 l 1
 0 256 l 1
 64 256 l 1
 64 192 l 1
 128 192 l 1
384 192 m 1
 384 128 l 1
 448 128 l 1
 448 448 l 1
 192 448 l 1
 192 384 l 1
 320 384 l 1
 320 192 l 1
 384 192 l 1
EndSplineSet
EndChar

StartChar: 011F
Encoding: 287 287 224
Width: 512
Flags: HW
LayerCount: 2
Fore
SplineSet
448 512 m 1
 448 576 l 1
 320 576 l 1
 320 512 l 1
 256 512 l 1
 256 192 l 1
 128 192 l 1
 128 512 l 1
 256 512 l 1
 256 576 l 1
 64 576 l 1
 64 512 l 1
 0 512 l 1
 0 192 l 1
 64 192 l 1
 64 128 l 1
 256 128 l 1
 256 85.3333 256 42.6667 256 0 c 1
 128 0 l 1
 128 64 l 1
 0 64 l 1
 0 0 l 1
 64 0 l 1
 64 -64 l 1
 320 -64 l 1
 320 0 l 1
 384 0 l 1
 384 170.667 384 341.333 384 512 c 1
 448 512 l 1
384 704 m 1
 384 768 l 1
 256 768 l 1
 256 704 l 1
 192 704 l 1
 192 768 l 1
 64 768 l 1
 64 704 l 1
 128 704 l 1
 128 640 l 1
 320 640 l 1
 320 704 l 1
 384 704 l 1
EndSplineSet
EndChar

StartChar: 0120
Encoding: 288 288 225
Width: 512
Flags: HW
LayerCount: 2
Fore
SplineSet
128 192 m 1
 128 128 l 1
 320 128 l 1
 320 192 l 1
 192 192 l 1
 192 256 l 1
 128 256 l 1
 128 576 l 1
 192 576 l 1
 192 640 l 1
 320 640 l 1
 320 576 l 1
 384 576 l 1
 384 512 l 1
 448 512 l 1
 448 554.667 448 597.333 448 640 c 1
 384 640 l 1
 384 704 l 1
 128 704 l 1
 128 640 l 1
 64 640 l 1
 64 576 l 1
 0 576 l 1
 0 256 l 1
 64 256 l 1
 64 192 l 1
 128 192 l 1
384 192 m 1
 384 128 l 1
 448 128 l 1
 448 448 l 1
 192 448 l 1
 192 384 l 1
 320 384 l 1
 320 192 l 1
 384 192 l 1
192 896 m 1
 192 853.333 192 810.667 192 768 c 1
 320 768 l 1
 320 810.667 320 853.333 320 896 c 1
 192 896 l 1
EndSplineSet
EndChar

StartChar: 0121
Encoding: 289 289 226
Width: 512
Flags: HW
LayerCount: 2
Fore
SplineSet
448 512 m 1
 448 576 l 1
 320 576 l 1
 320 512 l 1
 256 512 l 1
 256 192 l 1
 128 192 l 1
 128 512 l 1
 256 512 l 1
 256 576 l 1
 64 576 l 1
 64 512 l 1
 0 512 l 1
 0 192 l 1
 64 192 l 1
 64 128 l 1
 256 128 l 1
 256 85.3333 256 42.6667 256 0 c 1
 128 0 l 1
 128 64 l 1
 0 64 l 1
 0 0 l 1
 64 0 l 1
 64 -64 l 1
 320 -64 l 1
 320 0 l 1
 384 0 l 1
 384 170.667 384 341.333 384 512 c 1
 448 512 l 1
128 768 m 1
 128 725.333 128 682.667 128 640 c 1
 256 640 l 1
 256 682.667 256 725.333 256 768 c 1
 128 768 l 1
EndSplineSet
EndChar

StartChar: 0122
Encoding: 290 290 227
Width: 512
Flags: HW
LayerCount: 2
Fore
SplineSet
256 -64 m 1
 320 -64 l 1
 320 -21.3333 320 21.3333 320 64 c 1
 192 64 l 1
 192 21.3333 192 -21.3333 192 -64 c 1
 128 -64 l 1
 128 -128 l 1
 256 -128 l 1
 256 -64 l 1
128 192 m 1
 128 128 l 1
 320 128 l 1
 320 192 l 1
 192 192 l 1
 192 256 l 1
 128 256 l 1
 128 384 128 512 128 640 c 1
 192 640 l 1
 192 704 l 1
 320 704 l 1
 320 640 l 1
 384 640 l 1
 384 576 l 1
 448 576 l 1
 448 618.667 448 661.333 448 704 c 1
 384 704 l 1
 384 768 l 1
 128 768 l 1
 128 704 l 1
 64 704 l 1
 64 640 l 1
 0 640 l 1
 -0 512 0 384 0 256 c 1
 64 256 l 1
 64 192 l 1
 128 192 l 1
384 192 m 1
 384 128 l 1
 448 128 l 1
 448 448 l 1
 192 448 l 1
 192 384 l 1
 320 384 l 1
 320 192 l 1
 384 192 l 1
EndSplineSet
EndChar

StartChar: 0123
Encoding: 291 291 228
Width: 512
Flags: HW
LayerCount: 2
Fore
SplineSet
448 512 m 1
 448 576 l 1
 320 576 l 1
 320 512 l 1
 256 512 l 1
 256 192 l 1
 128 192 l 1
 128 512 l 1
 256 512 l 1
 256 576 l 1
 64 576 l 1
 64 512 l 1
 0 512 l 1
 0 192 l 1
 64 192 l 1
 64 128 l 1
 256 128 l 1
 256 85.3333 256 42.6667 256 0 c 1
 128 0 l 1
 128 64 l 1
 0 64 l 1
 0 0 l 1
 64 0 l 1
 64 -64 l 1
 320 -64 l 1
 320 0 l 1
 384 0 l 1
 384 170.667 384 341.333 384 512 c 1
 448 512 l 1
320 768 m 1
 320 832 l 1
 192 832 l 1
 192 768 l 1
 128 768 l 1
 128 725.333 128 682.667 128 640 c 1
 256 640 l 1
 256 682.667 256 725.333 256 768 c 1
 320 768 l 1
EndSplineSet
EndChar

StartChar: 0124
Encoding: 292 292 229
Width: 512
Flags: HW
LayerCount: 2
Fore
SplineSet
320 768 m 1
 320 832 l 1
 256 832 l 1
 256 896 l 1
 192 896 l 1
 192 832 l 1
 128 832 l 1
 128 768 l 1
 320 768 l 1
0 704 m 1
 0 128 l 1
 128 128 l 1
 128 213.333 128 298.667 128 384 c 1
 320 384 l 1
 320 298.667 320 213.333 320 128 c 1
 448 128 l 1
 448 704 l 1
 320 704 l 1
 320 618.667 320 533.333 320 448 c 1
 128 448 l 1
 128 533.333 128 618.667 128 704 c 1
 0 704 l 1
EndSplineSet
EndChar

StartChar: 0125
Encoding: 293 293 230
Width: 512
Flags: HW
LayerCount: 2
Fore
SplineSet
384 704 m 1
 384 768 l 1
 320 768 l 1
 320 704 l 1
 384 704 l 1
64 192 m 1
 0 192 l 1
 0 128 l 1
 192 128 l 1
 192 448 l 1
 256 448 l 1
 256 512 l 1
 192 512 l 1
 192 704 l 1
 128 704 l 1
 128 768 l 1
 64 768 l 1
 64 704 l 1
 0 704 l 1
 0 640 l 1
 64 640 l 1
 64 192 l 1
320 512 m 1
 320 384 320 256 320 128 c 1
 448 128 l 1
 448 256 448 384 448 512 c 1
 384 512 l 1
 384 576 l 1
 256 576 l 1
 256 512 l 1
 320 512 l 1
128 768 m 1
 320 768 l 1
 320 832 l 1
 256 832 l 1
 256 896 l 1
 192 896 l 1
 192 832 l 1
 128 832 l 1
 128 768 l 1
EndSplineSet
EndChar

StartChar: 0126
Encoding: 294 294 231
Width: 512
Flags: HW
LayerCount: 2
Fore
SplineSet
512 640 m 1
 512 704 l 1
 448 704 l 1
 448 768 l 1
 320 768 l 1
 320 704 l 1
 192 704 l 1
 192 768 l 1
 64 768 l 1
 64 704 l 1
 0 704 l 1
 0 640 l 1
 64 640 l 1
 64 469.333 64 298.667 64 128 c 1
 192 128 l 1
 192 448 l 1
 320 448 l 1
 320 128 l 1
 448 128 l 1
 448 298.667 448 469.333 448 640 c 1
 512 640 l 1
192 512 m 1
 192 554.667 192 597.333 192 640 c 1
 320 640 l 1
 320 597.333 320 554.667 320 512 c 1
 192 512 l 1
EndSplineSet
EndChar

StartChar: 0127
Encoding: 295 295 232
Width: 512
Flags: HW
LayerCount: 2
Fore
SplineSet
320 640 m 1
 320 704 l 1
 192 704 l 1
 192 768 l 1
 64 768 l 1
 64 704 l 1
 0 704 l 1
 0 640 l 1
 64 640 l 1
 64 192 l 1
 0 192 l 1
 0 128 l 1
 192 128 l 1
 192 448 l 1
 256 448 l 1
 256 512 l 1
 192 512 l 1
 192 554.667 192 597.333 192 640 c 1
 320 640 l 1
320 512 m 1
 320 384 320 256 320 128 c 1
 448 128 l 1
 448 256 448 384 448 512 c 1
 384 512 l 1
 384 576 l 1
 256 576 l 1
 256 512 l 1
 320 512 l 1
EndSplineSet
EndChar

StartChar: 0128
Encoding: 296 296 233
Width: 512
Flags: HW
LayerCount: 2
Fore
SplineSet
384 128 m 1
 384 192 l 1
 320 192 l 1
 320 640 l 1
 384 640 l 1
 384 704 l 1
 128 704 l 1
 128 640 l 1
 192 640 l 1
 192 192 l 1
 128 192 l 1
 128 128 l 1
 384 128 l 1
448 832 m 1
 448 896 l 1
 320 896 l 1
 320 832 l 1
 256 832 l 1
 256 896 l 1
 64 896 l 1
 64 832 l 1
 0 832 l 1
 0 768 l 1
 128 768 l 1
 128 832 l 1
 192 832 l 1
 192 768 l 1
 384 768 l 1
 384 832 l 1
 448 832 l 1
EndSplineSet
EndChar

StartChar: 0129
Encoding: 297 297 234
Width: 512
Flags: HW
LayerCount: 2
Fore
SplineSet
384 128 m 1
 384 192 l 1
 320 192 l 1
 320 320 320 448 320 576 c 1
 128 576 l 1
 128 512 l 1
 192 512 l 1
 192 192 l 1
 128 192 l 1
 128 128 l 1
 384 128 l 1
448 704 m 1
 448 768 l 1
 320 768 l 1
 320 704 l 1
 256 704 l 1
 256 768 l 1
 64 768 l 1
 64 704 l 1
 0 704 l 1
 0 640 l 1
 128 640 l 1
 128 704 l 1
 192 704 l 1
 192 640 l 1
 384 640 l 1
 384 704 l 1
 448 704 l 1
EndSplineSet
EndChar

StartChar: 012A
Encoding: 298 298 235
Width: 512
Flags: HW
LayerCount: 2
Fore
SplineSet
384 128 m 1
 384 192 l 1
 320 192 l 1
 320 640 l 1
 384 640 l 1
 384 704 l 1
 128 704 l 1
 128 640 l 1
 192 640 l 1
 192 192 l 1
 128 192 l 1
 128 128 l 1
 384 128 l 1
448 768 m 1
 448 832 l 1
 64 832 l 1
 64 768 l 1
 448 768 l 1
EndSplineSet
EndChar

StartChar: 012B
Encoding: 299 299 236
Width: 512
Flags: HW
LayerCount: 2
Fore
SplineSet
384 128 m 1
 384 192 l 1
 320 192 l 1
 320 320 320 448 320 576 c 1
 128 576 l 1
 128 512 l 1
 192 512 l 1
 192 192 l 1
 128 192 l 1
 128 128 l 1
 384 128 l 1
448 640 m 1
 448 704 l 1
 64 704 l 1
 64 640 l 1
 448 640 l 1
EndSplineSet
EndChar

StartChar: 012C
Encoding: 300 300 237
Width: 512
Flags: HW
LayerCount: 2
Fore
SplineSet
384 128 m 1
 384 192 l 1
 320 192 l 1
 320 640 l 1
 384 640 l 1
 384 704 l 1
 128 704 l 1
 128 640 l 1
 192 640 l 1
 192 192 l 1
 128 192 l 1
 128 128 l 1
 384 128 l 1
448 832 m 1
 448 896 l 1
 320 896 l 1
 320 832 l 1
 192 832 l 1
 192 896 l 1
 64 896 l 1
 64 832 l 1
 128 832 l 1
 128 768 l 1
 384 768 l 1
 384 832 l 1
 448 832 l 1
EndSplineSet
EndChar

StartChar: 012D
Encoding: 301 301 238
Width: 512
Flags: HW
LayerCount: 2
Fore
SplineSet
384 128 m 1
 384 192 l 1
 320 192 l 1
 320 320 320 448 320 576 c 1
 128 576 l 1
 128 512 l 1
 192 512 l 1
 192 192 l 1
 128 192 l 1
 128 128 l 1
 384 128 l 1
448 704 m 1
 448 768 l 1
 320 768 l 1
 320 704 l 1
 192 704 l 1
 192 768 l 1
 64 768 l 1
 64 704 l 1
 128 704 l 1
 128 640 l 1
 384 640 l 1
 384 704 l 1
 448 704 l 1
EndSplineSet
EndChar

StartChar: 012E
Encoding: 302 302 239
Width: 512
Flags: HW
LayerCount: 2
Fore
SplineSet
384 -64 m 1
 384 0 l 1
 256 0 l 1
 256 64 l 1
 320 64 l 1
 320 128 l 1
 384 128 l 1
 384 192 l 1
 320 192 l 1
 320 640 l 1
 384 640 l 1
 384 704 l 1
 128 704 l 1
 128 640 l 1
 192 640 l 1
 192 192 l 1
 128 192 l 1
 128 128 l 1
 192 128 l 1
 192 64 l 1
 128 64 l 1
 128 0 l 1
 192 0 l 1
 192 -64 l 1
 384 -64 l 1
EndSplineSet
EndChar

StartChar: 012F
Encoding: 303 303 240
Width: 512
Flags: HW
LayerCount: 2
Fore
SplineSet
384 -64 m 1
 384 0 l 1
 256 0 l 1
 256 64 l 1
 320 64 l 1
 320 128 l 1
 384 128 l 1
 384 192 l 1
 320 192 l 1
 320 320 320 448 320 576 c 1
 128 576 l 1
 128 512 l 1
 192 512 l 1
 192 192 l 1
 128 192 l 1
 128 128 l 1
 192 128 l 1
 192 64 l 1
 128 64 l 1
 128 0 l 1
 192 0 l 1
 192 -64 l 1
 384 -64 l 1
192 768 m 1
 192 725.333 192 682.667 192 640 c 1
 320 640 l 1
 320 682.667 320 725.333 320 768 c 1
 192 768 l 1
EndSplineSet
EndChar

StartChar: 0130
Encoding: 304 304 241
Width: 512
Flags: HW
LayerCount: 2
Fore
SplineSet
384 128 m 1
 384 192 l 1
 320 192 l 1
 320 640 l 1
 384 640 l 1
 384 704 l 1
 128 704 l 1
 128 640 l 1
 192 640 l 1
 192 192 l 1
 128 192 l 1
 128 128 l 1
 384 128 l 1
192 896 m 1
 192 853.333 192 810.667 192 768 c 1
 320 768 l 1
 320 810.667 320 853.333 320 896 c 1
 192 896 l 1
EndSplineSet
EndChar

StartChar: 0131
Encoding: 305 305 242
Width: 512
Flags: HW
LayerCount: 2
Fore
SplineSet
384 128 m 1
 384 192 l 1
 320 192 l 1
 320 320 320 448 320 576 c 1
 128 576 l 1
 128 512 l 1
 192 512 l 1
 192 192 l 1
 128 192 l 1
 128 128 l 1
 384 128 l 1
EndSplineSet
EndChar

StartChar: 0132
Encoding: 306 306 243
Width: 512
Flags: HW
LayerCount: 2
Fore
SplineSet
256 704 m 1
 256 768 l 1
 0 768 l 1
 0 704 l 1
 64 704 l 1
 64 533.333 64 362.667 64 192 c 1
 0 192 l 1
 0 128 l 1
 192 128 l 1
 192 192 l 1
 256 192 l 1
 256 128 l 1
 448 128 l 1
 448 192 l 1
 512 192 l 1
 512 768 l 1
 320 768 l 1
 320 704 l 1
 384 704 l 1
 384 533.333 384 362.667 384 192 c 1
 320 192 l 1
 320 234.667 320 277.333 320 320 c 1
 192 320 l 1
 192 448 192 576 192 704 c 1
 256 704 l 1
EndSplineSet
EndChar

StartChar: 0133
Encoding: 307 307 244
Width: 512
Flags: HW
LayerCount: 2
Fore
SplineSet
256 128 m 1
 256 192 l 1
 192 192 l 1
 192 320 192 448 192 576 c 1
 0 576 l 1
 0 512 l 1
 64 512 l 1
 64 192 l 1
 0 192 l 1
 0 128 l 1
 256 128 l 1
128 0 m 1
 128 -64 l 1
 384 -64 l 1
 384 0 l 1
 448 0 l 1
 448 576 l 1
 256 576 l 1
 256 512 l 1
 320 512 l 1
 320 341.333 320 170.667 320 0 c 1
 192 0 l 1
 192 64 l 1
 64 64 l 1
 64 0 l 1
 128 0 l 1
64 768 m 1
 64 725.333 64 682.667 64 640 c 1
 192 640 l 1
 192 682.667 192 725.333 192 768 c 1
 64 768 l 1
320 768 m 1
 320 725.333 320 682.667 320 640 c 1
 448 640 l 1
 448 682.667 448 725.333 448 768 c 1
 320 768 l 1
EndSplineSet
EndChar

StartChar: 0134
Encoding: 308 308 245
Width: 512
Flags: HW
LayerCount: 2
Fore
SplineSet
64 192 m 1
 64 128 l 1
 320 128 l 1
 320 192 l 1
 384 192 l 1
 384 640 l 1
 448 640 l 1
 448 682.667 448 725.333 448 768 c 1
 384 768 l 1
 384 704 l 1
 192 704 l 1
 192 640 l 1
 256 640 l 1
 256 192 l 1
 128 192 l 1
 128 384 l 1
 0 384 l 1
 0 192 l 1
 64 192 l 1
192 704 m 1
 192 768 l 1
 128 768 l 1
 128 704 l 1
 192 704 l 1
192 768 m 1
 384 768 l 1
 384 832 l 1
 320 832 l 1
 320 896 l 1
 256 896 l 1
 256 832 l 1
 192 832 l 1
 192 768 l 1
EndSplineSet
EndChar

StartChar: 0135
Encoding: 309 309 246
Width: 512
Flags: HW
LayerCount: 2
Fore
SplineSet
512 640 m 1
 512 704 l 1
 448 704 l 1
 448 768 l 1
 384 768 l 1
 384 832 l 1
 320 832 l 1
 320 768 l 1
 256 768 l 1
 256 704 l 1
 192 704 l 1
 192 640 l 1
 320 640 l 1
 320 704 l 1
 384 704 l 1
 384 640 l 1
 512 640 l 1
128 0 m 1
 128 -64 l 1
 384 -64 l 1
 384 0 l 1
 448 0 l 1
 448 576 l 1
 256 576 l 1
 256 512 l 1
 320 512 l 1
 320 341.333 320 170.667 320 0 c 1
 192 0 l 1
 192 42.6667 192 85.3333 192 128 c 1
 64 128 l 1
 64 85.3333 64 42.6667 64 0 c 1
 128 0 l 1
EndSplineSet
EndChar

StartChar: 0136
Encoding: 310 310 247
Width: 512
Flags: HW
LayerCount: 2
Fore
SplineSet
256 -64 m 1
 320 -64 l 1
 320 -21.3333 320 21.3333 320 64 c 1
 192 64 l 1
 192 21.3333 192 -21.3333 192 -64 c 1
 128 -64 l 1
 128 -128 l 1
 256 -128 l 1
 256 -64 l 1
64 192 m 1
 0 192 l 1
 0 128 l 1
 192 128 l 1
 192 213.333 192 298.667 192 384 c 1
 256 384 l 1
 256 320 l 1
 320 320 l 1
 320 128 l 1
 448 128 l 1
 448 320 l 1
 384 320 l 1
 384 384 l 1
 320 384 l 1
 320 426.667 320 469.333 320 512 c 1
 384 512 l 1
 384 576 l 1
 448 576 l 1
 448 768 l 1
 320 768 l 1
 320 576 l 1
 256 576 l 1
 256 512 l 1
 192 512 l 1
 192 597.333 192 682.667 192 768 c 1
 0 768 l 1
 0 704 l 1
 64 704 l 1
 64 533.333 64 362.667 64 192 c 1
EndSplineSet
EndChar

StartChar: 0137
Encoding: 311 311 248
Width: 512
Flags: HW
LayerCount: 2
Fore
SplineSet
448 512 m 1
 448 576 l 1
 320 576 l 1
 320 512 l 1
 256 512 l 1
 256 448 l 1
 192 448 l 1
 192 768 l 1
 0 768 l 1
 0 704 l 1
 64 704 l 1
 64 533.333 64 362.667 64 192 c 1
 0 192 l 1
 0 128 l 1
 192 128 l 1
 192 320 l 1
 256 320 l 1
 256 256 l 1
 320 256 l 1
 320 213.333 320 170.667 320 128 c 1
 448 128 l 1
 448 170.667 448 213.333 448 256 c 1
 384 256 l 1
 384 320 l 1
 320 320 l 1
 320 362.667 320 405.333 320 448 c 1
 384 448 l 1
 384 512 l 1
 448 512 l 1
256 -64 m 1
 320 -64 l 1
 320 -21.3333 320 21.3333 320 64 c 1
 192 64 l 1
 192 21.3333 192 -21.3333 192 -64 c 1
 128 -64 l 1
 128 -128 l 1
 256 -128 l 1
 256 -64 l 1
EndSplineSet
EndChar

StartChar: 0138
Encoding: 312 312 249
Width: 512
Flags: HW
LayerCount: 2
Fore
SplineSet
448 512 m 1
 448 576 l 1
 320 576 l 1
 320 512 l 1
 256 512 l 1
 256 448 l 1
 192 448 l 1
 192 490.667 192 533.333 192 576 c 1
 0 576 l 1
 0 512 l 1
 64 512 l 1
 64 192 l 1
 0 192 l 1
 0 128 l 1
 192 128 l 1
 192 320 l 1
 256 320 l 1
 256 256 l 1
 320 256 l 1
 320 213.333 320 170.667 320 128 c 1
 448 128 l 1
 448 170.667 448 213.333 448 256 c 1
 384 256 l 1
 384 320 l 1
 320 320 l 1
 320 362.667 320 405.333 320 448 c 1
 384 448 l 1
 384 512 l 1
 448 512 l 1
EndSplineSet
EndChar

StartChar: 0139
Encoding: 313 313 250
Width: 512
Flags: HW
LayerCount: 2
Fore
SplineSet
256 640 m 1
 256 704 l 1
 0 704 l 1
 0 640 l 1
 64 640 l 1
 64 192 l 1
 0 192 l 1
 0 128 l 1
 448 128 l 1
 448 320 l 1
 384 320 l 1
 384 256 l 1
 320 256 l 1
 320 192 l 1
 192 192 l 1
 192 640 l 1
 256 640 l 1
320 832 m 1
 320 896 l 1
 192 896 l 1
 192 832 l 1
 128 832 l 1
 128 768 l 1
 256 768 l 1
 256 832 l 1
 320 832 l 1
EndSplineSet
EndChar

StartChar: 013A
Encoding: 314 314 251
Width: 512
Flags: HW
LayerCount: 2
Fore
SplineSet
384 128 m 1
 384 192 l 1
 320 192 l 1
 320 362.667 320 533.333 320 704 c 1
 128 704 l 1
 128 640 l 1
 192 640 l 1
 192 192 l 1
 128 192 l 1
 128 128 l 1
 384 128 l 1
384 832 m 1
 384 896 l 1
 256 896 l 1
 256 832 l 1
 192 832 l 1
 192 768 l 1
 320 768 l 1
 320 832 l 1
 384 832 l 1
EndSplineSet
EndChar

StartChar: 013B
Encoding: 315 315 252
Width: 512
Flags: HW
LayerCount: 2
Fore
SplineSet
256 704 m 1
 256 768 l 1
 0 768 l 1
 0 704 l 1
 64 704 l 1
 64 533.333 64 362.667 64 192 c 1
 0 192 l 1
 0 128 l 1
 448 128 l 1
 448 320 l 1
 384 320 l 1
 384 256 l 1
 320 256 l 1
 320 192 l 1
 192 192 l 1
 192 362.667 192 533.333 192 704 c 1
 256 704 l 1
256 -64 m 1
 320 -64 l 1
 320 -21.3333 320 21.3333 320 64 c 1
 192 64 l 1
 192 21.3333 192 -21.3333 192 -64 c 1
 128 -64 l 1
 128 -128 l 1
 256 -128 l 1
 256 -64 l 1
EndSplineSet
EndChar

StartChar: 013C
Encoding: 316 316 253
Width: 512
Flags: HW
LayerCount: 2
Fore
SplineSet
384 128 m 1
 384 192 l 1
 320 192 l 1
 320 768 l 1
 128 768 l 1
 128 704 l 1
 192 704 l 1
 192 533.333 192 362.667 192 192 c 1
 128 192 l 1
 128 128 l 1
 384 128 l 1
256 -64 m 1
 320 -64 l 1
 320 -21.3333 320 21.3333 320 64 c 1
 192 64 l 1
 192 21.3333 192 -21.3333 192 -64 c 1
 128 -64 l 1
 128 -128 l 1
 256 -128 l 1
 256 -64 l 1
EndSplineSet
EndChar

StartChar: 013D
Encoding: 317 317 254
Width: 512
Flags: HW
LayerCount: 2
Fore
SplineSet
384 832 m 1
 384 896 l 1
 256 896 l 1
 256 832 l 1
 192 832 l 1
 192 896 l 1
 64 896 l 1
 64 832 l 1
 128 832 l 1
 128 768 l 1
 192 768 l 1
 192 704 l 1
 0 704 l 1
 0 640 l 1
 64 640 l 1
 64 192 l 1
 0 192 l 1
 0 128 l 1
 448 128 l 1
 448 320 l 1
 384 320 l 1
 384 256 l 1
 320 256 l 1
 320 192 l 1
 192 192 l 1
 192 640 l 1
 256 640 l 1
 256 682.667 256 725.333 256 768 c 1
 320 768 l 1
 320 832 l 1
 384 832 l 1
EndSplineSet
EndChar

StartChar: 013E
Encoding: 318 318 255
Width: 512
Flags: HW
LayerCount: 2
Fore
SplineSet
384 128 m 1
 384 192 l 1
 320 192 l 1
 320 362.667 320 533.333 320 704 c 1
 256 704 l 1
 256 768 l 1
 320 768 l 1
 320 832 l 1
 384 832 l 1
 384 896 l 1
 256 896 l 1
 256 832 l 1
 192 832 l 1
 192 896 l 1
 64 896 l 1
 64 832 l 1
 128 832 l 1
 128 768 l 1
 192 768 l 1
 192 704 l 1
 128 704 l 1
 128 640 l 1
 192 640 l 1
 192 192 l 1
 128 192 l 1
 128 128 l 1
 384 128 l 1
EndSplineSet
EndChar

StartChar: 013F
Encoding: 319 319 256
Width: 512
Flags: HW
LayerCount: 2
Fore
SplineSet
256 704 m 1
 256 768 l 1
 0 768 l 1
 0 704 l 1
 64 704 l 1
 64 533.333 64 362.667 64 192 c 1
 0 192 l 1
 0 128 l 1
 448 128 l 1
 448 320 l 1
 384 320 l 1
 384 256 l 1
 320 256 l 1
 320 192 l 1
 192 192 l 1
 192 362.667 192 533.333 192 704 c 1
 256 704 l 1
320 512 m 1
 320 469.333 320 426.667 320 384 c 1
 448 384 l 1
 448 426.667 448 469.333 448 512 c 1
 320 512 l 1
EndSplineSet
EndChar

StartChar: 0140
Encoding: 320 320 257
Width: 512
Flags: HW
LayerCount: 2
Fore
SplineSet
320 128 m 1
 320 192 l 1
 256 192 l 1
 256 768 l 1
 64 768 l 1
 64 704 l 1
 128 704 l 1
 128 533.333 128 362.667 128 192 c 1
 64 192 l 1
 64 128 l 1
 320 128 l 1
320 512 m 1
 320 469.333 320 426.667 320 384 c 1
 448 384 l 1
 448 426.667 448 469.333 448 512 c 1
 320 512 l 1
EndSplineSet
EndChar

StartChar: 0141
Encoding: 321 321 258
Width: 512
Flags: HW
LayerCount: 2
Fore
SplineSet
320 448 m 1
 320 512 l 1
 192 512 l 1
 192 704 l 1
 256 704 l 1
 256 768 l 1
 0 768 l 1
 0 704 l 1
 64 704 l 1
 64 618.667 64 533.333 64 448 c 1
 0 448 l 1
 0 384 l 1
 64 384 l 1
 64 192 l 1
 0 192 l 1
 0 128 l 1
 448 128 l 1
 448 320 l 1
 384 320 l 1
 384 256 l 1
 320 256 l 1
 320 192 l 1
 192 192 l 1
 192 277.333 192 362.667 192 448 c 1
 320 448 l 1
EndSplineSet
EndChar

StartChar: 0142
Encoding: 322 322 259
Width: 512
Flags: HW
LayerCount: 2
Fore
SplineSet
384 128 m 1
 384 192 l 1
 320 192 l 1
 320 277.333 320 362.667 320 448 c 1
 448 448 l 1
 448 512 l 1
 320 512 l 1
 320 597.333 320 682.667 320 768 c 1
 128 768 l 1
 128 704 l 1
 192 704 l 1
 192 618.667 192 533.333 192 448 c 1
 64 448 l 1
 64 384 l 1
 192 384 l 1
 192 192 l 1
 128 192 l 1
 128 128 l 1
 384 128 l 1
EndSplineSet
EndChar

StartChar: 0143
Encoding: 323 323 260
Width: 512
Flags: HW
LayerCount: 2
Fore
SplineSet
384 832 m 1
 384 896 l 1
 256 896 l 1
 256 832 l 1
 192 832 l 1
 192 768 l 1
 320 768 l 1
 320 832 l 1
 384 832 l 1
0 704 m 1
 0 128 l 1
 128 128 l 1
 128 448 l 1
 192 448 l 1
 192 384 l 1
 256 384 l 1
 256 320 l 1
 320 320 l 1
 320 128 l 1
 448 128 l 1
 448 704 l 1
 320 704 l 1
 320 512 l 1
 256 512 l 1
 256 576 l 1
 192 576 l 1
 192 640 l 1
 128 640 l 1
 128 704 l 1
 0 704 l 1
EndSplineSet
EndChar

StartChar: 0144
Encoding: 324 324 261
Width: 512
Flags: HW
LayerCount: 2
Fore
SplineSet
384 704 m 1
 384 768 l 1
 256 768 l 1
 256 704 l 1
 192 704 l 1
 192 640 l 1
 320 640 l 1
 320 704 l 1
 384 704 l 1
64 512 m 1
 64 384 64 256 64 128 c 1
 192 128 l 1
 192 256 192 384 192 512 c 1
 128 512 l 1
 128 576 l 1
 0 576 l 1
 0 512 l 1
 64 512 l 1
320 512 m 1
 320 384 320 256 320 128 c 1
 448 128 l 1
 448 256 448 384 448 512 c 1
 384 512 l 1
 384 576 l 1
 192 576 l 1
 192 512 l 1
 320 512 l 1
EndSplineSet
EndChar

StartChar: 0145
Encoding: 325 325 262
Width: 512
Flags: HW
LayerCount: 2
Fore
SplineSet
256 -64 m 1
 320 -64 l 1
 320 -21.3333 320 21.3333 320 64 c 1
 192 64 l 1
 192 21.3333 192 -21.3333 192 -64 c 1
 128 -64 l 1
 128 -128 l 1
 256 -128 l 1
 256 -64 l 1
0 768 m 1
 -0 554.667 0 341.333 0 128 c 1
 128 128 l 1
 128 256 128 384 128 512 c 1
 192 512 l 1
 192 448 l 1
 256 448 l 1
 256 384 l 1
 320 384 l 1
 320 298.667 320 213.333 320 128 c 1
 448 128 l 1
 448 341.333 448 554.667 448 768 c 1
 320 768 l 1
 320 576 l 1
 256 576 l 1
 256 640 l 1
 192 640 l 1
 192 704 l 1
 128 704 l 1
 128 768 l 1
 0 768 l 1
EndSplineSet
EndChar

StartChar: 0146
Encoding: 326 326 263
Width: 512
Flags: HW
LayerCount: 2
Fore
SplineSet
256 -64 m 1
 320 -64 l 1
 320 -21.3333 320 21.3333 320 64 c 1
 192 64 l 1
 192 21.3333 192 -21.3333 192 -64 c 1
 128 -64 l 1
 128 -128 l 1
 256 -128 l 1
 256 -64 l 1
64 512 m 1
 64 384 64 256 64 128 c 1
 192 128 l 1
 192 256 192 384 192 512 c 1
 128 512 l 1
 128 576 l 1
 0 576 l 1
 0 512 l 1
 64 512 l 1
320 512 m 1
 320 384 320 256 320 128 c 1
 448 128 l 1
 448 256 448 384 448 512 c 1
 384 512 l 1
 384 576 l 1
 192 576 l 1
 192 512 l 1
 320 512 l 1
EndSplineSet
EndChar

StartChar: 0147
Encoding: 327 327 264
Width: 512
Flags: HW
LayerCount: 2
Fore
SplineSet
384 832 m 1
 384 896 l 1
 256 896 l 1
 256 832 l 1
 192 832 l 1
 192 896 l 1
 64 896 l 1
 64 832 l 1
 128 832 l 1
 128 768 l 1
 192 768 l 1
 192 704 l 1
 256 704 l 1
 256 768 l 1
 320 768 l 1
 320 832 l 1
 384 832 l 1
0 704 m 1
 0 128 l 1
 128 128 l 1
 128 448 l 1
 192 448 l 1
 192 384 l 1
 256 384 l 1
 256 320 l 1
 320 320 l 1
 320 128 l 1
 448 128 l 1
 448 704 l 1
 320 704 l 1
 320 512 l 1
 256 512 l 1
 256 576 l 1
 192 576 l 1
 192 640 l 1
 128 640 l 1
 128 704 l 1
 0 704 l 1
EndSplineSet
EndChar

StartChar: 0148
Encoding: 328 328 265
Width: 512
Flags: HW
LayerCount: 2
Fore
SplineSet
384 768 m 1
 384 832 l 1
 256 832 l 1
 256 768 l 1
 192 768 l 1
 192 832 l 1
 64 832 l 1
 64 768 l 1
 128 768 l 1
 128 704 l 1
 192 704 l 1
 192 640 l 1
 256 640 l 1
 256 704 l 1
 320 704 l 1
 320 768 l 1
 384 768 l 1
64 512 m 1
 64 384 64 256 64 128 c 1
 192 128 l 1
 192 256 192 384 192 512 c 1
 128 512 l 1
 128 576 l 1
 0 576 l 1
 0 512 l 1
 64 512 l 1
320 512 m 1
 320 384 320 256 320 128 c 1
 448 128 l 1
 448 256 448 384 448 512 c 1
 384 512 l 1
 384 576 l 1
 192 576 l 1
 192 512 l 1
 320 512 l 1
EndSplineSet
EndChar

StartChar: 0149
Encoding: 329 329 266
Width: 512
Flags: HW
LayerCount: 2
Fore
SplineSet
64 512 m 1
 64 384 64 256 64 128 c 1
 192 128 l 1
 192 256 192 384 192 512 c 1
 128 512 l 1
 128 576 l 1
 0 576 l 1
 0 512 l 1
 64 512 l 1
320 512 m 1
 320 384 320 256 320 128 c 1
 448 128 l 1
 448 256 448 384 448 512 c 1
 384 512 l 1
 384 576 l 1
 192 576 l 1
 192 512 l 1
 320 512 l 1
128 704 m 1
 192 704 l 1
 192 746.667 192 789.333 192 832 c 1
 64 832 l 1
 64 789.333 64 746.667 64 704 c 1
 0 704 l 1
 0 640 l 1
 128 640 l 1
 128 704 l 1
EndSplineSet
EndChar

StartChar: 014A
Encoding: 330 330 267
Width: 512
Flags: HW
LayerCount: 2
Fore
SplineSet
384 0 m 1
 448 0 l 1
 448 256 448 512 448 768 c 1
 320 768 l 1
 320 576 l 1
 256 576 l 1
 256 640 l 1
 192 640 l 1
 192 704 l 1
 128 704 l 1
 128 768 l 1
 0 768 l 1
 -0 554.667 0 341.333 0 128 c 1
 128 128 l 1
 128 256 128 384 128 512 c 1
 192 512 l 1
 192 448 l 1
 256 448 l 1
 256 384 l 1
 320 384 l 1
 320 256 320 128 320 0 c 1
 192 0 l 1
 192 -64 l 1
 384 -64 l 1
 384 0 l 1
EndSplineSet
EndChar

StartChar: 014B
Encoding: 331 331 268
Width: 512
Flags: HW
LayerCount: 2
Fore
SplineSet
384 0 m 1
 448 0 l 1
 448 170.667 448 341.333 448 512 c 1
 384 512 l 1
 384 576 l 1
 192 576 l 1
 192 512 l 1
 128 512 l 1
 128 576 l 1
 0 576 l 1
 0 512 l 1
 64 512 l 1
 64 384 64 256 64 128 c 1
 192 128 l 1
 192 256 192 384 192 512 c 1
 320 512 l 1
 320 341.333 320 170.667 320 0 c 1
 192 0 l 1
 192 -64 l 1
 384 -64 l 1
 384 0 l 1
EndSplineSet
EndChar

StartChar: 014C
Encoding: 332 332 269
Width: 512
Flags: HW
LayerCount: 2
Fore
SplineSet
384 768 m 1
 384 832 l 1
 64 832 l 1
 64 768 l 1
 384 768 l 1
64 192 m 1
 64 128 l 1
 384 128 l 1
 384 192 l 1
 448 192 l 1
 448 640 l 1
 384 640 l 1
 384 704 l 1
 64 704 l 1
 64 640 l 1
 0 640 l 1
 0 192 l 1
 64 192 l 1
128 192 m 1
 128 640 l 1
 320 640 l 1
 320 192 l 1
 128 192 l 1
EndSplineSet
EndChar

StartChar: 014D
Encoding: 333 333 270
Width: 512
Flags: HW
LayerCount: 2
Fore
SplineSet
384 640 m 1
 384 704 l 1
 64 704 l 1
 64 640 l 1
 384 640 l 1
64 192 m 1
 64 128 l 1
 384 128 l 1
 384 192 l 1
 448 192 l 1
 448 512 l 1
 384 512 l 1
 384 576 l 1
 64 576 l 1
 64 512 l 1
 0 512 l 1
 0 192 l 1
 64 192 l 1
128 192 m 1
 128 512 l 1
 320 512 l 1
 320 192 l 1
 128 192 l 1
EndSplineSet
EndChar

StartChar: 014E
Encoding: 334 334 271
Width: 512
Flags: HW
LayerCount: 2
Fore
SplineSet
384 832 m 1
 384 896 l 1
 256 896 l 1
 256 832 l 1
 192 832 l 1
 192 896 l 1
 64 896 l 1
 64 832 l 1
 128 832 l 1
 128 768 l 1
 320 768 l 1
 320 832 l 1
 384 832 l 1
64 192 m 1
 64 128 l 1
 384 128 l 1
 384 192 l 1
 448 192 l 1
 448 640 l 1
 384 640 l 1
 384 704 l 1
 64 704 l 1
 64 640 l 1
 0 640 l 1
 0 192 l 1
 64 192 l 1
128 192 m 1
 128 640 l 1
 320 640 l 1
 320 192 l 1
 128 192 l 1
EndSplineSet
EndChar

StartChar: 014F
Encoding: 335 335 272
Width: 512
Flags: HW
LayerCount: 2
Fore
SplineSet
384 704 m 1
 384 768 l 1
 256 768 l 1
 256 704 l 1
 192 704 l 1
 192 768 l 1
 64 768 l 1
 64 704 l 1
 128 704 l 1
 128 640 l 1
 320 640 l 1
 320 704 l 1
 384 704 l 1
64 192 m 1
 64 128 l 1
 384 128 l 1
 384 192 l 1
 448 192 l 1
 448 512 l 1
 384 512 l 1
 384 576 l 1
 64 576 l 1
 64 512 l 1
 0 512 l 1
 0 192 l 1
 64 192 l 1
128 192 m 1
 128 512 l 1
 320 512 l 1
 320 192 l 1
 128 192 l 1
EndSplineSet
EndChar

StartChar: 0150
Encoding: 336 336 273
Width: 512
Flags: HW
LayerCount: 2
Fore
SplineSet
192 832 m 1
 192 896 l 1
 64 896 l 1
 64 832 l 1
 0 832 l 1
 0 768 l 1
 128 768 l 1
 128 832 l 1
 192 832 l 1
448 832 m 1
 448 896 l 1
 320 896 l 1
 320 832 l 1
 256 832 l 1
 256 768 l 1
 384 768 l 1
 384 832 l 1
 448 832 l 1
64 192 m 1
 64 128 l 1
 384 128 l 1
 384 192 l 1
 448 192 l 1
 448 640 l 1
 384 640 l 1
 384 704 l 1
 64 704 l 1
 64 640 l 1
 0 640 l 1
 0 192 l 1
 64 192 l 1
128 192 m 1
 128 640 l 1
 320 640 l 1
 320 192 l 1
 128 192 l 1
EndSplineSet
EndChar

StartChar: 0151
Encoding: 337 337 274
Width: 512
Flags: HW
LayerCount: 2
Fore
SplineSet
192 704 m 1
 192 768 l 1
 64 768 l 1
 64 704 l 1
 0 704 l 1
 0 640 l 1
 128 640 l 1
 128 704 l 1
 192 704 l 1
448 704 m 1
 448 768 l 1
 320 768 l 1
 320 704 l 1
 256 704 l 1
 256 640 l 1
 384 640 l 1
 384 704 l 1
 448 704 l 1
64 192 m 1
 64 128 l 1
 384 128 l 1
 384 192 l 1
 448 192 l 1
 448 512 l 1
 384 512 l 1
 384 576 l 1
 64 576 l 1
 64 512 l 1
 0 512 l 1
 0 192 l 1
 64 192 l 1
128 192 m 1
 128 512 l 1
 320 512 l 1
 320 192 l 1
 128 192 l 1
EndSplineSet
EndChar

StartChar: 0152
Encoding: 338 338 275
Width: 512
Flags: HW
LayerCount: 2
Fore
SplineSet
448 128 m 1
 448 192 l 1
 320 192 l 1
 320 277.333 320 362.667 320 448 c 1
 448 448 l 1
 448 512 l 1
 320 512 l 1
 320 704 l 1
 448 704 l 1
 448 768 l 1
 256 768 l 1
 256 704 l 1
 192 704 l 1
 192 533.333 192 362.667 192 192 c 1
 128 192 l 1
 128 362.667 128 533.333 128 704 c 1
 192 704 l 1
 192 768 l 1
 64 768 l 1
 64 704 l 1
 0 704 l 1
 -0 533.333 0 362.667 0 192 c 1
 64 192 l 1
 64 128 l 1
 192 128 l 1
 192 192 l 1
 256 192 l 1
 256 128 l 1
 448 128 l 1
EndSplineSet
EndChar

StartChar: 0153
Encoding: 339 339 276
Width: 512
Flags: HW
LayerCount: 2
Fore
SplineSet
448 128 m 1
 448 192 l 1
 320 192 l 1
 320 234.667 320 277.333 320 320 c 1
 448 320 l 1
 448 512 l 1
 384 512 l 1
 384 576 l 1
 256 576 l 1
 256 512 l 1
 192 512 l 1
 192 192 l 1
 128 192 l 1
 128 512 l 1
 192 512 l 1
 192 576 l 1
 64 576 l 1
 64 512 l 1
 0 512 l 1
 0 192 l 1
 64 192 l 1
 64 128 l 1
 192 128 l 1
 192 192 l 1
 256 192 l 1
 256 128 l 1
 448 128 l 1
256 384 m 1
 256 426.667 256 469.333 256 512 c 1
 320 512 l 1
 320 469.333 320 426.667 320 384 c 1
 256 384 l 1
EndSplineSet
EndChar

StartChar: 0154
Encoding: 340 340 277
Width: 512
Flags: HW
LayerCount: 2
Fore
SplineSet
384 832 m 1
 384 896 l 1
 256 896 l 1
 256 832 l 1
 192 832 l 1
 192 768 l 1
 320 768 l 1
 320 832 l 1
 384 832 l 1
64 192 m 1
 0 192 l 1
 0 128 l 1
 192 128 l 1
 192 213.333 192 298.667 192 384 c 1
 256 384 l 1
 256 320 l 1
 320 320 l 1
 320 128 l 1
 448 128 l 1
 448 320 l 1
 384 320 l 1
 384 362.667 384 405.333 384 448 c 1
 448 448 l 1
 448 640 l 1
 384 640 l 1
 384 704 l 1
 0 704 l 1
 0 640 l 1
 64 640 l 1
 64 192 l 1
192 448 m 1
 192 640 l 1
 320 640 l 1
 320 448 l 1
 192 448 l 1
EndSplineSet
EndChar

StartChar: 0155
Encoding: 341 341 278
Width: 512
Flags: HW
LayerCount: 2
Fore
SplineSet
256 128 m 1
 256 192 l 1
 192 192 l 1
 192 277.333 192 362.667 192 448 c 1
 256 448 l 1
 256 512 l 1
 320 512 l 1
 320 469.333 320 426.667 320 384 c 1
 448 384 l 1
 448 426.667 448 469.333 448 512 c 1
 384 512 l 1
 384 576 l 1
 192 576 l 1
 192 512 l 1
 128 512 l 1
 128 576 l 1
 0 576 l 1
 0 512 l 1
 64 512 l 1
 64 192 l 1
 0 192 l 1
 0 128 l 1
 256 128 l 1
384 704 m 1
 384 768 l 1
 256 768 l 1
 256 704 l 1
 192 704 l 1
 192 640 l 1
 320 640 l 1
 320 704 l 1
 384 704 l 1
EndSplineSet
EndChar

StartChar: 0156
Encoding: 342 342 279
Width: 512
Flags: HW
LayerCount: 2
Fore
SplineSet
256 -64 m 1
 320 -64 l 1
 320 -21.3333 320 21.3333 320 64 c 1
 192 64 l 1
 192 21.3333 192 -21.3333 192 -64 c 1
 128 -64 l 1
 128 -128 l 1
 256 -128 l 1
 256 -64 l 1
64 192 m 1
 0 192 l 1
 0 128 l 1
 192 128 l 1
 192 448 l 1
 256 448 l 1
 256 384 l 1
 320 384 l 1
 320 298.667 320 213.333 320 128 c 1
 448 128 l 1
 448 213.333 448 298.667 448 384 c 1
 384 384 l 1
 384 426.667 384 469.333 384 512 c 1
 448 512 l 1
 448 704 l 1
 384 704 l 1
 384 768 l 1
 0 768 l 1
 0 704 l 1
 64 704 l 1
 64 533.333 64 362.667 64 192 c 1
192 512 m 1
 192 704 l 1
 320 704 l 1
 320 512 l 1
 192 512 l 1
EndSplineSet
EndChar

StartChar: 0157
Encoding: 343 343 280
Width: 512
Flags: HW
LayerCount: 2
Fore
SplineSet
256 128 m 1
 256 192 l 1
 192 192 l 1
 192 277.333 192 362.667 192 448 c 1
 256 448 l 1
 256 512 l 1
 320 512 l 1
 320 469.333 320 426.667 320 384 c 1
 448 384 l 1
 448 426.667 448 469.333 448 512 c 1
 384 512 l 1
 384 576 l 1
 192 576 l 1
 192 512 l 1
 128 512 l 1
 128 576 l 1
 0 576 l 1
 0 512 l 1
 64 512 l 1
 64 192 l 1
 0 192 l 1
 0 128 l 1
 256 128 l 1
256 -64 m 1
 320 -64 l 1
 320 -21.3333 320 21.3333 320 64 c 1
 192 64 l 1
 192 21.3333 192 -21.3333 192 -64 c 1
 128 -64 l 1
 128 -128 l 1
 256 -128 l 1
 256 -64 l 1
EndSplineSet
EndChar

StartChar: 0158
Encoding: 344 344 281
Width: 512
Flags: HW
LayerCount: 2
Fore
SplineSet
384 832 m 1
 384 896 l 1
 256 896 l 1
 256 832 l 1
 192 832 l 1
 192 896 l 1
 64 896 l 1
 64 832 l 1
 128 832 l 1
 128 768 l 1
 192 768 l 1
 192 704 l 1
 0 704 l 1
 0 640 l 1
 64 640 l 1
 64 192 l 1
 0 192 l 1
 0 128 l 1
 192 128 l 1
 192 213.333 192 298.667 192 384 c 1
 256 384 l 1
 256 320 l 1
 320 320 l 1
 320 128 l 1
 448 128 l 1
 448 320 l 1
 384 320 l 1
 384 362.667 384 405.333 384 448 c 1
 448 448 l 1
 448 640 l 1
 384 640 l 1
 384 704 l 1
 256 704 l 1
 256 768 l 1
 320 768 l 1
 320 832 l 1
 384 832 l 1
192 448 m 1
 192 640 l 1
 320 640 l 1
 320 448 l 1
 192 448 l 1
EndSplineSet
EndChar

StartChar: 0159
Encoding: 345 345 282
Width: 512
Flags: HW
LayerCount: 2
Fore
SplineSet
256 128 m 1
 256 192 l 1
 192 192 l 1
 192 277.333 192 362.667 192 448 c 1
 256 448 l 1
 256 512 l 1
 320 512 l 1
 320 469.333 320 426.667 320 384 c 1
 448 384 l 1
 448 426.667 448 469.333 448 512 c 1
 384 512 l 1
 384 576 l 1
 192 576 l 1
 192 512 l 1
 128 512 l 1
 128 576 l 1
 0 576 l 1
 0 512 l 1
 64 512 l 1
 64 192 l 1
 0 192 l 1
 0 128 l 1
 256 128 l 1
384 768 m 1
 384 832 l 1
 256 832 l 1
 256 768 l 1
 192 768 l 1
 192 832 l 1
 64 832 l 1
 64 768 l 1
 128 768 l 1
 128 704 l 1
 192 704 l 1
 192 640 l 1
 256 640 l 1
 256 704 l 1
 320 704 l 1
 320 768 l 1
 384 768 l 1
EndSplineSet
EndChar

StartChar: 015A
Encoding: 346 346 283
Width: 512
Flags: HW
LayerCount: 2
Fore
SplineSet
384 832 m 1
 384 896 l 1
 256 896 l 1
 256 832 l 1
 192 832 l 1
 192 768 l 1
 320 768 l 1
 320 832 l 1
 384 832 l 1
64 192 m 1
 64 128 l 1
 384 128 l 1
 384 192 l 1
 448 192 l 1
 448 234.667 448 277.333 448 320 c 1
 384 320 l 1
 384 384 l 1
 320 384 l 1
 320 448 l 1
 192 448 l 1
 192 512 l 1
 128 512 l 1
 128 554.667 128 597.333 128 640 c 1
 320 640 l 1
 320 597.333 320 554.667 320 512 c 1
 448 512 l 1
 448 554.667 448 597.333 448 640 c 1
 384 640 l 1
 384 704 l 1
 64 704 l 1
 64 640 l 1
 0 640 l 1
 -0 597.333 0 554.667 0 512 c 1
 64 512 l 1
 64 448 l 1
 128 448 l 1
 128 384 l 1
 256 384 l 1
 256 320 l 1
 320 320 l 1
 320 277.333 320 234.667 320 192 c 1
 128 192 l 1
 128 234.667 128 277.333 128 320 c 1
 0 320 l 1
 -0 277.333 0 234.667 0 192 c 1
 64 192 l 1
EndSplineSet
EndChar

StartChar: 015B
Encoding: 347 347 284
Width: 512
Flags: HW
LayerCount: 2
Fore
SplineSet
448 192 m 1
 448 256 l 1
 384 256 l 1
 384 320 l 1
 320 320 l 1
 320 384 l 1
 192 384 l 1
 192 448 l 1
 128 448 l 1
 128 512 l 1
 320 512 l 1
 320 448 l 1
 448 448 l 1
 448 512 l 1
 384 512 l 1
 384 576 l 1
 64 576 l 1
 64 512 l 1
 0 512 l 1
 0 448 l 1
 64 448 l 1
 64 384 l 1
 128 384 l 1
 128 320 l 1
 256 320 l 1
 256 256 l 1
 320 256 l 1
 320 192 l 1
 128 192 l 1
 128 256 l 1
 0 256 l 1
 0 192 l 1
 64 192 l 1
 64 128 l 1
 384 128 l 1
 384 192 l 1
 448 192 l 1
384 704 m 1
 384 768 l 1
 256 768 l 1
 256 704 l 1
 192 704 l 1
 192 640 l 1
 320 640 l 1
 320 704 l 1
 384 704 l 1
EndSplineSet
EndChar

StartChar: 015C
Encoding: 348 348 285
Width: 512
Flags: HW
LayerCount: 2
Fore
SplineSet
64 192 m 1
 64 128 l 1
 384 128 l 1
 384 192 l 1
 448 192 l 1
 448 234.667 448 277.333 448 320 c 1
 384 320 l 1
 384 384 l 1
 320 384 l 1
 320 448 l 1
 192 448 l 1
 192 512 l 1
 128 512 l 1
 128 554.667 128 597.333 128 640 c 1
 320 640 l 1
 320 597.333 320 554.667 320 512 c 1
 448 512 l 1
 448 554.667 448 597.333 448 640 c 1
 384 640 l 1
 384 682.667 384 725.333 384 768 c 1
 320 768 l 1
 320 704 l 1
 128 704 l 1
 128 768 l 1
 64 768 l 1
 64 725.333 64 682.667 64 640 c 1
 0 640 l 1
 -0 597.333 0 554.667 0 512 c 1
 64 512 l 1
 64 448 l 1
 128 448 l 1
 128 384 l 1
 256 384 l 1
 256 320 l 1
 320 320 l 1
 320 277.333 320 234.667 320 192 c 1
 128 192 l 1
 128 234.667 128 277.333 128 320 c 1
 0 320 l 1
 -0 277.333 0 234.667 0 192 c 1
 64 192 l 1
128 768 m 1
 320 768 l 1
 320 832 l 1
 256 832 l 1
 256 896 l 1
 192 896 l 1
 192 832 l 1
 128 832 l 1
 128 768 l 1
EndSplineSet
EndChar

StartChar: 015D
Encoding: 349 349 286
Width: 512
Flags: HW
LayerCount: 2
Fore
SplineSet
448 192 m 1
 448 256 l 1
 384 256 l 1
 384 320 l 1
 320 320 l 1
 320 384 l 1
 192 384 l 1
 192 448 l 1
 128 448 l 1
 128 512 l 1
 320 512 l 1
 320 448 l 1
 448 448 l 1
 448 512 l 1
 384 512 l 1
 384 576 l 1
 64 576 l 1
 64 512 l 1
 0 512 l 1
 0 448 l 1
 64 448 l 1
 64 384 l 1
 128 384 l 1
 128 320 l 1
 256 320 l 1
 256 256 l 1
 320 256 l 1
 320 192 l 1
 128 192 l 1
 128 256 l 1
 0 256 l 1
 0 192 l 1
 64 192 l 1
 64 128 l 1
 384 128 l 1
 384 192 l 1
 448 192 l 1
384 640 m 1
 384 704 l 1
 320 704 l 1
 320 768 l 1
 256 768 l 1
 256 832 l 1
 192 832 l 1
 192 768 l 1
 128 768 l 1
 128 704 l 1
 64 704 l 1
 64 640 l 1
 192 640 l 1
 192 704 l 1
 256 704 l 1
 256 640 l 1
 384 640 l 1
EndSplineSet
EndChar

StartChar: 015E
Encoding: 350 350 287
Width: 512
Flags: HW
LayerCount: 2
Fore
SplineSet
384 0 m 1
 384 64 l 1
 320 64 l 1
 320 128 l 1
 384 128 l 1
 384 192 l 1
 448 192 l 1
 448 234.667 448 277.333 448 320 c 1
 384 320 l 1
 384 384 l 1
 320 384 l 1
 320 448 l 1
 192 448 l 1
 192 512 l 1
 128 512 l 1
 128 554.667 128 597.333 128 640 c 1
 320 640 l 1
 320 597.333 320 554.667 320 512 c 1
 448 512 l 1
 448 554.667 448 597.333 448 640 c 1
 384 640 l 1
 384 704 l 1
 64 704 l 1
 64 640 l 1
 0 640 l 1
 -0 597.333 0 554.667 0 512 c 1
 64 512 l 1
 64 448 l 1
 128 448 l 1
 128 384 l 1
 256 384 l 1
 256 320 l 1
 320 320 l 1
 320 277.333 320 234.667 320 192 c 1
 128 192 l 1
 128 234.667 128 277.333 128 320 c 1
 0 320 l 1
 -0 277.333 0 234.667 0 192 c 1
 64 192 l 1
 64 128 l 1
 192 128 l 1
 192 64 l 1
 256 64 l 1
 256 0 l 1
 128 0 l 1
 128 -64 l 1
 320 -64 l 1
 320 0 l 1
 384 0 l 1
EndSplineSet
EndChar

StartChar: 015F
Encoding: 351 351 288
Width: 512
Flags: HW
LayerCount: 2
Fore
SplineSet
384 0 m 1
 384 64 l 1
 320 64 l 1
 320 128 l 1
 384 128 l 1
 384 192 l 1
 448 192 l 1
 448 256 l 1
 384 256 l 1
 384 320 l 1
 320 320 l 1
 320 384 l 1
 192 384 l 1
 192 448 l 1
 128 448 l 1
 128 512 l 1
 320 512 l 1
 320 448 l 1
 448 448 l 1
 448 512 l 1
 384 512 l 1
 384 576 l 1
 64 576 l 1
 64 512 l 1
 0 512 l 1
 0 448 l 1
 64 448 l 1
 64 384 l 1
 128 384 l 1
 128 320 l 1
 256 320 l 1
 256 256 l 1
 320 256 l 1
 320 192 l 1
 128 192 l 1
 128 256 l 1
 0 256 l 1
 0 192 l 1
 64 192 l 1
 64 128 l 1
 192 128 l 1
 192 64 l 1
 256 64 l 1
 256 0 l 1
 128 0 l 1
 128 -64 l 1
 320 -64 l 1
 320 0 l 1
 384 0 l 1
EndSplineSet
EndChar

StartChar: 0160
Encoding: 352 352 289
Width: 512
Flags: HW
LayerCount: 2
Fore
SplineSet
384 832 m 1
 384 896 l 1
 256 896 l 1
 256 832 l 1
 192 832 l 1
 192 896 l 1
 64 896 l 1
 64 832 l 1
 128 832 l 1
 128 768 l 1
 192 768 l 1
 192 704 l 1
 64 704 l 1
 64 640 l 1
 0 640 l 1
 -0 597.333 0 554.667 0 512 c 1
 64 512 l 1
 64 448 l 1
 128 448 l 1
 128 384 l 1
 256 384 l 1
 256 320 l 1
 320 320 l 1
 320 277.333 320 234.667 320 192 c 1
 128 192 l 1
 128 234.667 128 277.333 128 320 c 1
 0 320 l 1
 -0 277.333 0 234.667 0 192 c 1
 64 192 l 1
 64 128 l 1
 384 128 l 1
 384 192 l 1
 448 192 l 1
 448 234.667 448 277.333 448 320 c 1
 384 320 l 1
 384 384 l 1
 320 384 l 1
 320 448 l 1
 192 448 l 1
 192 512 l 1
 128 512 l 1
 128 554.667 128 597.333 128 640 c 1
 320 640 l 1
 320 597.333 320 554.667 320 512 c 1
 448 512 l 1
 448 554.667 448 597.333 448 640 c 1
 384 640 l 1
 384 704 l 1
 256 704 l 1
 256 768 l 1
 320 768 l 1
 320 832 l 1
 384 832 l 1
EndSplineSet
EndChar

StartChar: 0161
Encoding: 353 353 290
Width: 512
Flags: HW
LayerCount: 2
Fore
SplineSet
448 192 m 1
 448 256 l 1
 384 256 l 1
 384 320 l 1
 320 320 l 1
 320 384 l 1
 192 384 l 1
 192 448 l 1
 128 448 l 1
 128 512 l 1
 320 512 l 1
 320 448 l 1
 448 448 l 1
 448 512 l 1
 384 512 l 1
 384 576 l 1
 64 576 l 1
 64 512 l 1
 0 512 l 1
 0 448 l 1
 64 448 l 1
 64 384 l 1
 128 384 l 1
 128 320 l 1
 256 320 l 1
 256 256 l 1
 320 256 l 1
 320 192 l 1
 128 192 l 1
 128 256 l 1
 0 256 l 1
 0 192 l 1
 64 192 l 1
 64 128 l 1
 384 128 l 1
 384 192 l 1
 448 192 l 1
384 768 m 1
 384 832 l 1
 256 832 l 1
 256 768 l 1
 192 768 l 1
 192 832 l 1
 64 832 l 1
 64 768 l 1
 128 768 l 1
 128 704 l 1
 192 704 l 1
 192 640 l 1
 256 640 l 1
 256 704 l 1
 320 704 l 1
 320 768 l 1
 384 768 l 1
EndSplineSet
EndChar

StartChar: 0162
Encoding: 354 354 291
Width: 512
Flags: HW
LayerCount: 2
Fore
SplineSet
384 0 m 1
 384 64 l 1
 320 64 l 1
 320 128 l 1
 384 128 l 1
 384 192 l 1
 320 192 l 1
 320 640 l 1
 384 640 l 1
 384 576 l 1
 448 576 l 1
 448 768 l 1
 64 768 l 1
 64 576 l 1
 128 576 l 1
 128 640 l 1
 192 640 l 1
 192 192 l 1
 128 192 l 1
 128 128 l 1
 192 128 l 1
 192 64 l 1
 256 64 l 1
 256 0 l 1
 128 0 l 1
 128 -64 l 1
 320 -64 l 1
 320 0 l 1
 384 0 l 1
EndSplineSet
EndChar

StartChar: 0163
Encoding: 355 355 292
Width: 512
Flags: HW
LayerCount: 2
Fore
SplineSet
384 0 m 1
 384 64 l 1
 320 64 l 1
 320 128 l 1
 384 128 l 1
 384 192 l 1
 448 192 l 1
 448 256 l 1
 320 256 l 1
 320 192 l 1
 256 192 l 1
 256 512 l 1
 384 512 l 1
 384 576 l 1
 256 576 l 1
 256 768 l 1
 192 768 l 1
 192 704 l 1
 128 704 l 1
 128 661.333 128 618.667 128 576 c 1
 0 576 l 1
 0 512 l 1
 128 512 l 1
 128 192 l 1
 192 192 l 1
 192 149.333 192 106.667 192 64 c 1
 256 64 l 1
 256 0 l 1
 128 0 l 1
 128 -64 l 1
 320 -64 l 1
 320 0 l 1
 384 0 l 1
EndSplineSet
EndChar

StartChar: 0164
Encoding: 356 356 293
Width: 512
Flags: HW
LayerCount: 2
Fore
SplineSet
384 128 m 1
 384 192 l 1
 320 192 l 1
 320 320 320 448 320 576 c 1
 384 576 l 1
 384 512 l 1
 448 512 l 1
 448 704 l 1
 256 704 l 1
 256 768 l 1
 320 768 l 1
 320 832 l 1
 384 832 l 1
 384 896 l 1
 256 896 l 1
 256 832 l 1
 192 832 l 1
 192 896 l 1
 64 896 l 1
 64 832 l 1
 128 832 l 1
 128 768 l 1
 192 768 l 1
 192 704 l 1
 64 704 l 1
 64 512 l 1
 128 512 l 1
 128 576 l 1
 192 576 l 1
 192 448 192 320 192 192 c 1
 128 192 l 1
 128 128 l 1
 384 128 l 1
EndSplineSet
EndChar

StartChar: 0165
Encoding: 357 357 294
Width: 512
Flags: HW
LayerCount: 2
Fore
SplineSet
448 192 m 1
 448 256 l 1
 320 256 l 1
 320 192 l 1
 256 192 l 1
 256 512 l 1
 384 512 l 1
 384 576 l 1
 256 576 l 1
 256 768 l 1
 320 768 l 1
 320 832 l 1
 384 832 l 1
 384 896 l 1
 256 896 l 1
 256 832 l 1
 192 832 l 1
 192 896 l 1
 64 896 l 1
 64 832 l 1
 128 832 l 1
 128 768 l 1
 192 768 l 1
 192 725.333 192 682.667 192 640 c 1
 128 640 l 1
 128 576 l 1
 0 576 l 1
 0 512 l 1
 128 512 l 1
 128 192 l 1
 192 192 l 1
 192 128 l 1
 384 128 l 1
 384 192 l 1
 448 192 l 1
EndSplineSet
EndChar

StartChar: 0166
Encoding: 358 358 295
Width: 512
Flags: HW
LayerCount: 2
Fore
SplineSet
384 128 m 1
 384 192 l 1
 320 192 l 1
 320 384 l 1
 384 384 l 1
 384 448 l 1
 320 448 l 1
 320 640 l 1
 384 640 l 1
 384 576 l 1
 448 576 l 1
 448 768 l 1
 64 768 l 1
 64 576 l 1
 128 576 l 1
 128 640 l 1
 192 640 l 1
 192 448 l 1
 128 448 l 1
 128 384 l 1
 192 384 l 1
 192 192 l 1
 128 192 l 1
 128 128 l 1
 384 128 l 1
EndSplineSet
EndChar

StartChar: 0167
Encoding: 359 359 296
Width: 512
Flags: HW
LayerCount: 2
Fore
SplineSet
448 192 m 1
 448 256 l 1
 320 256 l 1
 320 192 l 1
 256 192 l 1
 256 384 l 1
 384 384 l 1
 384 448 l 1
 256 448 l 1
 256 512 l 1
 384 512 l 1
 384 576 l 1
 256 576 l 1
 256 768 l 1
 192 768 l 1
 192 704 l 1
 128 704 l 1
 128 661.333 128 618.667 128 576 c 1
 0 576 l 1
 0 512 l 1
 128 512 l 1
 128 448 l 1
 0 448 l 1
 0 384 l 1
 128 384 l 1
 128 192 l 1
 192 192 l 1
 192 128 l 1
 384 128 l 1
 384 192 l 1
 448 192 l 1
EndSplineSet
EndChar

StartChar: 0168
Encoding: 360 360 297
Width: 512
Flags: HW
LayerCount: 2
Fore
SplineSet
448 832 m 1
 448 896 l 1
 320 896 l 1
 320 832 l 1
 256 832 l 1
 256 896 l 1
 64 896 l 1
 64 832 l 1
 0 832 l 1
 0 768 l 1
 128 768 l 1
 128 832 l 1
 192 832 l 1
 192 768 l 1
 384 768 l 1
 384 832 l 1
 448 832 l 1
64 192 m 1
 64 128 l 1
 384 128 l 1
 384 192 l 1
 448 192 l 1
 448 362.667 448 533.333 448 704 c 1
 320 704 l 1
 320 533.333 320 362.667 320 192 c 1
 128 192 l 1
 128 362.667 128 533.333 128 704 c 1
 0 704 l 1
 -0 533.333 0 362.667 0 192 c 1
 64 192 l 1
EndSplineSet
EndChar

StartChar: 0169
Encoding: 361 361 298
Width: 512
Flags: HW
LayerCount: 2
Fore
SplineSet
448 128 m 1
 448 192 l 1
 384 192 l 1
 384 320 384 448 384 576 c 1
 256 576 l 1
 256 448 256 320 256 192 c 1
 128 192 l 1
 128 320 128 448 128 576 c 1
 0 576 l 1
 -0 448 0 320 0 192 c 1
 64 192 l 1
 64 128 l 1
 256 128 l 1
 256 192 l 1
 320 192 l 1
 320 128 l 1
 448 128 l 1
448 704 m 1
 448 768 l 1
 320 768 l 1
 320 704 l 1
 256 704 l 1
 256 768 l 1
 64 768 l 1
 64 704 l 1
 0 704 l 1
 0 640 l 1
 128 640 l 1
 128 704 l 1
 192 704 l 1
 192 640 l 1
 384 640 l 1
 384 704 l 1
 448 704 l 1
EndSplineSet
EndChar

StartChar: 016A
Encoding: 362 362 299
Width: 512
Flags: HW
LayerCount: 2
Fore
SplineSet
384 768 m 1
 384 832 l 1
 64 832 l 1
 64 768 l 1
 384 768 l 1
64 192 m 1
 64 128 l 1
 384 128 l 1
 384 192 l 1
 448 192 l 1
 448 362.667 448 533.333 448 704 c 1
 320 704 l 1
 320 533.333 320 362.667 320 192 c 1
 128 192 l 1
 128 362.667 128 533.333 128 704 c 1
 0 704 l 1
 -0 533.333 0 362.667 0 192 c 1
 64 192 l 1
EndSplineSet
EndChar

StartChar: 016B
Encoding: 363 363 300
Width: 512
Flags: HW
LayerCount: 2
Fore
SplineSet
448 128 m 1
 448 192 l 1
 384 192 l 1
 384 320 384 448 384 576 c 1
 256 576 l 1
 256 448 256 320 256 192 c 1
 128 192 l 1
 128 320 128 448 128 576 c 1
 0 576 l 1
 -0 448 0 320 0 192 c 1
 64 192 l 1
 64 128 l 1
 256 128 l 1
 256 192 l 1
 320 192 l 1
 320 128 l 1
 448 128 l 1
320 640 m 1
 320 704 l 1
 64 704 l 1
 64 640 l 1
 320 640 l 1
EndSplineSet
EndChar

StartChar: 016C
Encoding: 364 364 301
Width: 512
Flags: HW
LayerCount: 2
Fore
SplineSet
384 832 m 1
 384 896 l 1
 256 896 l 1
 256 832 l 1
 192 832 l 1
 192 896 l 1
 64 896 l 1
 64 832 l 1
 128 832 l 1
 128 768 l 1
 320 768 l 1
 320 832 l 1
 384 832 l 1
64 192 m 1
 64 128 l 1
 384 128 l 1
 384 192 l 1
 448 192 l 1
 448 362.667 448 533.333 448 704 c 1
 320 704 l 1
 320 533.333 320 362.667 320 192 c 1
 128 192 l 1
 128 362.667 128 533.333 128 704 c 1
 0 704 l 1
 -0 533.333 0 362.667 0 192 c 1
 64 192 l 1
EndSplineSet
EndChar

StartChar: 016D
Encoding: 365 365 302
Width: 512
Flags: HW
LayerCount: 2
Fore
SplineSet
448 128 m 1
 448 192 l 1
 384 192 l 1
 384 320 384 448 384 576 c 1
 256 576 l 1
 256 448 256 320 256 192 c 1
 128 192 l 1
 128 320 128 448 128 576 c 1
 0 576 l 1
 -0 448 0 320 0 192 c 1
 64 192 l 1
 64 128 l 1
 256 128 l 1
 256 192 l 1
 320 192 l 1
 320 128 l 1
 448 128 l 1
384 704 m 1
 384 768 l 1
 256 768 l 1
 256 704 l 1
 128 704 l 1
 128 768 l 1
 0 768 l 1
 0 704 l 1
 64 704 l 1
 64 640 l 1
 320 640 l 1
 320 704 l 1
 384 704 l 1
EndSplineSet
EndChar

StartChar: 016E
Encoding: 366 366 303
Width: 512
Flags: HW
LayerCount: 2
Fore
SplineSet
384 768 m 1
 384 832 l 1
 320 832 l 1
 320 896 l 1
 128 896 l 1
 128 832 l 1
 64 832 l 1
 64 768 l 1
 128 768 l 1
 128 704 l 1
 0 704 l 1
 -0 533.333 0 362.667 0 192 c 1
 64 192 l 1
 64 128 l 1
 384 128 l 1
 384 192 l 1
 448 192 l 1
 448 362.667 448 533.333 448 704 c 1
 320 704 l 1
 320 533.333 320 362.667 320 192 c 1
 128 192 l 1
 128 362.667 128 533.333 128 704 c 1
 320 704 l 1
 320 768 l 1
 384 768 l 1
192 768 m 1
 192 832 l 1
 256 832 l 1
 256 768 l 1
 192 768 l 1
EndSplineSet
EndChar

StartChar: 016F
Encoding: 367 367 304
Width: 512
Flags: HW
LayerCount: 2
Fore
SplineSet
448 128 m 1
 448 192 l 1
 384 192 l 1
 384 320 384 448 384 576 c 1
 256 576 l 1
 256 448 256 320 256 192 c 1
 128 192 l 1
 128 320 128 448 128 576 c 1
 0 576 l 1
 -0 448 0 320 0 192 c 1
 64 192 l 1
 64 128 l 1
 256 128 l 1
 256 192 l 1
 320 192 l 1
 320 128 l 1
 448 128 l 1
384 704 m 1
 384 768 l 1
 320 768 l 1
 320 832 l 1
 128 832 l 1
 128 768 l 1
 64 768 l 1
 64 704 l 1
 128 704 l 1
 128 640 l 1
 320 640 l 1
 320 704 l 1
 384 704 l 1
192 704 m 1
 192 768 l 1
 256 768 l 1
 256 704 l 1
 192 704 l 1
EndSplineSet
EndChar

StartChar: 0170
Encoding: 368 368 305
Width: 512
Flags: HW
LayerCount: 2
Fore
SplineSet
192 832 m 1
 192 896 l 1
 64 896 l 1
 64 832 l 1
 0 832 l 1
 0 768 l 1
 128 768 l 1
 128 832 l 1
 192 832 l 1
448 832 m 1
 448 896 l 1
 320 896 l 1
 320 832 l 1
 256 832 l 1
 256 768 l 1
 384 768 l 1
 384 832 l 1
 448 832 l 1
64 192 m 1
 64 128 l 1
 384 128 l 1
 384 192 l 1
 448 192 l 1
 448 362.667 448 533.333 448 704 c 1
 320 704 l 1
 320 533.333 320 362.667 320 192 c 1
 128 192 l 1
 128 362.667 128 533.333 128 704 c 1
 0 704 l 1
 -0 533.333 0 362.667 0 192 c 1
 64 192 l 1
EndSplineSet
EndChar

StartChar: 0171
Encoding: 369 369 306
Width: 512
Flags: HW
LayerCount: 2
Fore
SplineSet
448 128 m 1
 448 192 l 1
 384 192 l 1
 384 320 384 448 384 576 c 1
 256 576 l 1
 256 448 256 320 256 192 c 1
 128 192 l 1
 128 320 128 448 128 576 c 1
 0 576 l 1
 -0 448 0 320 0 192 c 1
 64 192 l 1
 64 128 l 1
 256 128 l 1
 256 192 l 1
 320 192 l 1
 320 128 l 1
 448 128 l 1
192 704 m 1
 192 768 l 1
 64 768 l 1
 64 704 l 1
 0 704 l 1
 0 640 l 1
 128 640 l 1
 128 704 l 1
 192 704 l 1
448 704 m 1
 448 768 l 1
 320 768 l 1
 320 704 l 1
 256 704 l 1
 256 640 l 1
 384 640 l 1
 384 704 l 1
 448 704 l 1
EndSplineSet
EndChar

StartChar: 0172
Encoding: 370 370 307
Width: 512
Flags: HW
LayerCount: 2
Fore
SplineSet
320 -64 m 1
 320 0 l 1
 192 0 l 1
 192 64 l 1
 256 64 l 1
 256 128 l 1
 384 128 l 1
 384 192 l 1
 448 192 l 1
 448 362.667 448 533.333 448 704 c 1
 320 704 l 1
 320 533.333 320 362.667 320 192 c 1
 128 192 l 1
 128 362.667 128 533.333 128 704 c 1
 0 704 l 1
 -0 533.333 0 362.667 0 192 c 1
 64 192 l 1
 64 128 l 1
 128 128 l 1
 128 64 l 1
 64 64 l 1
 64 0 l 1
 128 0 l 1
 128 -64 l 1
 320 -64 l 1
EndSplineSet
EndChar

StartChar: 0173
Encoding: 371 371 308
Width: 512
Flags: HW
LayerCount: 2
Fore
SplineSet
320 -64 m 1
 320 0 l 1
 192 0 l 1
 192 64 l 1
 256 64 l 1
 256 106.667 256 149.333 256 192 c 1
 128 192 l 1
 128 320 128 448 128 576 c 1
 0 576 l 1
 -0 448 0 320 0 192 c 1
 64 192 l 1
 64 128 l 1
 128 128 l 1
 128 64 l 1
 64 64 l 1
 64 0 l 1
 128 0 l 1
 128 -64 l 1
 320 -64 l 1
448 128 m 1
 448 192 l 1
 384 192 l 1
 384 320 384 448 384 576 c 1
 256 576 l 1
 256 448 256 320 256 192 c 1
 320 192 l 1
 320 128 l 1
 448 128 l 1
EndSplineSet
EndChar

StartChar: 0174
Encoding: 372 372 309
Width: 512
Flags: HW
LayerCount: 2
Fore
SplineSet
64 192 m 1
 64 128 l 1
 192 128 l 1
 192 170.667 192 213.333 192 256 c 1
 256 256 l 1
 256 213.333 256 170.667 256 128 c 1
 384 128 l 1
 384 192 l 1
 448 192 l 1
 448 362.667 448 533.333 448 704 c 1
 384 704 l 1
 384 768 l 1
 320 768 l 1
 320 320 l 1
 256 320 l 1
 256 512 l 1
 192 512 l 1
 192 320 l 1
 128 320 l 1
 128 768 l 1
 64 768 l 1
 64 704 l 1
 0 704 l 1
 -0 533.333 0 362.667 0 192 c 1
 64 192 l 1
128 768 m 1
 320 768 l 1
 320 832 l 1
 256 832 l 1
 256 896 l 1
 192 896 l 1
 192 832 l 1
 128 832 l 1
 128 768 l 1
EndSplineSet
EndChar

StartChar: 0175
Encoding: 373 373 310
Width: 512
Flags: HW
LayerCount: 2
Fore
SplineSet
384 640 m 1
 384 704 l 1
 320 704 l 1
 320 768 l 1
 256 768 l 1
 256 832 l 1
 192 832 l 1
 192 768 l 1
 128 768 l 1
 128 704 l 1
 64 704 l 1
 64 640 l 1
 192 640 l 1
 192 704 l 1
 256 704 l 1
 256 640 l 1
 384 640 l 1
384 192 m 1
 448 192 l 1
 448 320 448 448 448 576 c 1
 320 576 l 1
 320 256 l 1
 256 256 l 1
 256 448 l 1
 192 448 l 1
 192 256 l 1
 128 256 l 1
 128 576 l 1
 0 576 l 1
 -0 448 0 320 0 192 c 1
 64 192 l 1
 64 128 l 1
 192 128 l 1
 192 192 l 1
 256 192 l 1
 256 128 l 1
 384 128 l 1
 384 192 l 1
EndSplineSet
EndChar

StartChar: 0176
Encoding: 374 374 311
Width: 512
Flags: HW
LayerCount: 2
Fore
SplineSet
384 128 m 1
 384 192 l 1
 320 192 l 1
 320 277.333 320 362.667 320 448 c 1
 384 448 l 1
 384 512 l 1
 448 512 l 1
 448 704 l 1
 384 704 l 1
 384 768 l 1
 320 768 l 1
 320 682.667 320 597.333 320 512 c 1
 192 512 l 1
 192 704 l 1
 128 704 l 1
 128 768 l 1
 64 768 l 1
 64 682.667 64 597.333 64 512 c 1
 128 512 l 1
 128 448 l 1
 192 448 l 1
 192 362.667 192 277.333 192 192 c 1
 128 192 l 1
 128 128 l 1
 384 128 l 1
128 768 m 1
 320 768 l 1
 320 832 l 1
 256 832 l 1
 256 896 l 1
 192 896 l 1
 192 832 l 1
 128 832 l 1
 128 768 l 1
EndSplineSet
EndChar

StartChar: 0177
Encoding: 375 375 312
Width: 512
Flags: HW
LayerCount: 2
Fore
SplineSet
384 640 m 1
 384 704 l 1
 320 704 l 1
 320 768 l 1
 256 768 l 1
 256 832 l 1
 192 832 l 1
 192 768 l 1
 128 768 l 1
 128 704 l 1
 64 704 l 1
 64 640 l 1
 192 640 l 1
 192 704 l 1
 256 704 l 1
 256 640 l 1
 384 640 l 1
320 0 m 1
 384 0 l 1
 384 64 l 1
 448 64 l 1
 448 234.667 448 405.333 448 576 c 1
 320 576 l 1
 320 448 320 320 320 192 c 1
 128 192 l 1
 128 320 128 448 128 576 c 1
 0 576 l 1
 -0 448 0 320 0 192 c 1
 64 192 l 1
 64 128 l 1
 320 128 l 1
 320 64 l 1
 256 64 l 1
 256 0 l 1
 0 0 l 1
 0 -64 l 1
 320 -64 l 1
 320 0 l 1
EndSplineSet
EndChar

StartChar: 0178
Encoding: 376 376 313
Width: 512
Flags: HW
LayerCount: 2
Fore
SplineSet
384 128 m 1
 384 192 l 1
 320 192 l 1
 320 277.333 320 362.667 320 448 c 1
 384 448 l 1
 384 512 l 1
 448 512 l 1
 448 704 l 1
 320 704 l 1
 320 512 l 1
 192 512 l 1
 192 704 l 1
 64 704 l 1
 64 512 l 1
 128 512 l 1
 128 448 l 1
 192 448 l 1
 192 362.667 192 277.333 192 192 c 1
 128 192 l 1
 128 128 l 1
 384 128 l 1
64 896 m 1
 64 853.333 64 810.667 64 768 c 1
 192 768 l 1
 192 810.667 192 853.333 192 896 c 1
 64 896 l 1
320 896 m 1
 320 853.333 320 810.667 320 768 c 1
 448 768 l 1
 448 810.667 448 853.333 448 896 c 1
 320 896 l 1
EndSplineSet
EndChar

StartChar: 0179
Encoding: 377 377 314
Width: 512
Flags: HW
LayerCount: 2
Fore
SplineSet
384 832 m 1
 384 896 l 1
 256 896 l 1
 256 832 l 1
 192 832 l 1
 192 768 l 1
 320 768 l 1
 320 832 l 1
 384 832 l 1
0 320 m 1
 0 128 l 1
 448 128 l 1
 448 320 l 1
 384 320 l 1
 384 256 l 1
 320 256 l 1
 320 192 l 1
 128 192 l 1
 128 234.667 128 277.333 128 320 c 1
 192 320 l 1
 192 384 l 1
 256 384 l 1
 256 448 l 1
 320 448 l 1
 320 512 l 1
 384 512 l 1
 384 576 l 1
 448 576 l 1
 448 618.667 448 661.333 448 704 c 1
 0 704 l 1
 0 512 l 1
 64 512 l 1
 64 576 l 1
 128 576 l 1
 128 640 l 1
 320 640 l 1
 320 576 l 1
 256 576 l 1
 256 512 l 1
 192 512 l 1
 192 448 l 1
 128 448 l 1
 128 384 l 1
 64 384 l 1
 64 320 l 1
 0 320 l 1
EndSplineSet
EndChar

StartChar: 017A
Encoding: 378 378 315
Width: 512
Flags: HW
LayerCount: 2
Fore
SplineSet
448 512 m 1
 448 576 l 1
 0 576 l 1
 -0 533.333 0 490.667 0 448 c 1
 128 448 l 1
 128 512 l 1
 256 512 l 1
 256 448 l 1
 192 448 l 1
 192 384 l 1
 128 384 l 1
 128 320 l 1
 64 320 l 1
 64 256 l 1
 0 256 l 1
 -0 213.333 0 170.667 0 128 c 1
 448 128 l 1
 448 170.667 448 213.333 448 256 c 1
 320 256 l 1
 320 192 l 1
 128 192 l 1
 128 256 l 1
 192 256 l 1
 192 320 l 1
 256 320 l 1
 256 384 l 1
 320 384 l 1
 320 448 l 1
 384 448 l 1
 384 512 l 1
 448 512 l 1
384 704 m 1
 384 768 l 1
 256 768 l 1
 256 704 l 1
 192 704 l 1
 192 640 l 1
 320 640 l 1
 320 704 l 1
 384 704 l 1
EndSplineSet
EndChar

StartChar: 017B
Encoding: 379 379 316
Width: 512
Flags: HW
LayerCount: 2
Fore
SplineSet
0 320 m 1
 0 128 l 1
 448 128 l 1
 448 320 l 1
 384 320 l 1
 384 256 l 1
 320 256 l 1
 320 192 l 1
 128 192 l 1
 128 234.667 128 277.333 128 320 c 1
 192 320 l 1
 192 384 l 1
 256 384 l 1
 256 448 l 1
 320 448 l 1
 320 512 l 1
 384 512 l 1
 384 576 l 1
 448 576 l 1
 448 618.667 448 661.333 448 704 c 1
 0 704 l 1
 0 512 l 1
 64 512 l 1
 64 576 l 1
 128 576 l 1
 128 640 l 1
 320 640 l 1
 320 576 l 1
 256 576 l 1
 256 512 l 1
 192 512 l 1
 192 448 l 1
 128 448 l 1
 128 384 l 1
 64 384 l 1
 64 320 l 1
 0 320 l 1
192 896 m 1
 192 853.333 192 810.667 192 768 c 1
 320 768 l 1
 320 810.667 320 853.333 320 896 c 1
 192 896 l 1
EndSplineSet
EndChar

StartChar: 017C
Encoding: 380 380 317
Width: 512
Flags: HW
LayerCount: 2
Fore
SplineSet
448 512 m 1
 448 576 l 1
 0 576 l 1
 -0 533.333 0 490.667 0 448 c 1
 128 448 l 1
 128 512 l 1
 256 512 l 1
 256 448 l 1
 192 448 l 1
 192 384 l 1
 128 384 l 1
 128 320 l 1
 64 320 l 1
 64 256 l 1
 0 256 l 1
 -0 213.333 0 170.667 0 128 c 1
 448 128 l 1
 448 170.667 448 213.333 448 256 c 1
 320 256 l 1
 320 192 l 1
 128 192 l 1
 128 256 l 1
 192 256 l 1
 192 320 l 1
 256 320 l 1
 256 384 l 1
 320 384 l 1
 320 448 l 1
 384 448 l 1
 384 512 l 1
 448 512 l 1
192 768 m 1
 192 725.333 192 682.667 192 640 c 1
 320 640 l 1
 320 682.667 320 725.333 320 768 c 1
 192 768 l 1
EndSplineSet
EndChar

StartChar: 017D
Encoding: 381 381 318
Width: 512
Flags: HW
LayerCount: 2
Fore
SplineSet
384 832 m 1
 384 896 l 1
 256 896 l 1
 256 832 l 1
 192 832 l 1
 192 896 l 1
 64 896 l 1
 64 832 l 1
 128 832 l 1
 128 768 l 1
 192 768 l 1
 192 704 l 1
 0 704 l 1
 0 512 l 1
 64 512 l 1
 64 576 l 1
 128 576 l 1
 128 640 l 1
 320 640 l 1
 320 576 l 1
 256 576 l 1
 256 512 l 1
 192 512 l 1
 192 448 l 1
 128 448 l 1
 128 384 l 1
 64 384 l 1
 64 320 l 1
 0 320 l 1
 0 128 l 1
 448 128 l 1
 448 320 l 1
 384 320 l 1
 384 256 l 1
 320 256 l 1
 320 192 l 1
 128 192 l 1
 128 234.667 128 277.333 128 320 c 1
 192 320 l 1
 192 384 l 1
 256 384 l 1
 256 448 l 1
 320 448 l 1
 320 512 l 1
 384 512 l 1
 384 576 l 1
 448 576 l 1
 448 618.667 448 661.333 448 704 c 1
 256 704 l 1
 256 768 l 1
 320 768 l 1
 320 832 l 1
 384 832 l 1
EndSplineSet
EndChar

StartChar: 017E
Encoding: 382 382 319
Width: 512
Flags: HW
LayerCount: 2
Fore
SplineSet
448 512 m 1
 448 576 l 1
 0 576 l 1
 -0 533.333 0 490.667 0 448 c 1
 128 448 l 1
 128 512 l 1
 256 512 l 1
 256 448 l 1
 192 448 l 1
 192 384 l 1
 128 384 l 1
 128 320 l 1
 64 320 l 1
 64 256 l 1
 0 256 l 1
 -0 213.333 0 170.667 0 128 c 1
 448 128 l 1
 448 170.667 448 213.333 448 256 c 1
 320 256 l 1
 320 192 l 1
 128 192 l 1
 128 256 l 1
 192 256 l 1
 192 320 l 1
 256 320 l 1
 256 384 l 1
 320 384 l 1
 320 448 l 1
 384 448 l 1
 384 512 l 1
 448 512 l 1
384 768 m 1
 384 832 l 1
 256 832 l 1
 256 768 l 1
 192 768 l 1
 192 832 l 1
 64 832 l 1
 64 768 l 1
 128 768 l 1
 128 704 l 1
 192 704 l 1
 192 640 l 1
 256 640 l 1
 256 704 l 1
 320 704 l 1
 320 768 l 1
 384 768 l 1
EndSplineSet
EndChar

StartChar: 017F
Encoding: 383 383 320
Width: 512
Flags: HW
LayerCount: 2
Fore
SplineSet
256 128 m 1
 256 192 l 1
 192 192 l 1
 192 362.667 192 533.333 192 704 c 1
 256 704 l 1
 256 640 l 1
 320 640 l 1
 320 576 l 1
 384 576 l 1
 384 618.667 384 661.333 384 704 c 1
 320 704 l 1
 320 768 l 1
 128 768 l 1
 128 704 l 1
 64 704 l 1
 64 533.333 64 362.667 64 192 c 1
 0 192 l 1
 0 128 l 1
 256 128 l 1
EndSplineSet
EndChar

StartChar: 0180
Encoding: 384 384 321
Width: 512
Flags: HW
LayerCount: 2
Fore
SplineSet
320 640 m 1
 320 704 l 1
 192 704 l 1
 192 768 l 1
 64 768 l 1
 64 704 l 1
 0 704 l 1
 0 640 l 1
 64 640 l 1
 64 469.333 64 298.667 64 128 c 1
 384 128 l 1
 384 192 l 1
 448 192 l 1
 448 277.333 448 362.667 448 448 c 1
 384 448 l 1
 384 512 l 1
 320 512 l 1
 320 576 l 1
 192 576 l 1
 192 640 l 1
 320 640 l 1
192 192 m 1
 192 512 l 1
 256 512 l 1
 256 448 l 1
 320 448 l 1
 320 362.667 320 277.333 320 192 c 1
 192 192 l 1
EndSplineSet
EndChar

StartChar: 0181
Encoding: 385 385 322
Width: 512
Flags: HW
LayerCount: 2
Fore
SplineSet
128 192 m 1
 64 192 l 1
 64 128 l 1
 448 128 l 1
 448 192 l 1
 512 192 l 1
 512 277.333 512 362.667 512 448 c 1
 448 448 l 1
 448 512 l 1
 512 512 l 1
 512 704 l 1
 448 704 l 1
 448 768 l 1
 64 768 l 1
 64 704 l 1
 0 704 l 1
 -0 661.333 0 618.667 0 576 c 1
 64 576 l 1
 64 618.667 64 661.333 64 704 c 1
 128 704 l 1
 128 533.333 128 362.667 128 192 c 1
256 192 m 1
 256 277.333 256 362.667 256 448 c 1
 384 448 l 1
 384 362.667 384 277.333 384 192 c 1
 256 192 l 1
256 512 m 1
 256 704 l 1
 384 704 l 1
 384 512 l 1
 256 512 l 1
EndSplineSet
EndChar

StartChar: 0182
Encoding: 386 386 323
Width: 512
Flags: HW
LayerCount: 2
Fore
SplineSet
64 192 m 1
 0 192 l 1
 0 128 l 1
 384 128 l 1
 384 192 l 1
 448 192 l 1
 448 277.333 448 362.667 448 448 c 1
 384 448 l 1
 384 512 l 1
 192 512 l 1
 192 704 l 1
 320 704 l 1
 320 640 l 1
 384 640 l 1
 384 682.667 384 725.333 384 768 c 1
 0 768 l 1
 0 704 l 1
 64 704 l 1
 64 533.333 64 362.667 64 192 c 1
192 192 m 1
 192 277.333 192 362.667 192 448 c 1
 320 448 l 1
 320 362.667 320 277.333 320 192 c 1
 192 192 l 1
EndSplineSet
EndChar

StartChar: 0183
Encoding: 387 387 324
Width: 512
Flags: HW
LayerCount: 2
Fore
SplineSet
64 768 m 1
 64 554.667 64 341.333 64 128 c 1
 384 128 l 1
 384 192 l 1
 448 192 l 1
 448 277.333 448 362.667 448 448 c 1
 384 448 l 1
 384 512 l 1
 320 512 l 1
 320 576 l 1
 192 576 l 1
 192 618.667 192 661.333 192 704 c 1
 384 704 l 1
 384 640 l 1
 448 640 l 1
 448 682.667 448 725.333 448 768 c 1
 64 768 l 1
192 192 m 1
 192 512 l 1
 256 512 l 1
 256 448 l 1
 320 448 l 1
 320 362.667 320 277.333 320 192 c 1
 192 192 l 1
EndSplineSet
EndChar

StartChar: 0184
Encoding: 388 388 325
Width: 512
Flags: HW
LayerCount: 2
Fore
SplineSet
64 192 m 1
 0 192 l 1
 0 128 l 1
 384 128 l 1
 384 192 l 1
 448 192 l 1
 448 277.333 448 362.667 448 448 c 1
 384 448 l 1
 384 512 l 1
 448 512 l 1
 448 704 l 1
 384 704 l 1
 384 768 l 1
 64 768 l 1
 64 704 l 1
 0 704 l 1
 -0 661.333 0 618.667 0 576 c 1
 64 576 l 1
 64 448 64 320 64 192 c 1
192 192 m 1
 192 277.333 192 362.667 192 448 c 1
 320 448 l 1
 320 362.667 320 277.333 320 192 c 1
 192 192 l 1
192 512 m 1
 192 704 l 1
 320 704 l 1
 320 512 l 1
 192 512 l 1
EndSplineSet
EndChar

StartChar: 0185
Encoding: 389 389 326
Width: 512
Flags: HW
LayerCount: 2
Fore
SplineSet
64 576 m 1
 64 128 l 1
 384 128 l 1
 384 192 l 1
 448 192 l 1
 448 277.333 448 362.667 448 448 c 1
 384 448 l 1
 384 512 l 1
 320 512 l 1
 320 576 l 1
 192 576 l 1
 192 768 l 1
 64 768 l 1
 64 704 l 1
 0 704 l 1
 -0 661.333 0 618.667 0 576 c 1
 64 576 l 1
192 192 m 1
 192 512 l 1
 256 512 l 1
 256 448 l 1
 320 448 l 1
 320 362.667 320 277.333 320 192 c 1
 192 192 l 1
EndSplineSet
EndChar

StartChar: 0186
Encoding: 390 390 327
Width: 512
Flags: HW
LayerCount: 2
Fore
SplineSet
64 192 m 1
 64 128 l 1
 320 128 l 1
 320 192 l 1
 384 192 l 1
 384 256 l 1
 448 256 l 1
 448 384 448 512 448 640 c 1
 384 640 l 1
 384 704 l 1
 320 704 l 1
 320 768 l 1
 64 768 l 1
 64 704 l 1
 0 704 l 1
 -0 661.333 0 618.667 0 576 c 1
 64 576 l 1
 64 640 l 1
 128 640 l 1
 128 704 l 1
 256 704 l 1
 256 640 l 1
 320 640 l 1
 320 512 320 384 320 256 c 1
 256 256 l 1
 256 192 l 1
 128 192 l 1
 128 256 l 1
 64 256 l 1
 64 320 l 1
 0 320 l 1
 -0 277.333 0 234.667 0 192 c 1
 64 192 l 1
EndSplineSet
EndChar

StartChar: 0187
Encoding: 391 391 328
Width: 512
Flags: HW
LayerCount: 2
Fore
SplineSet
512 768 m 1
 512 832 l 1
 384 832 l 1
 384 768 l 1
 128 768 l 1
 128 704 l 1
 64 704 l 1
 64 640 l 1
 0 640 l 1
 -0 512 0 384 0 256 c 1
 64 256 l 1
 64 192 l 1
 128 192 l 1
 128 128 l 1
 384 128 l 1
 384 192 l 1
 448 192 l 1
 448 234.667 448 277.333 448 320 c 1
 384 320 l 1
 384 256 l 1
 320 256 l 1
 320 192 l 1
 192 192 l 1
 192 256 l 1
 128 256 l 1
 128 384 128 512 128 640 c 1
 192 640 l 1
 192 704 l 1
 320 704 l 1
 320 640 l 1
 384 640 l 1
 384 576 l 1
 448 576 l 1
 448 768 l 1
 512 768 l 1
EndSplineSet
EndChar

StartChar: 0188
Encoding: 392 392 329
Width: 512
Flags: HW
LayerCount: 2
Fore
SplineSet
448 192 m 1
 448 256 l 1
 320 256 l 1
 320 192 l 1
 128 192 l 1
 128 512 l 1
 320 512 l 1
 320 448 l 1
 448 448 l 1
 448 490.667 448 533.333 448 576 c 1
 512 576 l 1
 512 640 l 1
 384 640 l 1
 384 576 l 1
 64 576 l 1
 64 512 l 1
 0 512 l 1
 0 192 l 1
 64 192 l 1
 64 128 l 1
 384 128 l 1
 384 192 l 1
 448 192 l 1
EndSplineSet
EndChar

StartChar: 0189
Encoding: 393 393 330
Width: 512
Flags: HW
LayerCount: 2
Fore
SplineSet
256 448 m 1
 256 512 l 1
 192 512 l 1
 192 704 l 1
 256 704 l 1
 256 640 l 1
 320 640 l 1
 320 512 320 384 320 256 c 1
 256 256 l 1
 256 192 l 1
 192 192 l 1
 192 277.333 192 362.667 192 448 c 1
 256 448 l 1
64 192 m 1
 0 192 l 1
 0 128 l 1
 320 128 l 1
 320 192 l 1
 384 192 l 1
 384 256 l 1
 448 256 l 1
 448 384 448 512 448 640 c 1
 384 640 l 1
 384 704 l 1
 320 704 l 1
 320 768 l 1
 0 768 l 1
 0 704 l 1
 64 704 l 1
 64 512 l 1
 0 512 l 1
 0 448 l 1
 64 448 l 1
 64 362.667 64 277.333 64 192 c 1
EndSplineSet
EndChar

StartChar: 018A
Encoding: 394 394 331
Width: 512
Flags: HW
LayerCount: 2
Fore
SplineSet
128 192 m 1
 64 192 l 1
 64 128 l 1
 384 128 l 1
 384 192 l 1
 448 192 l 1
 448 256 l 1
 512 256 l 1
 512 384 512 512 512 640 c 1
 448 640 l 1
 448 704 l 1
 384 704 l 1
 384 768 l 1
 64 768 l 1
 64 704 l 1
 0 704 l 1
 -0 661.333 0 618.667 0 576 c 1
 64 576 l 1
 64 618.667 64 661.333 64 704 c 1
 128 704 l 1
 128 533.333 128 362.667 128 192 c 1
256 192 m 1
 256 362.667 256 533.333 256 704 c 1
 320 704 l 1
 320 640 l 1
 384 640 l 1
 384 512 384 384 384 256 c 1
 320 256 l 1
 320 192 l 1
 256 192 l 1
EndSplineSet
EndChar

StartChar: 018B
Encoding: 395 395 332
Width: 512
Flags: HW
LayerCount: 2
Fore
SplineSet
448 128 m 1
 448 192 l 1
 384 192 l 1
 384 362.667 384 533.333 384 704 c 1
 448 704 l 1
 448 768 l 1
 64 768 l 1
 64 725.333 64 682.667 64 640 c 1
 128 640 l 1
 128 704 l 1
 256 704 l 1
 256 512 l 1
 64 512 l 1
 64 448 l 1
 0 448 l 1
 -0 362.667 0 277.333 0 192 c 1
 64 192 l 1
 64 128 l 1
 448 128 l 1
128 192 m 1
 128 277.333 128 362.667 128 448 c 1
 256 448 l 1
 256 362.667 256 277.333 256 192 c 1
 128 192 l 1
EndSplineSet
EndChar

StartChar: 018C
Encoding: 396 396 333
Width: 512
Flags: HW
LayerCount: 2
Fore
SplineSet
448 128 m 1
 448 192 l 1
 384 192 l 1
 384 768 l 1
 64 768 l 1
 64 725.333 64 682.667 64 640 c 1
 128 640 l 1
 128 704 l 1
 256 704 l 1
 256 661.333 256 618.667 256 576 c 1
 128 576 l 1
 128 512 l 1
 64 512 l 1
 64 448 l 1
 0 448 l 1
 -0 362.667 0 277.333 0 192 c 1
 64 192 l 1
 64 128 l 1
 256 128 l 1
 256 192 l 1
 128 192 l 1
 128 277.333 128 362.667 128 448 c 1
 192 448 l 1
 192 512 l 1
 256 512 l 1
 256 192 l 1
 320 192 l 1
 320 128 l 1
 448 128 l 1
EndSplineSet
EndChar

StartChar: 018D
Encoding: 397 397 334
Width: 512
Flags: HW
LayerCount: 2
Fore
SplineSet
384 0 m 1
 384 64 l 1
 320 64 l 1
 320 128 l 1
 256 128 l 1
 256 192 l 1
 384 192 l 1
 384 256 l 1
 448 256 l 1
 448 341.333 448 426.667 448 512 c 1
 384 512 l 1
 384 576 l 1
 64 576 l 1
 64 512 l 1
 0 512 l 1
 -0 426.667 0 341.333 0 256 c 1
 64 256 l 1
 64 192 l 1
 128 192 l 1
 128 128 l 1
 192 128 l 1
 192 64 l 1
 256 64 l 1
 256 0 l 1
 128 0 l 1
 128 64 l 1
 0 64 l 1
 0 0 l 1
 64 0 l 1
 64 -64 l 1
 320 -64 l 1
 320 0 l 1
 384 0 l 1
128 256 m 1
 128 341.333 128 426.667 128 512 c 1
 320 512 l 1
 320 426.667 320 341.333 320 256 c 1
 128 256 l 1
EndSplineSet
EndChar

StartChar: 018E
Encoding: 398 398 335
Width: 512
Flags: HW
LayerCount: 2
Fore
SplineSet
448 128 m 1
 448 192 l 1
 384 192 l 1
 384 362.667 384 533.333 384 704 c 1
 448 704 l 1
 448 768 l 1
 0 768 l 1
 0 576 l 1
 64 576 l 1
 64 640 l 1
 128 640 l 1
 128 704 l 1
 256 704 l 1
 256 512 l 1
 192 512 l 1
 192 576 l 1
 128 576 l 1
 128 384 l 1
 192 384 l 1
 192 448 l 1
 256 448 l 1
 256 362.667 256 277.333 256 192 c 1
 128 192 l 1
 128 256 l 1
 64 256 l 1
 64 320 l 1
 0 320 l 1
 0 128 l 1
 448 128 l 1
EndSplineSet
EndChar

StartChar: 018F
Encoding: 399 399 336
Width: 512
Flags: HW
LayerCount: 2
Fore
SplineSet
64 192 m 1
 64 128 l 1
 384 128 l 1
 384 192 l 1
 448 192 l 1
 448 362.667 448 533.333 448 704 c 1
 384 704 l 1
 384 768 l 1
 64 768 l 1
 64 704 l 1
 0 704 l 1
 0 640 l 1
 128 640 l 1
 128 704 l 1
 320 704 l 1
 320 618.667 320 533.333 320 448 c 1
 0 448 l 1
 -0 362.667 0 277.333 0 192 c 1
 64 192 l 1
128 192 m 1
 128 384 l 1
 320 384 l 1
 320 192 l 1
 128 192 l 1
EndSplineSet
EndChar

StartChar: 0190
Encoding: 400 400 337
Width: 512
Flags: HW
LayerCount: 2
Fore
SplineSet
320 448 m 1
 320 512 l 1
 128 512 l 1
 128 704 l 1
 320 704 l 1
 320 640 l 1
 384 640 l 1
 384 576 l 1
 448 576 l 1
 448 618.667 448 661.333 448 704 c 1
 384 704 l 1
 384 768 l 1
 64 768 l 1
 64 704 l 1
 0 704 l 1
 0 512 l 1
 64 512 l 1
 64 448 l 1
 0 448 l 1
 -0 362.667 0 277.333 0 192 c 1
 64 192 l 1
 64 128 l 1
 384 128 l 1
 384 192 l 1
 448 192 l 1
 448 234.667 448 277.333 448 320 c 1
 384 320 l 1
 384 256 l 1
 320 256 l 1
 320 192 l 1
 128 192 l 1
 128 277.333 128 362.667 128 448 c 1
 320 448 l 1
EndSplineSet
EndChar

StartChar: 0191
Encoding: 401 401 338
Width: 512
Flags: HW
LayerCount: 2
Fore
SplineSet
128 0 m 1
 192 0 l 1
 192 448 l 1
 256 448 l 1
 256 384 l 1
 320 384 l 1
 320 576 l 1
 256 576 l 1
 256 512 l 1
 192 512 l 1
 192 704 l 1
 320 704 l 1
 320 640 l 1
 384 640 l 1
 384 576 l 1
 448 576 l 1
 448 768 l 1
 0 768 l 1
 0 704 l 1
 64 704 l 1
 64 0 l 1
 0 0 l 1
 0 -64 l 1
 128 -64 l 1
 128 0 l 1
EndSplineSet
EndChar

StartChar: 0192
Encoding: 402 402 339
Width: 512
Flags: HW
LayerCount: 2
Fore
SplineSet
320 448 m 1
 320 512 l 1
 256 512 l 1
 256 704 l 1
 320 704 l 1
 320 640 l 1
 384 640 l 1
 384 576 l 1
 448 576 l 1
 448 618.667 448 661.333 448 704 c 1
 384 704 l 1
 384 768 l 1
 192 768 l 1
 192 704 l 1
 128 704 l 1
 128 512 l 1
 64 512 l 1
 64 448 l 1
 128 448 l 1
 128 0 l 1
 0 0 l 1
 0 -64 l 1
 192 -64 l 1
 192 0 l 1
 256 0 l 1
 256 448 l 1
 320 448 l 1
EndSplineSet
EndChar

StartChar: 0193
Encoding: 403 403 340
Width: 512
Flags: HW
LayerCount: 2
Fore
SplineSet
512 768 m 1
 512 832 l 1
 384 832 l 1
 384 768 l 1
 128 768 l 1
 128 704 l 1
 64 704 l 1
 64 640 l 1
 0 640 l 1
 -0 512 0 384 0 256 c 1
 64 256 l 1
 64 192 l 1
 128 192 l 1
 128 128 l 1
 320 128 l 1
 320 192 l 1
 192 192 l 1
 192 256 l 1
 128 256 l 1
 128 384 128 512 128 640 c 1
 192 640 l 1
 192 704 l 1
 320 704 l 1
 320 640 l 1
 384 640 l 1
 384 576 l 1
 448 576 l 1
 448 768 l 1
 512 768 l 1
384 192 m 1
 384 128 l 1
 448 128 l 1
 448 448 l 1
 192 448 l 1
 192 384 l 1
 320 384 l 1
 320 192 l 1
 384 192 l 1
EndSplineSet
EndChar

StartChar: 0194
Encoding: 404 404 341
Width: 512
Flags: HW
LayerCount: 2
Fore
SplineSet
384 64 m 1
 384 128 l 1
 320 128 l 1
 320 192 l 1
 256 192 l 1
 256 256 l 1
 320 256 l 1
 320 298.667 320 341.333 320 384 c 1
 384 384 l 1
 384 576 l 1
 448 576 l 1
 448 768 l 1
 320 768 l 1
 320 576 l 1
 256 576 l 1
 256 384 l 1
 192 384 l 1
 192 576 l 1
 128 576 l 1
 128 768 l 1
 0 768 l 1
 0 576 l 1
 64 576 l 1
 64 384 l 1
 128 384 l 1
 128 341.333 128 298.667 128 256 c 1
 192 256 l 1
 192 192 l 1
 128 192 l 1
 128 128 l 1
 64 128 l 1
 64 64 l 1
 128 64 l 1
 128 0 l 1
 320 0 l 1
 320 64 l 1
 384 64 l 1
192 64 m 1
 192 128 l 1
 256 128 l 1
 256 64 l 1
 192 64 l 1
EndSplineSet
EndChar

StartChar: 0195
Encoding: 405 405 342
Width: 512
Flags: HW
LayerCount: 2
Fore
SplineSet
0 768 m 1
 -0 554.667 0 341.333 0 128 c 1
 128 128 l 1
 128 256 128 384 128 512 c 1
 192 512 l 1
 192 192 l 1
 256 192 l 1
 256 128 l 1
 448 128 l 1
 448 192 l 1
 512 192 l 1
 512 320 512 448 512 576 c 1
 384 576 l 1
 384 448 384 320 384 192 c 1
 320 192 l 1
 320 512 l 1
 256 512 l 1
 256 576 l 1
 128 576 l 1
 128 768 l 1
 0 768 l 1
EndSplineSet
EndChar

StartChar: 0196
Encoding: 406 406 343
Width: 512
Flags: HW
LayerCount: 2
Fore
SplineSet
448 192 m 1
 448 256 l 1
 320 256 l 1
 320 192 l 1
 256 192 l 1
 256 768 l 1
 64 768 l 1
 64 704 l 1
 128 704 l 1
 128 533.333 128 362.667 128 192 c 1
 192 192 l 1
 192 128 l 1
 384 128 l 1
 384 192 l 1
 448 192 l 1
EndSplineSet
EndChar

StartChar: 0197
Encoding: 407 407 344
Width: 512
Flags: HW
LayerCount: 2
Fore
SplineSet
384 128 m 1
 384 192 l 1
 320 192 l 1
 320 277.333 320 362.667 320 448 c 1
 384 448 l 1
 384 512 l 1
 320 512 l 1
 320 704 l 1
 384 704 l 1
 384 768 l 1
 128 768 l 1
 128 704 l 1
 192 704 l 1
 192 512 l 1
 128 512 l 1
 128 448 l 1
 192 448 l 1
 192 362.667 192 277.333 192 192 c 1
 128 192 l 1
 128 128 l 1
 384 128 l 1
EndSplineSet
EndChar

StartChar: 0198
Encoding: 408 408 345
Width: 512
Flags: HW
LayerCount: 2
Fore
SplineSet
512 640 m 1
 512 704 l 1
 448 704 l 1
 448 640 l 1
 512 640 l 1
64 192 m 1
 0 192 l 1
 0 128 l 1
 192 128 l 1
 192 213.333 192 298.667 192 384 c 1
 256 384 l 1
 256 320 l 1
 320 320 l 1
 320 128 l 1
 448 128 l 1
 448 320 l 1
 384 320 l 1
 384 384 l 1
 320 384 l 1
 320 448 l 1
 256 448 l 1
 256 512 l 1
 320 512 l 1
 320 576 l 1
 384 576 l 1
 384 618.667 384 661.333 384 704 c 1
 448 704 l 1
 448 768 l 1
 320 768 l 1
 320 704 l 1
 256 704 l 1
 256 661.333 256 618.667 256 576 c 1
 192 576 l 1
 192 768 l 1
 0 768 l 1
 0 704 l 1
 64 704 l 1
 64 533.333 64 362.667 64 192 c 1
EndSplineSet
EndChar

StartChar: 0199
Encoding: 409 409 346
Width: 512
Flags: HW
LayerCount: 2
Fore
SplineSet
448 512 m 1
 448 576 l 1
 320 576 l 1
 320 512 l 1
 256 512 l 1
 256 448 l 1
 192 448 l 1
 192 533.333 192 618.667 192 704 c 1
 256 704 l 1
 256 640 l 1
 384 640 l 1
 384 704 l 1
 320 704 l 1
 320 768 l 1
 128 768 l 1
 128 704 l 1
 64 704 l 1
 64 533.333 64 362.667 64 192 c 1
 0 192 l 1
 0 128 l 1
 192 128 l 1
 192 320 l 1
 256 320 l 1
 256 256 l 1
 320 256 l 1
 320 213.333 320 170.667 320 128 c 1
 448 128 l 1
 448 170.667 448 213.333 448 256 c 1
 384 256 l 1
 384 320 l 1
 320 320 l 1
 320 362.667 320 405.333 320 448 c 1
 384 448 l 1
 384 512 l 1
 448 512 l 1
EndSplineSet
EndChar

StartChar: 019A
Encoding: 410 410 347
Width: 512
Flags: HW
LayerCount: 2
Fore
SplineSet
384 128 m 1
 384 192 l 1
 320 192 l 1
 320 277.333 320 362.667 320 448 c 1
 384 448 l 1
 384 512 l 1
 320 512 l 1
 320 597.333 320 682.667 320 768 c 1
 128 768 l 1
 128 704 l 1
 192 704 l 1
 192 512 l 1
 128 512 l 1
 128 448 l 1
 192 448 l 1
 192 362.667 192 277.333 192 192 c 1
 128 192 l 1
 128 128 l 1
 384 128 l 1
EndSplineSet
EndChar

StartChar: 019B
Encoding: 411 411 348
Width: 512
Flags: HW
LayerCount: 2
Fore
SplineSet
0 256 m 1
 -0 213.333 0 170.667 0 128 c 1
 128 128 l 1
 128 170.667 128 213.333 128 256 c 1
 192 256 l 1
 192 298.667 192 341.333 192 384 c 1
 256 384 l 1
 256 320 l 1
 320 320 l 1
 320 277.333 320 234.667 320 192 c 1
 384 192 l 1
 384 128 l 1
 448 128 l 1
 448 170.667 448 213.333 448 256 c 1
 384 256 l 1
 384 298.667 384 341.333 384 384 c 1
 320 384 l 1
 320 426.667 320 469.333 320 512 c 1
 256 512 l 1
 256 554.667 256 597.333 256 640 c 1
 320 640 l 1
 320 682.667 320 725.333 320 768 c 1
 256 768 l 1
 256 704 l 1
 128 704 l 1
 128 640 l 1
 64 640 l 1
 64 576 l 1
 0 576 l 1
 0 512 l 1
 128 512 l 1
 128 469.333 128 426.667 128 384 c 1
 64 384 l 1
 64 341.333 64 298.667 64 256 c 1
 0 256 l 1
128 512 m 1
 128 576 l 1
 192 576 l 1
 192 512 l 1
 128 512 l 1
128 704 m 1
 128 768 l 1
 0 768 l 1
 0 704 l 1
 128 704 l 1
EndSplineSet
EndChar

StartChar: 019C
Encoding: 412 412 349
Width: 512
Flags: HW
LayerCount: 2
Fore
SplineSet
384 192 m 1
 448 192 l 1
 448 768 l 1
 320 768 l 1
 320 597.333 320 426.667 320 256 c 1
 256 256 l 1
 256 426.667 256 597.333 256 768 c 1
 192 768 l 1
 192 597.333 192 426.667 192 256 c 1
 128 256 l 1
 128 426.667 128 597.333 128 768 c 1
 0 768 l 1
 -0 554.667 0 341.333 0 128 c 1
 192 128 l 1
 192 192 l 1
 256 192 l 1
 256 128 l 1
 384 128 l 1
 384 192 l 1
EndSplineSet
EndChar

StartChar: 019D
Encoding: 413 413 350
Width: 512
Flags: HW
LayerCount: 2
Fore
SplineSet
128 0 m 1
 192 0 l 1
 192 448 l 1
 256 448 l 1
 256 384 l 1
 320 384 l 1
 320 298.667 320 213.333 320 128 c 1
 448 128 l 1
 448 341.333 448 554.667 448 768 c 1
 320 768 l 1
 320 576 l 1
 256 576 l 1
 256 640 l 1
 192 640 l 1
 192 682.667 192 725.333 192 768 c 1
 64 768 l 1
 64 512 64 256 64 0 c 1
 0 0 l 1
 0 -64 l 1
 128 -64 l 1
 128 0 l 1
EndSplineSet
EndChar

StartChar: 019E
Encoding: 414 414 351
Width: 512
Flags: HW
LayerCount: 2
Fore
SplineSet
320 512 m 1
 320 -64 l 1
 448 -64 l 1
 448 512 l 1
 384 512 l 1
 384 576 l 1
 192 576 l 1
 192 512 l 1
 128 512 l 1
 128 576 l 1
 0 576 l 1
 0 512 l 1
 64 512 l 1
 64 384 64 256 64 128 c 1
 192 128 l 1
 192 256 192 384 192 512 c 1
 320 512 l 1
EndSplineSet
EndChar

StartChar: 019F
Encoding: 415 415 352
Width: 512
Flags: HW
LayerCount: 2
Fore
SplineSet
64 192 m 1
 64 128 l 1
 384 128 l 1
 384 192 l 1
 448 192 l 1
 448 362.667 448 533.333 448 704 c 1
 384 704 l 1
 384 768 l 1
 64 768 l 1
 64 704 l 1
 0 704 l 1
 -0 533.333 0 362.667 0 192 c 1
 64 192 l 1
128 192 m 1
 128 277.333 128 362.667 128 448 c 1
 320 448 l 1
 320 362.667 320 277.333 320 192 c 1
 128 192 l 1
128 512 m 1
 128 704 l 1
 320 704 l 1
 320 512 l 1
 128 512 l 1
EndSplineSet
EndChar

StartChar: 01A0
Encoding: 416 416 353
Width: 512
Flags: HW
LayerCount: 2
Fore
SplineSet
64 192 m 1
 64 128 l 1
 320 128 l 1
 320 192 l 1
 384 192 l 1
 384 362.667 384 533.333 384 704 c 1
 320 704 l 1
 320 768 l 1
 64 768 l 1
 64 704 l 1
 0 704 l 1
 -0 533.333 0 362.667 0 192 c 1
 64 192 l 1
128 192 m 1
 128 362.667 128 533.333 128 704 c 1
 256 704 l 1
 256 533.333 256 362.667 256 192 c 1
 128 192 l 1
384 704 m 1
 448 704 l 1
 448 768 l 1
 512 768 l 1
 512 810.667 512 853.333 512 896 c 1
 384 896 l 1
 384 704 l 1
EndSplineSet
EndChar

StartChar: 01A1
Encoding: 417 417 354
Width: 512
Flags: HW
LayerCount: 2
Fore
SplineSet
64 192 m 1
 64 128 l 1
 320 128 l 1
 320 192 l 1
 384 192 l 1
 384 512 l 1
 320 512 l 1
 320 576 l 1
 64 576 l 1
 64 512 l 1
 0 512 l 1
 0 192 l 1
 64 192 l 1
128 192 m 1
 128 512 l 1
 256 512 l 1
 256 192 l 1
 128 192 l 1
320 576 m 1
 448 576 l 1
 448 640 l 1
 512 640 l 1
 512 682.667 512 725.333 512 768 c 1
 384 768 l 1
 384 725.333 384 682.667 384 640 c 1
 320 640 l 1
 320 576 l 1
EndSplineSet
EndChar

StartChar: 01A2
Encoding: 418 418 355
Width: 512
Flags: HW
LayerCount: 2
Fore
SplineSet
384 640 m 1
 384 -64 l 1
 512 -64 l 1
 512 768 l 1
 384 768 l 1
 384 704 l 1
 256 704 l 1
 256 768 l 1
 64 768 l 1
 64 704 l 1
 0 704 l 1
 -0 533.333 0 362.667 0 192 c 1
 64 192 l 1
 64 128 l 1
 256 128 l 1
 256 192 l 1
 320 192 l 1
 320 640 l 1
 384 640 l 1
128 192 m 1
 128 362.667 128 533.333 128 704 c 1
 192 704 l 1
 192 533.333 192 362.667 192 192 c 1
 128 192 l 1
EndSplineSet
EndChar

StartChar: 01A3
Encoding: 419 419 356
Width: 512
Flags: HW
LayerCount: 2
Fore
SplineSet
384 448 m 1
 384 277.333 384 106.667 384 -64 c 1
 512 -64 l 1
 512 149.333 512 362.667 512 576 c 1
 384 576 l 1
 384 512 l 1
 256 512 l 1
 256 576 l 1
 64 576 l 1
 64 512 l 1
 0 512 l 1
 0 192 l 1
 64 192 l 1
 64 128 l 1
 256 128 l 1
 256 192 l 1
 320 192 l 1
 320 277.333 320 362.667 320 448 c 1
 384 448 l 1
128 192 m 1
 128 512 l 1
 192 512 l 1
 192 192 l 1
 128 192 l 1
EndSplineSet
EndChar

StartChar: 01A4
Encoding: 420 420 357
Width: 512
Flags: HW
LayerCount: 2
Fore
SplineSet
320 128 m 1
 320 192 l 1
 256 192 l 1
 256 277.333 256 362.667 256 448 c 1
 448 448 l 1
 448 512 l 1
 512 512 l 1
 512 704 l 1
 448 704 l 1
 448 768 l 1
 64 768 l 1
 64 704 l 1
 0 704 l 1
 -0 661.333 0 618.667 0 576 c 1
 64 576 l 1
 64 618.667 64 661.333 64 704 c 1
 128 704 l 1
 128 533.333 128 362.667 128 192 c 1
 64 192 l 1
 64 128 l 1
 320 128 l 1
256 512 m 1
 256 704 l 1
 384 704 l 1
 384 512 l 1
 256 512 l 1
EndSplineSet
EndChar

StartChar: 01A5
Encoding: 421 421 358
Width: 512
Flags: HW
LayerCount: 2
Fore
SplineSet
256 -64 m 1
 256 0 l 1
 192 0 l 1
 192 42.6667 192 85.3333 192 128 c 1
 384 128 l 1
 384 192 l 1
 448 192 l 1
 448 512 l 1
 384 512 l 1
 384 576 l 1
 192 576 l 1
 192 618.667 192 661.333 192 704 c 1
 256 704 l 1
 256 640 l 1
 384 640 l 1
 384 704 l 1
 320 704 l 1
 320 768 l 1
 128 768 l 1
 128 704 l 1
 64 704 l 1
 64 0 l 1
 0 0 l 1
 0 -64 l 1
 256 -64 l 1
192 192 m 1
 192 512 l 1
 320 512 l 1
 320 192 l 1
 192 192 l 1
EndSplineSet
EndChar

StartChar: 01A6
Encoding: 422 422 359
Width: 512
Flags: HW
LayerCount: 2
Fore
SplineSet
256 704 m 1
 256 768 l 1
 0 768 l 1
 0 704 l 1
 64 704 l 1
 64 533.333 64 362.667 64 192 c 1
 0 192 l 1
 0 128 l 1
 192 128 l 1
 192 320 l 1
 256 320 l 1
 256 277.333 256 234.667 256 192 c 1
 320 192 l 1
 320 149.333 320 106.667 320 64 c 1
 448 64 l 1
 448 106.667 448 149.333 448 192 c 1
 384 192 l 1
 384 234.667 384 277.333 384 320 c 1
 320 320 l 1
 320 384 l 1
 384 384 l 1
 384 448 l 1
 448 448 l 1
 448 490.667 448 533.333 448 576 c 1
 384 576 l 1
 384 640 l 1
 192 640 l 1
 192 704 l 1
 256 704 l 1
192 448 m 1
 192 490.667 192 533.333 192 576 c 1
 320 576 l 1
 320 533.333 320 490.667 320 448 c 1
 192 448 l 1
EndSplineSet
EndChar

StartChar: 01A7
Encoding: 423 423 360
Width: 512
Flags: HW
LayerCount: 2
Fore
SplineSet
64 192 m 1
 64 128 l 1
 384 128 l 1
 384 192 l 1
 448 192 l 1
 448 234.667 448 277.333 448 320 c 1
 320 320 l 1
 320 277.333 320 234.667 320 192 c 1
 128 192 l 1
 128 384 l 1
 192 384 l 1
 192 448 l 1
 320 448 l 1
 320 512 l 1
 384 512 l 1
 384 576 l 1
 448 576 l 1
 448 618.667 448 661.333 448 704 c 1
 384 704 l 1
 384 768 l 1
 64 768 l 1
 64 704 l 1
 0 704 l 1
 -0 661.333 0 618.667 0 576 c 1
 128 576 l 1
 128 618.667 128 661.333 128 704 c 1
 320 704 l 1
 320 661.333 320 618.667 320 576 c 1
 256 576 l 1
 256 512 l 1
 128 512 l 1
 128 448 l 1
 64 448 l 1
 64 384 l 1
 0 384 l 1
 0 192 l 1
 64 192 l 1
EndSplineSet
EndChar

StartChar: 01A8
Encoding: 424 424 361
Width: 512
Flags: HW
LayerCount: 2
Fore
SplineSet
448 192 m 1
 448 256 l 1
 320 256 l 1
 320 192 l 1
 128 192 l 1
 128 256 l 1
 192 256 l 1
 192 320 l 1
 320 320 l 1
 320 384 l 1
 384 384 l 1
 384 448 l 1
 448 448 l 1
 448 512 l 1
 384 512 l 1
 384 576 l 1
 64 576 l 1
 64 512 l 1
 0 512 l 1
 0 448 l 1
 128 448 l 1
 128 512 l 1
 320 512 l 1
 320 448 l 1
 256 448 l 1
 256 384 l 1
 128 384 l 1
 128 320 l 1
 64 320 l 1
 64 256 l 1
 0 256 l 1
 0 192 l 1
 64 192 l 1
 64 128 l 1
 384 128 l 1
 384 192 l 1
 448 192 l 1
EndSplineSet
EndChar

StartChar: 01A9
Encoding: 425 425 362
Width: 512
Flags: HW
LayerCount: 2
Fore
SplineSet
0 256 m 1
 -0 213.333 0 170.667 0 128 c 1
 448 128 l 1
 448 320 l 1
 384 320 l 1
 384 256 l 1
 320 256 l 1
 320 192 l 1
 128 192 l 1
 128 256 l 1
 192 256 l 1
 192 320 l 1
 256 320 l 1
 256 384 l 1
 320 384 l 1
 320 426.667 320 469.333 320 512 c 1
 256 512 l 1
 256 576 l 1
 192 576 l 1
 192 640 l 1
 128 640 l 1
 128 704 l 1
 320 704 l 1
 320 640 l 1
 384 640 l 1
 384 576 l 1
 448 576 l 1
 448 768 l 1
 0 768 l 1
 -0 725.333 0 682.667 0 640 c 1
 64 640 l 1
 64 576 l 1
 128 576 l 1
 128 512 l 1
 192 512 l 1
 192 469.333 192 426.667 192 384 c 1
 128 384 l 1
 128 320 l 1
 64 320 l 1
 64 256 l 1
 0 256 l 1
EndSplineSet
EndChar

StartChar: 01AA
Encoding: 426 426 363
Width: 512
Flags: HW
LayerCount: 2
Fore
SplineSet
512 0 m 1
 512 64 l 1
 384 64 l 1
 384 0 l 1
 320 0 l 1
 320 704 l 1
 256 704 l 1
 256 768 l 1
 64 768 l 1
 64 704 l 1
 0 704 l 1
 0 640 l 1
 64 640 l 1
 64 576 l 1
 192 576 l 1
 192 0 l 1
 256 0 l 1
 256 -64 l 1
 448 -64 l 1
 448 0 l 1
 512 0 l 1
128 640 m 1
 128 704 l 1
 192 704 l 1
 192 640 l 1
 128 640 l 1
EndSplineSet
EndChar

StartChar: 01AB
Encoding: 427 427 364
Width: 512
Flags: HW
LayerCount: 2
Fore
SplineSet
448 192 m 1
 448 256 l 1
 320 256 l 1
 320 192 l 1
 256 192 l 1
 256 512 l 1
 384 512 l 1
 384 576 l 1
 256 576 l 1
 256 768 l 1
 192 768 l 1
 192 704 l 1
 128 704 l 1
 128 661.333 128 618.667 128 576 c 1
 0 576 l 1
 0 512 l 1
 128 512 l 1
 128 192 l 1
 192 192 l 1
 192 128 l 1
 256 128 l 1
 256 85.3333 256 42.6667 256 0 c 1
 192 0 l 1
 192 64 l 1
 64 64 l 1
 64 0 l 1
 128 0 l 1
 128 -64 l 1
 320 -64 l 1
 320 0 l 1
 384 0 l 1
 384 192 l 1
 448 192 l 1
EndSplineSet
EndChar

StartChar: 01AC
Encoding: 428 428 365
Width: 512
Flags: HW
LayerCount: 2
Fore
SplineSet
384 128 m 1
 384 192 l 1
 320 192 l 1
 320 640 l 1
 384 640 l 1
 384 576 l 1
 448 576 l 1
 448 768 l 1
 64 768 l 1
 64 704 l 1
 0 704 l 1
 -0 661.333 0 618.667 0 576 c 1
 64 576 l 1
 64 512 l 1
 128 512 l 1
 128 576 l 1
 64 576 l 1
 64 640 l 1
 192 640 l 1
 192 192 l 1
 128 192 l 1
 128 128 l 1
 384 128 l 1
EndSplineSet
EndChar

StartChar: 01AD
Encoding: 429 429 366
Width: 512
Flags: HW
LayerCount: 2
Fore
SplineSet
448 192 m 1
 448 256 l 1
 320 256 l 1
 320 192 l 1
 256 192 l 1
 256 512 l 1
 384 512 l 1
 384 576 l 1
 256 576 l 1
 256 618.667 256 661.333 256 704 c 1
 320 704 l 1
 320 640 l 1
 448 640 l 1
 448 704 l 1
 384 704 l 1
 384 768 l 1
 192 768 l 1
 192 704 l 1
 128 704 l 1
 128 661.333 128 618.667 128 576 c 1
 0 576 l 1
 0 512 l 1
 128 512 l 1
 128 192 l 1
 192 192 l 1
 192 128 l 1
 384 128 l 1
 384 192 l 1
 448 192 l 1
EndSplineSet
EndChar

StartChar: 01AE
Encoding: 430 430 367
Width: 512
Flags: HW
LayerCount: 2
Fore
SplineSet
448 -64 m 1
 448 0 l 1
 320 0 l 1
 320 213.333 320 426.667 320 640 c 1
 384 640 l 1
 384 576 l 1
 448 576 l 1
 448 768 l 1
 64 768 l 1
 64 576 l 1
 128 576 l 1
 128 640 l 1
 192 640 l 1
 192 426.667 192 213.333 192 0 c 1
 256 0 l 1
 256 -64 l 1
 448 -64 l 1
EndSplineSet
EndChar

StartChar: 01AF
Encoding: 431 431 368
Width: 512
Flags: HW
LayerCount: 2
Fore
SplineSet
64 192 m 1
 64 128 l 1
 320 128 l 1
 320 192 l 1
 384 192 l 1
 384 362.667 384 533.333 384 704 c 1
 448 704 l 1
 448 768 l 1
 512 768 l 1
 512 810.667 512 853.333 512 896 c 1
 384 896 l 1
 384 853.333 384 810.667 384 768 c 1
 256 768 l 1
 256 192 l 1
 128 192 l 1
 128 768 l 1
 0 768 l 1
 0 192 l 1
 64 192 l 1
EndSplineSet
EndChar

StartChar: 01B0
Encoding: 432 432 369
Width: 512
Flags: HW
LayerCount: 2
Fore
SplineSet
448 128 m 1
 448 192 l 1
 384 192 l 1
 384 320 384 448 384 576 c 1
 448 576 l 1
 448 640 l 1
 512 640 l 1
 512 682.667 512 725.333 512 768 c 1
 384 768 l 1
 384 725.333 384 682.667 384 640 c 1
 320 640 l 1
 320 576 l 1
 256 576 l 1
 256 448 256 320 256 192 c 1
 128 192 l 1
 128 320 128 448 128 576 c 1
 0 576 l 1
 -0 448 0 320 0 192 c 1
 64 192 l 1
 64 128 l 1
 256 128 l 1
 256 192 l 1
 320 192 l 1
 320 128 l 1
 448 128 l 1
EndSplineSet
EndChar

